<svg width="228" height="184" viewBox="0 0 228 184" fill="none" xmlns="http://www.w3.org/2000/svg">
  <path d="M135.194 97.4694C135.368 97.2059 135.527 96.9328 135.668 96.6502C137.019 93.9769 139.692 93.1972 142.236 94.9003C146.801 97.952 151.369 100.999 155.94 104.041C156 104.083 156.072 104.105 156.145 104.102C157.596 104.085 158.533 104.127 158.954 104.228C159.942 104.458 160.201 105.773 159.5 106.448C158.944 106.984 158.315 106.786 157.639 106.793C149.131 106.872 140.608 106.871 132.071 106.79C132.007 106.79 131.944 106.772 131.889 106.739C131.834 106.706 131.789 106.659 131.759 106.603L128.791 101.116C128.472 100.529 128.293 100.569 128.252 101.235C128.043 104.514 126.436 106.727 123.43 107.875C122.237 108.331 120.293 108.356 118.964 108.31C110.538 108.029 102.281 108.399 93.967 108.31C88.3091 108.25 82.6501 108.231 76.9899 108.252C74.9275 108.262 73.4327 108.098 72.5057 107.76C69.0564 106.499 67.0264 102.176 68.4708 98.6695C68.7845 97.9053 69.5463 96.843 70.7559 95.4824C73.1824 92.7589 75.585 90.0294 77.9636 87.2939C78.3181 86.8867 78.2247 86.6891 77.6833 86.701C77.1851 86.7106 76.6868 86.7046 76.1886 86.6831C73.4435 86.5573 72.5453 84.6278 73.5908 82.2205C74.6783 79.7078 75.7874 77.2058 76.918 74.7146C78.1396 72.0163 78.5888 70.8234 81.9554 71.56C82.4489 71.6677 82.9435 71.7695 83.4394 71.8654C83.4922 71.8756 83.5467 71.8739 83.5988 71.8602C83.6509 71.8466 83.6992 71.8214 83.7403 71.7866C83.7813 71.7517 83.814 71.7081 83.8359 71.6589C83.8579 71.6098 83.8685 71.5563 83.8669 71.5025C83.8382 70.3144 83.8286 69.1287 83.8382 67.9454C83.8777 63.2636 85.7461 61.0072 90.5536 61.0072C98.4535 61.0048 106.353 61.0024 114.253 61C114.321 61 114.389 61.0199 114.447 61.0575C115.453 61.7042 115.547 62.4959 114.728 63.4325C114.667 63.5018 114.582 63.5455 114.49 63.5547L113.42 63.6517C113.366 63.6565 113.314 63.6735 113.267 63.7013C113.221 63.7291 113.181 63.7671 113.151 63.8123C113.122 63.8576 113.103 63.909 113.096 63.9627C113.089 64.0164 113.094 64.0709 113.111 64.1224L118.08 79.0263C118.1 79.0863 118.135 79.1399 118.181 79.1816C118.228 79.2233 118.285 79.2515 118.346 79.2634C121.175 79.8599 124.006 80.4767 126.84 81.1138C128.993 81.6001 130.388 82.8912 131.026 84.9871C131.533 86.6495 132.707 90.7767 134.547 97.3688C134.688 97.8718 134.904 97.9053 135.194 97.4694ZM105.105 65.3152C106.787 65.3416 108.473 65.332 110.164 65.2865C110.221 65.2853 110.276 65.2711 110.325 65.2448C110.375 65.2185 110.417 65.181 110.45 65.1353C110.482 65.0895 110.504 65.0368 110.512 64.9813C110.521 64.9258 110.516 64.8692 110.499 64.8158L110.211 63.9391C110.187 63.867 110.141 63.8042 110.08 63.7597C110.019 63.7152 109.945 63.6913 109.87 63.6912C103.287 63.6984 96.7049 63.702 90.1224 63.702C88.4121 63.702 86.8815 64.3056 86.6012 66.0554C86.4455 67.0399 86.412 69.0999 86.5006 72.2354C86.5029 72.3164 86.5321 72.3941 86.5837 72.4561C86.6352 72.5181 86.706 72.5606 86.7845 72.5768L90.6219 73.3744C90.6742 73.385 90.7283 73.3839 90.7802 73.3712C90.8322 73.3584 90.8806 73.3344 90.9221 73.3007C90.9637 73.2671 90.9973 73.2247 91.0205 73.1766C91.0438 73.1284 91.0561 73.0758 91.0566 73.0223C91.0662 71.4462 91.0722 69.8688 91.0746 68.2903C91.0746 66.2351 92.2315 65.3224 94.2832 65.3224C97.8942 65.326 101.182 65.2578 105.105 65.3152ZM98.1277 75.0165C103.493 76.1447 108.94 77.2825 114.469 78.4298C114.876 78.5137 115.014 78.3592 114.882 77.9663L111.645 68.2544C111.621 68.183 111.575 68.121 111.513 68.0772C111.452 68.0333 111.379 68.0098 111.303 68.01H94.1251C94.0304 68.01 93.9396 68.0478 93.8723 68.1151C93.805 68.1823 93.7667 68.2737 93.7658 68.3693L93.7514 73.7122C93.7513 73.7924 93.7777 73.8703 93.8265 73.9335C93.8754 73.9967 93.9438 74.0414 94.0209 74.0607C95.3838 74.408 96.7528 74.7266 98.1277 75.0165ZM121.881 82.7846L80.4931 73.9996C80.4127 73.9826 80.3289 73.9936 80.2557 74.0309C80.1824 74.0682 80.1242 74.1294 80.0907 74.2044L75.9515 83.4924C75.9277 83.5474 75.918 83.6075 75.9231 83.6671C75.9282 83.7268 75.948 83.7843 75.9808 83.8345C76.0135 83.8846 76.0581 83.9259 76.1107 83.9546C76.1633 83.9834 76.2221 83.9986 76.282 83.9991H80.7518C80.8037 83.9991 80.855 83.9878 80.9021 83.9661C80.9492 83.9444 80.9911 83.9127 81.0248 83.8733C82.5459 82.0696 84.449 81.157 86.7342 81.1354C88.1319 81.1246 89.5799 81.8109 90.9596 82.2744C91.9752 82.6169 93.0424 82.8816 94.161 83.0685C103.089 84.5656 112.024 86.0531 120.969 87.531C121.025 87.54 121.084 87.5353 121.138 87.5172C121.193 87.4991 121.242 87.4681 121.282 87.4269C121.323 87.3857 121.352 87.3355 121.369 87.2805C121.386 87.2254 121.389 87.1672 121.378 87.1106C121.132 85.7405 121.376 84.4805 122.111 83.3308C122.142 83.2811 122.161 83.2248 122.166 83.1665C122.17 83.1083 122.161 83.0499 122.138 82.9962C122.116 82.9426 122.081 82.8953 122.036 82.8585C121.991 82.8217 121.938 82.7963 121.881 82.7846ZM90.9776 88.2317C90.9776 87.6584 90.8647 87.0907 90.6453 86.561C90.4259 86.0314 90.1043 85.5501 89.6989 85.1448C89.2936 84.7394 88.8123 84.4178 88.2826 84.1984C87.753 83.979 87.1853 83.8661 86.612 83.8661C86.0387 83.8661 85.4711 83.979 84.9414 84.1984C84.4117 84.4178 83.9305 84.7394 83.5251 85.1448C83.1197 85.5501 82.7982 86.0314 82.5788 86.561C82.3594 87.0907 82.2465 87.6584 82.2465 88.2317C82.2465 89.3895 82.7064 90.4999 83.5251 91.3186C84.3438 92.1373 85.4542 92.5972 86.612 92.5972C87.7698 92.5972 88.8802 92.1373 89.6989 91.3186C90.5176 90.4999 90.9776 89.3895 90.9776 88.2317ZM128.421 86.0722C128.421 85.4862 128.188 84.9241 127.773 84.5097C127.359 84.0953 126.797 83.8625 126.211 83.8625C125.625 83.8625 125.063 84.0953 124.648 84.5097C124.234 84.9241 124.001 85.4862 124.001 86.0722C124.001 86.6583 124.234 87.2204 124.648 87.6348C125.063 88.0492 125.625 88.282 126.211 88.282C126.797 88.282 127.359 88.0492 127.773 87.6348C128.188 87.2204 128.421 86.6583 128.421 86.0722ZM113.183 93.5027L94.0065 86.3202C93.5945 86.1669 93.4364 86.3046 93.5322 86.7334C93.858 88.2209 93.7107 89.6701 93.0903 91.0809C93.0597 91.1479 93.0513 91.2231 93.0661 91.2959C93.0809 91.3687 93.1183 91.4355 93.1729 91.487L95.8066 93.9626C95.8734 94.0249 95.962 94.0596 96.0545 94.0596H113.082C114.138 94.0596 114.172 93.8739 113.183 93.5027ZM122.902 90.6174L106.029 87.8005C106.008 87.7972 105.987 87.7994 105.967 87.807C105.948 87.8146 105.931 87.8272 105.917 87.8436C105.81 87.9766 106.072 87.955 106.111 87.9694C111.937 90.13 117.757 92.3074 123.57 94.5015C123.898 94.6237 124.238 94.7914 124.59 95.0045C124.708 95.074 124.825 95.1423 124.943 95.2094C125.529 95.5495 125.661 95.4213 125.338 94.8249L123.157 90.8007C123.131 90.7527 123.095 90.7112 123.051 90.6794C123.006 90.6476 122.955 90.6264 122.902 90.6174ZM110.908 96.7759C106.395 96.8226 101.933 96.7112 97.4415 96.7903C94.5886 96.8406 93.428 95.3818 91.5812 93.7003C91.5182 93.6437 91.4373 93.6109 91.3527 93.6076C91.268 93.6043 91.1849 93.6307 91.1177 93.6823C89.5966 94.8704 87.9462 95.4046 86.1665 95.2848C84.6311 95.1818 83.2789 94.6488 82.1099 93.6859C81.0105 92.7829 80.2404 91.6067 79.7996 90.1575C79.6751 89.7455 79.4703 89.7 79.1852 90.021L76.0233 93.6069C75.7431 93.9254 75.8113 94.1219 76.2281 94.1961C77.5264 94.4285 78.6558 94.9447 79.6164 95.7447C82.5519 98.1916 82.9435 102.201 80.7949 105.41C80.7833 105.427 80.7754 105.446 80.7717 105.466C80.7679 105.486 80.7685 105.507 80.7732 105.527C80.7779 105.547 80.7868 105.566 80.7992 105.582C80.8116 105.598 80.8272 105.612 80.8452 105.622C80.9482 105.677 81.038 105.663 81.1147 105.579C81.1393 105.553 81.1696 105.533 81.2032 105.521C81.2368 105.509 81.2728 105.504 81.3087 105.507C83.4178 105.715 86.0012 105.557 87.5534 105.557C96.6582 105.564 105.769 105.56 114.886 105.543C115.302 105.541 115.405 105.36 115.195 105C113.698 102.447 113.705 99.8959 115.216 97.3472C115.248 97.2932 115.266 97.2317 115.266 97.1689C115.267 97.1061 115.252 97.0441 115.221 96.9892C115.191 96.9343 115.146 96.8884 115.092 96.856C115.039 96.8236 114.977 96.8059 114.914 96.8047C113.578 96.7711 112.242 96.7615 110.908 96.7759ZM132.887 101.971C132.93 101.818 132.931 101.667 132.89 101.519C131.865 97.7532 130.804 93.9865 129.707 90.2186C129.691 90.1631 129.662 90.1123 129.622 90.0705C129.582 90.0287 129.533 89.9972 129.478 89.9785C129.423 89.9598 129.365 89.9545 129.308 89.9632C129.251 89.9719 129.197 89.9941 129.15 90.0282C128.47 90.5216 127.713 90.8318 126.879 90.9588C126.823 90.9669 126.769 90.9888 126.723 91.0226C126.677 91.0564 126.639 91.1011 126.614 91.1529C126.589 91.2047 126.576 91.2621 126.577 91.3202C126.578 91.3784 126.593 91.4356 126.621 91.487L132.355 102.033C132.58 102.445 132.757 102.424 132.887 101.971ZM150.065 104.149C150.86 104.151 150.927 103.932 150.266 103.491C147.104 101.386 143.922 99.2659 140.72 97.1316C139.419 96.2693 138.625 96.7328 137.964 98.0263C137.027 99.854 136.098 101.708 135.176 103.588C135.149 103.643 135.136 103.704 135.139 103.765C135.143 103.826 135.161 103.885 135.194 103.937C135.226 103.989 135.271 104.031 135.324 104.061C135.378 104.09 135.438 104.106 135.499 104.106L150.065 104.149ZM79.4619 101.192C79.4619 100.033 79.0016 98.9217 78.1822 98.1023C77.3628 97.2829 76.2515 96.8226 75.0927 96.8226C73.934 96.8226 72.8227 97.2829 72.0033 98.1023C71.1839 98.9217 70.7236 100.033 70.7236 101.192C70.7236 102.351 71.1839 103.462 72.0033 104.281C72.8227 105.101 73.934 105.561 75.0927 105.561C76.2515 105.561 77.3628 105.101 78.1822 104.281C79.0016 103.462 79.4619 102.351 79.4619 101.192ZM125.543 101.188C125.543 100.03 125.083 98.92 124.264 98.1013C123.445 97.2826 122.335 96.8226 121.177 96.8226C120.019 96.8226 118.909 97.2826 118.09 98.1013C117.271 98.92 116.812 100.03 116.812 101.188C116.812 102.346 117.271 103.456 118.09 104.275C118.909 105.094 120.019 105.554 121.177 105.554C122.335 105.554 123.445 105.094 124.264 104.275C125.083 103.456 125.543 102.346 125.543 101.188Z" fill="url(#paint0_linear_138_32494)"/>
</svg>