<svg width="66" height="51" viewBox="0 0 66 51" fill="none" xmlns="http://www.w3.org/2000/svg">
<g clip-path="url(#clip0_86_239)">
<path d="M56.3696 50.5H9.48323C8.72824 50.5 8.11646 50.0293 8.11646 49.4486V1.55146C8.11646 0.970703 8.72837 0.500099 9.48323 0.500099H56.3694C57.1244 0.500099 57.7362 0.970802 57.7365 1.55146V49.4486C57.7365 50.0293 57.1245 50.5 56.3696 50.5ZM55.0028 2.60283H10.85V48.3972H55.0028V2.60283Z" fill="black"/>
<path d="M38.7499 45.6758H27.1029C26.3479 45.6758 25.7361 45.2051 25.7361 44.6244C25.7361 44.0437 26.348 43.573 27.1029 43.573H38.7499C39.5047 43.573 40.1167 44.0438 40.1167 44.6244C40.1168 45.2052 39.5049 45.6758 38.7499 45.6758Z" fill="black"/>
<path d="M49.8741 38.6692H15.9786C15.2236 38.6692 14.6118 38.1985 14.6118 37.6178C14.6118 37.0371 15.2237 36.5665 15.9786 36.5665H49.8743C50.6291 36.5665 51.241 37.0372 51.241 37.6178C51.2408 38.1986 50.6291 38.6692 49.8741 38.6692Z" fill="black"/>
<path d="M49.8741 33.041H15.9786C15.2236 33.041 14.6118 32.5703 14.6118 31.9896C14.6118 31.409 15.2237 30.9383 15.9786 30.9383H49.8743C50.6291 30.9383 51.241 31.409 51.241 31.9896C51.241 32.5703 50.6291 33.041 49.8741 33.041Z" fill="black"/>
<path d="M49.8741 27.4128H15.9786C15.2236 27.4128 14.6118 26.9421 14.6118 26.3615C14.6118 25.7808 15.2237 25.3101 15.9786 25.3101H49.8743C50.6291 25.3101 51.241 25.7808 51.241 26.3615C51.241 26.9421 50.6291 27.4128 49.8741 27.4128Z" fill="black"/>
<path d="M22.9966 21.6123H15.9786C15.2236 21.6123 14.6118 21.1416 14.6118 20.5609C14.6118 19.9802 15.2237 19.5096 15.9786 19.5096H22.9966C23.7516 19.5096 24.3633 19.9803 24.3633 20.5609C24.3633 21.1416 23.7516 21.6123 22.9966 21.6123Z" fill="black"/>
<path d="M22.9966 17.0754H15.9786C15.2236 17.0754 14.6118 16.6047 14.6118 16.0241C14.6118 15.4433 15.2237 14.9727 15.9786 14.9727H22.9966C23.7516 14.9727 24.3633 15.4434 24.3633 16.0241C24.3633 16.6047 23.7516 17.0754 22.9966 17.0754Z" fill="black"/>
<path d="M51.0018 9.35186L45.5962 15.4222C45.7324 15.8516 45.8064 16.2996 45.8064 16.7609C45.8064 19.874 42.5139 22.4067 38.4669 22.4067C34.4199 22.4067 31.1272 19.874 31.1272 16.7609C31.1272 16.2996 31.2012 15.8515 31.3376 15.4221L25.9319 9.35186C25.6395 9.02373 25.6131 8.59668 25.8636 8.24873C26.1049 7.91319 26.5637 7.70635 27.0594 7.70635C27.0778 7.70635 27.0963 7.70654 27.1148 7.70732L30.4012 7.80977L31.4643 5.41553C31.6313 5.03897 32.0603 4.76738 32.5728 4.71358C32.6348 4.70703 32.6965 4.70391 32.758 4.70391C33.2047 4.70391 33.6284 4.87256 33.8854 5.16113L38.4671 10.3063L43.0489 5.16113C43.3057 4.87256 43.7293 4.70391 44.1762 4.70391C44.2375 4.70391 44.2997 4.70703 44.3614 4.71358C44.8738 4.76738 45.3029 5.03906 45.4701 5.41553L46.5331 7.80977L49.8194 7.70732C49.8379 7.70664 49.8565 7.70635 49.875 7.70635C50.3705 7.70635 50.8293 7.91328 51.0706 8.24873C51.3205 8.59688 51.2941 9.02383 51.0018 9.35186ZM33.17 8.0791L32.6583 9.23193L32.6577 9.23184C32.4672 9.66162 31.9275 9.96358 31.3096 9.94258L29.7274 9.89326L32.7206 13.2546C33.5948 12.4087 34.7766 11.7601 36.1354 11.4089L33.17 8.0791ZM38.4667 13.218C35.9269 13.218 33.8608 14.8073 33.8608 16.7609C33.8608 18.7145 35.927 20.3039 38.4667 20.3039C41.0064 20.3039 43.0726 18.7145 43.0726 16.7609C43.0726 14.8073 41.0064 13.218 38.4667 13.218ZM45.6238 9.94248C45.0089 9.96484 44.4671 9.66191 44.2757 9.23154L44.275 9.23174L43.7633 8.0792L40.7982 11.4089C42.157 11.7601 43.3388 12.4088 44.213 13.2547L47.2063 9.89326L45.6238 9.94248Z" fill="black"/>
</g>
<defs>
<clipPath id="clip0_86_239">
<rect width="65" height="50" fill="white" transform="matrix(1 0 0 -1 0.426514 50.5)"/>
</clipPath>
</defs>
</svg>
