<svg width="20" height="21" viewBox="0 0 20 21" fill="none" xmlns="http://www.w3.org/2000/svg">
<path d="M1 12.5H4C4.53043 12.5 5.03914 12.7107 5.41421 13.0858C5.78929 13.4609 6 13.9696 6 14.5V17.5C6 18.0304 5.78929 18.5391 5.41421 18.9142C5.03914 19.2893 4.53043 19.5 4 19.5H3C2.46957 19.5 1.96086 19.2893 1.58579 18.9142C1.21071 18.5391 1 18.0304 1 17.5V10.5C1 8.11305 1.94821 5.82387 3.63604 4.13604C5.32387 2.44821 7.61305 1.5 10 1.5C12.3869 1.5 14.6761 2.44821 16.364 4.13604C18.0518 5.82387 19 8.11305 19 10.5V17.5C19 18.0304 18.7893 18.5391 18.4142 18.9142C18.0391 19.2893 17.5304 19.5 17 19.5H16C15.4696 19.5 14.9609 19.2893 14.5858 18.9142C14.2107 18.5391 14 18.0304 14 17.5V14.5C14 13.9696 14.2107 13.4609 14.5858 13.0858C14.9609 12.7107 15.4696 12.5 16 12.5H19" stroke="#2D2D2D" stroke-width="2" stroke-linecap="round" stroke-linejoin="round"/>
</svg>
