<svg width="24" height="25" viewBox="0 0 24 25" fill="none" xmlns="http://www.w3.org/2000/svg">
<path d="M20.9112 9.28114L8.56118 2.67114C8.28248 2.52317 7.97174 2.4458 7.65618 2.4458C7.34063 2.4458 7.02989 2.52317 6.75118 2.67114L3.10118 4.57114C2.77208 4.75149 2.49675 5.01597 2.30332 5.33755C2.10988 5.65914 2.00528 6.02631 2.00019 6.40156C1.99511 6.7768 2.08973 7.14667 2.27437 7.47339C2.45902 7.8001 2.72709 8.07194 3.05118 8.26114L15.2712 15.1911C15.568 15.3557 15.9018 15.4421 16.2412 15.4421C16.5806 15.4421 16.9144 15.3557 17.2112 15.1911L21.0012 12.9511C21.3186 12.7572 21.5794 12.4831 21.7574 12.1564C21.9354 11.8298 22.0243 11.4621 22.0151 11.0902C22.006 10.7183 21.8992 10.3553 21.7054 10.0378C21.5116 9.72027 21.2377 9.45931 20.9112 9.28114Z" stroke="#2D2D2D" stroke-width="2" stroke-linecap="round" stroke-linejoin="round"/>
<path d="M3.08896 9.28114L15.439 2.67114C15.7177 2.52317 16.0284 2.4458 16.344 2.4458C16.6595 2.4458 16.9703 2.52317 17.249 2.67114L20.899 4.57114C21.2307 4.74693 21.5098 5.00768 21.7078 5.32672C21.9057 5.64576 22.0154 6.01164 22.0256 6.38696C22.0357 6.76228 21.946 7.13357 21.7657 7.46286C21.5853 7.79215 21.3207 8.06763 20.999 8.26114L8.72896 15.1911C8.43216 15.3557 8.09835 15.4421 7.75896 15.4421C7.41957 15.4421 7.08576 15.3557 6.78896 15.1911L2.99896 12.9511C2.68154 12.7572 2.42074 12.4831 2.24276 12.1564C2.06479 11.8298 1.97589 11.4621 1.98501 11.0902C1.99413 10.7183 2.10094 10.3553 2.29472 10.0378C2.4885 9.72027 2.76241 9.45931 3.08896 9.28114Z" stroke="#2D2D2D" stroke-width="2" stroke-linecap="round" stroke-linejoin="round"/>
<path d="M12 22.4409V13.4409" stroke="#2D2D2D" stroke-width="2" stroke-linecap="round" stroke-linejoin="round"/>
<path d="M20 13.9409V17.3109C20.0004 17.6884 19.8971 18.0587 19.7013 18.3814C19.5056 18.7041 19.2249 18.9669 18.89 19.1409L12.89 22.2209C12.6151 22.3638 12.3098 22.4384 12 22.4384C11.6902 22.4384 11.3849 22.3638 11.11 22.2209L5.11 19.1409C4.77508 18.9669 4.49443 18.7041 4.29868 18.3814C4.10293 18.0587 3.99961 17.6884 4 17.3109V13.9409" stroke="#2D2D2D" stroke-width="2" stroke-linecap="round" stroke-linejoin="round"/>
</svg>
