<svg width="19" height="16" viewBox="0 0 19 16" fill="none" xmlns="http://www.w3.org/2000/svg">
<path d="M10.0027 7.22209C9.83642 7.19564 9.66939 7.1775 9.50277 7.1775C8.40869 7.1775 7.31537 7.67134 6.72877 8.68418C5.85437 10.1945 6.40221 12.1978 7.91663 13.0694C8.41539 13.3567 8.96284 13.421 9.49997 13.421C10.594 13.421 11.6846 12.855 12.2708 11.8421C12.9327 10.699 12.766 9.3872 12.0036 8.40355L13.0625 4.3421L10.0027 7.22209ZM10.8707 11.1245C10.5889 11.6116 10.0653 11.8421 9.49997 11.8421C9.22094 11.8421 8.95293 11.8429 8.70871 11.702C7.95266 11.267 7.69298 10.2995 8.12919 9.54593C8.41109 9.05884 8.93754 8.75605 9.50318 8.75605C9.78179 8.75605 10.047 8.8275 10.2913 8.96802C11.0473 9.40343 11.3069 10.3705 10.8707 11.1245ZM9.49997 0C4.25323 0 0 4.51302 0 9.86843C0 11.8263 0.570395 13.4759 1.5481 15H5.54166V13.421H2.37499C1.80223 12.2846 1.58333 11.1596 1.58333 9.86843C1.58333 5.41263 5.13475 1.57895 9.49997 1.57895C13.8653 1.57895 17.4167 5.41263 17.4167 9.86843C17.4167 11.1596 17.1977 12.2846 16.625 13.421H13.4583V15H17.4167C18.3944 13.4759 19 11.8263 19 9.86843C19 4.51302 14.7468 0 9.49997 0Z" fill="#262626"/>
</svg>
