<svg width="128" height="117" viewBox="0 0 128 117" fill="none" xmlns="http://www.w3.org/2000/svg">
<g filter="url(#filter0_d_101_433)">
<path d="M114.625 0C109.456 0 105.25 5.14709 105.25 11.4737V43.0263H90.25V11.4737C90.25 5.14709 86.0444 0 80.875 0C75.7056 0 71.5 5.14709 71.5 11.4737V43.0263H56.5V11.4737C56.5 5.14709 52.2944 0 47.125 0C41.9556 0 37.75 5.14709 37.75 11.4737V43.0263H22.75V40.1579C22.75 38.5737 21.7005 37.2895 20.4062 37.2895C19.112 37.2895 18.0625 38.5737 18.0625 40.1579V45.8947C18.0625 47.479 19.112 48.7632 20.4062 48.7632H40.0938C41.388 48.7632 42.4375 47.479 42.4375 45.8947V11.4737C42.4375 8.31039 44.5403 5.73684 47.125 5.73684C49.7097 5.73684 51.8125 8.31039 51.8125 11.4737V45.8947C51.8125 47.479 52.862 48.7632 54.1562 48.7632H73.8438C75.138 48.7632 76.1875 47.479 76.1875 45.8947V11.4737C76.1875 8.31039 78.2903 5.73684 80.875 5.73684C83.4597 5.73684 85.5625 8.31039 85.5625 11.4737V45.8947C85.5625 47.479 86.612 48.7632 87.9062 48.7632H107.594C108.888 48.7632 109.938 47.479 109.938 45.8947V11.4737C109.938 8.31039 112.04 5.73684 114.625 5.73684C117.21 5.73684 119.312 8.31039 119.312 11.4737V97.5263C119.312 100.69 117.21 103.263 114.625 103.263C112.04 103.263 109.938 100.69 109.938 97.5263V63.1053C109.938 61.521 108.888 60.2368 107.594 60.2368H87.9062C86.612 60.2368 85.5625 61.521 85.5625 63.1053V97.5263C85.5625 100.69 83.4597 103.263 80.875 103.263C78.2903 103.263 76.1875 100.69 76.1875 97.5263V63.1053C76.1875 61.521 75.138 60.2368 73.8438 60.2368H54.1562C52.862 60.2368 51.8125 61.521 51.8125 63.1053V97.5263C51.8125 100.69 49.7097 103.263 47.125 103.263C44.5403 103.263 42.4375 100.69 42.4375 97.5263V63.1053C42.4375 61.521 41.388 60.2368 40.0938 60.2368H13.375C10.7903 60.2368 8.6875 57.6633 8.6875 54.5V11.4737C8.6875 8.31039 10.7903 5.73684 13.375 5.73684C15.9597 5.73684 18.0625 8.31039 18.0625 11.4737V14.3421C18.0625 15.9263 19.112 17.2105 20.4062 17.2105C21.7005 17.2105 22.75 15.9263 22.75 14.3421V11.4737C22.75 5.14709 18.5444 0 13.375 0C8.20563 0 4 5.14709 4 11.4737V54.5C4 60.8266 8.20563 65.9737 13.375 65.9737H37.75V97.5263C37.75 103.853 41.9556 109 47.125 109C52.2944 109 56.5 103.853 56.5 97.5263V65.9737H71.5V97.5263C71.5 103.853 75.7056 109 80.875 109C86.0444 109 90.25 103.853 90.25 97.5263V65.9737H105.25V97.5263C105.25 103.853 109.456 109 114.625 109C119.794 109 124 103.853 124 97.5263V11.4737C124 5.14709 119.794 0 114.625 0Z" fill="black"/>
<path d="M105.25 43.5263H105.75V43.0263V11.4737C105.75 5.32407 109.821 0.5 114.625 0.5C119.429 0.5 123.5 5.32407 123.5 11.4737V97.5263C123.5 103.676 119.429 108.5 114.625 108.5C109.821 108.5 105.75 103.676 105.75 97.5263V65.9737V65.4737H105.25H90.25H89.75V65.9737V97.5263C89.75 103.676 85.6785 108.5 80.875 108.5C76.0715 108.5 72 103.676 72 97.5263V65.9737V65.4737H71.5H56.5H56V65.9737V97.5263C56 103.676 51.9285 108.5 47.125 108.5C42.3215 108.5 38.25 103.676 38.25 97.5263V65.9737V65.4737H37.75H13.375C8.57146 65.4737 4.5 60.6496 4.5 54.5V11.4737C4.5 5.32407 8.57146 0.5 13.375 0.5C18.1785 0.5 22.25 5.32407 22.25 11.4737V14.3421C22.25 15.7493 21.3347 16.7105 20.4062 16.7105C19.4778 16.7105 18.5625 15.7493 18.5625 14.3421V11.4737C18.5625 8.13342 16.3255 5.23684 13.375 5.23684C10.4245 5.23684 8.1875 8.13342 8.1875 11.4737V54.5C8.1875 57.8403 10.4245 60.7368 13.375 60.7368H40.0938C41.0222 60.7368 41.9375 61.698 41.9375 63.1053V97.5263C41.9375 100.867 44.1745 103.763 47.125 103.763C50.0755 103.763 52.3125 100.867 52.3125 97.5263V63.1053C52.3125 61.698 53.2278 60.7368 54.1562 60.7368H73.8438C74.7722 60.7368 75.6875 61.698 75.6875 63.1053V97.5263C75.6875 100.867 77.9245 103.763 80.875 103.763C83.8255 103.763 86.0625 100.867 86.0625 97.5263V63.1053C86.0625 61.698 86.9778 60.7368 87.9062 60.7368H107.594C108.522 60.7368 109.438 61.698 109.438 63.1053V97.5263C109.438 100.867 111.674 103.763 114.625 103.763C117.576 103.763 119.812 100.867 119.812 97.5263V11.4737C119.812 8.13342 117.576 5.23684 114.625 5.23684C111.674 5.23684 109.438 8.13342 109.438 11.4737V45.8947C109.438 47.302 108.522 48.2632 107.594 48.2632H87.9062C86.9778 48.2632 86.0625 47.302 86.0625 45.8947V11.4737C86.0625 8.13342 83.8255 5.23684 80.875 5.23684C77.9245 5.23684 75.6875 8.13342 75.6875 11.4737V45.8947C75.6875 47.302 74.7722 48.2632 73.8438 48.2632H54.1562C53.2278 48.2632 52.3125 47.302 52.3125 45.8947V11.4737C52.3125 8.13342 50.0755 5.23684 47.125 5.23684C44.1745 5.23684 41.9375 8.13342 41.9375 11.4737V45.8947C41.9375 47.302 41.0222 48.2632 40.0938 48.2632H20.4062C19.4778 48.2632 18.5625 47.302 18.5625 45.8947V40.1579C18.5625 38.7507 19.4778 37.7895 20.4062 37.7895C21.3347 37.7895 22.25 38.7507 22.25 40.1579V43.0263V43.5263H22.75H37.75H38.25V43.0263V11.4737C38.25 5.32407 42.3215 0.5 47.125 0.5C51.9285 0.5 56 5.32407 56 11.4737V43.0263V43.5263H56.5H71.5H72V43.0263V11.4737C72 5.32407 76.0715 0.5 80.875 0.5C85.6785 0.5 89.75 5.32407 89.75 11.4737V43.0263V43.5263H90.25H105.25Z" stroke="black"/>
</g>
<defs>
<filter id="filter0_d_101_433" x="0" y="0" width="128" height="117" filterUnits="userSpaceOnUse" color-interpolation-filters="sRGB">
<feFlood flood-opacity="0" result="BackgroundImageFix"/>
<feColorMatrix in="SourceAlpha" type="matrix" values="0 0 0 0 0 0 0 0 0 0 0 0 0 0 0 0 0 0 127 0" result="hardAlpha"/>
<feOffset dy="4"/>
<feGaussianBlur stdDeviation="2"/>
<feComposite in2="hardAlpha" operator="out"/>
<feColorMatrix type="matrix" values="0 0 0 0 0 0 0 0 0 0 0 0 0 0 0 0 0 0 0.25 0"/>
<feBlend mode="normal" in2="BackgroundImageFix" result="effect1_dropShadow_101_433"/>
<feBlend mode="normal" in="SourceGraphic" in2="effect1_dropShadow_101_433" result="shape"/>
</filter>
</defs>
</svg>
