<svg width="24" height="25" viewBox="0 0 24 25" fill="none" xmlns="http://www.w3.org/2000/svg">
<path d="M16 21.8135V19.8135C16 18.7526 15.5786 17.7352 14.8284 16.9851C14.0783 16.2349 13.0609 15.8135 12 15.8135H6C4.93913 15.8135 3.92172 16.2349 3.17157 16.9851C2.42143 17.7352 2 18.7526 2 19.8135V21.8135" stroke="#2D2D2D" stroke-width="2" stroke-linecap="round" stroke-linejoin="round"/>
<path d="M9 11.8135C11.2091 11.8135 13 10.0226 13 7.81348C13 5.60434 11.2091 3.81348 9 3.81348C6.79086 3.81348 5 5.60434 5 7.81348C5 10.0226 6.79086 11.8135 9 11.8135Z" stroke="#2D2D2D" stroke-width="2" stroke-linecap="round" stroke-linejoin="round"/>
<path d="M22 21.8134V19.8134C21.9993 18.9271 21.7044 18.0661 21.1614 17.3657C20.6184 16.6652 19.8581 16.1649 19 15.9434" stroke="#2D2D2D" stroke-width="2" stroke-linecap="round" stroke-linejoin="round"/>
<path d="M16 3.94336C16.8604 4.16366 17.623 4.66406 18.1676 5.36567C18.7122 6.06728 19.0078 6.93019 19.0078 7.81836C19.0078 8.70653 18.7122 9.56944 18.1676 10.271C17.623 10.9727 16.8604 11.4731 16 11.6934" stroke="#2D2D2D" stroke-width="2" stroke-linecap="round" stroke-linejoin="round"/>
</svg>
