<svg width="64" height="46" viewBox="0 0 64 46" fill="none" xmlns="http://www.w3.org/2000/svg">
<g filter="url(#filter0_dd_550_2469)">
<path d="M38.1023 27.0962C38.1509 27.0229 38.1949 26.9469 38.2342 26.8683C38.6099 26.1248 39.3534 25.908 40.0609 26.3817C41.3307 27.2304 42.6012 28.0778 43.8723 28.9239C43.8892 28.9356 43.9091 28.9416 43.9293 28.9409C44.333 28.9362 44.5935 28.9479 44.7107 28.9759C44.9855 29.0398 45.0575 29.4056 44.8626 29.5935C44.7077 29.7424 44.5329 29.6874 44.345 29.6894C41.9786 29.7114 39.6082 29.711 37.2339 29.6884C37.216 29.6884 37.1985 29.6835 37.1832 29.6744C37.1679 29.6652 37.1554 29.6521 37.1469 29.6364L36.3215 28.1105C36.2329 27.9473 36.1829 27.9582 36.1716 28.1435C36.1136 29.0555 35.6666 29.6711 34.8305 29.9902C34.4987 30.1171 33.9581 30.1241 33.5884 30.1111C31.245 30.0332 28.9485 30.1361 26.6361 30.1111C25.0625 30.0944 23.4886 30.0891 21.9144 30.0951C21.3408 30.0978 20.925 30.0521 20.6672 29.9582C19.7079 29.6074 19.1433 28.4053 19.545 27.4299C19.6323 27.2174 19.8441 26.922 20.1806 26.5435C20.8554 25.7861 21.5236 25.0269 22.1852 24.2661C22.2838 24.1529 22.2578 24.0979 22.1072 24.1012C21.9687 24.1039 21.8301 24.1022 21.6915 24.0962C20.928 24.0613 20.6782 23.5246 20.969 22.8551C21.2715 22.1562 21.5799 21.4604 21.8944 20.7675C22.2341 20.017 22.3591 19.6853 23.2954 19.8901C23.4327 19.9201 23.5702 19.9484 23.7081 19.9751C23.7228 19.9779 23.738 19.9774 23.7525 19.9736C23.767 19.9698 23.7804 19.9628 23.7918 19.9531C23.8032 19.9434 23.8123 19.9313 23.8184 19.9176C23.8245 19.904 23.8275 19.8891 23.8271 19.8741C23.8191 19.5437 23.8164 19.2139 23.8191 18.8848C23.8301 17.5827 24.3497 16.9551 25.6868 16.9551C27.8839 16.9545 30.0811 16.9538 32.2783 16.9531C32.2972 16.9531 32.3159 16.9587 32.3322 16.9691C32.612 17.149 32.638 17.3692 32.4102 17.6297C32.3934 17.6489 32.3698 17.6611 32.3442 17.6636L32.0464 17.6906C32.0314 17.692 32.0169 17.6967 32.004 17.7044C31.9911 17.7122 31.9801 17.7227 31.9718 17.7353C31.9636 17.7479 31.9582 17.7622 31.9563 17.7771C31.9543 17.7921 31.9557 17.8072 31.9605 17.8215L33.3425 21.9667C33.348 21.9834 33.3578 21.9983 33.3708 22.0099C33.3838 22.0215 33.3995 22.0293 33.4165 22.0326C34.2033 22.1985 34.9907 22.3701 35.7789 22.5473C36.3778 22.6825 36.7659 23.0416 36.9431 23.6246C37.0843 24.0869 37.4107 25.2348 37.9224 27.0682C37.9617 27.2081 38.0217 27.2174 38.1023 27.0962ZM29.734 18.1533C30.2017 18.1606 30.6707 18.158 31.141 18.1453C31.1566 18.145 31.172 18.141 31.1857 18.1337C31.1995 18.1264 31.2114 18.116 31.2205 18.1032C31.2295 18.0905 31.2354 18.0759 31.2378 18.0604C31.2401 18.045 31.2388 18.0292 31.234 18.0144L31.154 17.7706C31.1473 17.7505 31.1346 17.733 31.1175 17.7207C31.1005 17.7083 31.0801 17.7016 31.0591 17.7016C29.2284 17.7036 27.3976 17.7046 25.5669 17.7046C25.0912 17.7046 24.6655 17.8725 24.5875 18.3592C24.5442 18.633 24.5349 19.2059 24.5596 20.078C24.5602 20.1005 24.5683 20.1221 24.5826 20.1394C24.597 20.1566 24.6167 20.1684 24.6385 20.1729L25.7058 20.3948C25.7203 20.3977 25.7354 20.3974 25.7498 20.3939C25.7643 20.3903 25.7777 20.3836 25.7893 20.3743C25.8008 20.3649 25.8102 20.3531 25.8166 20.3397C25.8231 20.3263 25.8265 20.3117 25.8267 20.2968C25.8293 19.8585 25.831 19.4198 25.8317 18.9807C25.8317 18.4091 26.1535 18.1553 26.7241 18.1553C27.7284 18.1563 28.6428 18.1373 29.734 18.1533ZM27.7933 20.8515C29.2856 21.1652 30.8006 21.4817 32.3382 21.8008C32.4515 21.8241 32.4898 21.7811 32.4531 21.6719L31.5528 18.9707C31.5461 18.9509 31.5333 18.9337 31.5162 18.9215C31.4992 18.9093 31.4788 18.9027 31.4578 18.9028H26.6801C26.6538 18.9028 26.6285 18.9133 26.6098 18.932C26.5911 18.9507 26.5804 18.9761 26.5802 19.0027L26.5762 20.4887C26.5761 20.511 26.5835 20.5327 26.5971 20.5503C26.6107 20.5678 26.6297 20.5803 26.6511 20.5856C27.0302 20.6822 27.4109 20.7708 27.7933 20.8515ZM34.3998 23.012L22.8887 20.5686C22.8663 20.5639 22.843 20.567 22.8227 20.5773C22.8023 20.5877 22.7861 20.6047 22.7768 20.6256L21.6256 23.2088C21.619 23.2241 21.6163 23.2408 21.6177 23.2574C21.6191 23.274 21.6246 23.29 21.6337 23.304C21.6428 23.3179 21.6552 23.3294 21.6699 23.3374C21.6845 23.3454 21.7008 23.3496 21.7175 23.3497H22.9606C22.9751 23.3497 22.9893 23.3466 23.0025 23.3406C23.0156 23.3345 23.0272 23.3257 23.0366 23.3148C23.4596 22.8131 23.9889 22.5593 24.6245 22.5533C25.0132 22.5503 25.416 22.7412 25.7997 22.8701C26.0822 22.9653 26.379 23.039 26.6901 23.0909C29.1731 23.5073 31.6584 23.921 34.146 24.3321C34.1618 24.3346 34.1779 24.3333 34.1931 24.3282C34.2083 24.3232 34.2221 24.3146 34.2332 24.3031C34.2444 24.2917 34.2526 24.2777 34.2573 24.2624C34.2619 24.2471 34.2628 24.2309 34.2599 24.2151C34.1913 23.8341 34.2592 23.4836 34.4638 23.1639C34.4724 23.1501 34.4775 23.1344 34.4788 23.1182C34.4802 23.102 34.4776 23.0857 34.4713 23.0708C34.465 23.0559 34.4552 23.0428 34.4428 23.0325C34.4303 23.0223 34.4156 23.0152 34.3998 23.012ZM25.8047 24.5269C25.8047 24.3675 25.7733 24.2096 25.7123 24.0623C25.6513 23.915 25.5618 23.7811 25.4491 23.6684C25.3363 23.5556 25.2025 23.4662 25.0552 23.4052C24.9079 23.3442 24.75 23.3128 24.5905 23.3128C24.4311 23.3128 24.2732 23.3442 24.1259 23.4052C23.9786 23.4662 23.8447 23.5556 23.732 23.6684C23.6192 23.7811 23.5298 23.915 23.4688 24.0623C23.4078 24.2096 23.3764 24.3675 23.3764 24.5269C23.3764 24.8489 23.5043 25.1578 23.732 25.3855C23.9597 25.6132 24.2685 25.7411 24.5905 25.7411C24.9125 25.7411 25.2214 25.6132 25.4491 25.3855C25.6768 25.1578 25.8047 24.8489 25.8047 24.5269ZM36.2186 23.9263C36.2186 23.7633 36.1538 23.607 36.0386 23.4918C35.9233 23.3765 35.767 23.3118 35.604 23.3118C35.441 23.3118 35.2847 23.3765 35.1694 23.4918C35.0542 23.607 34.9894 23.7633 34.9894 23.9263C34.9894 24.0893 35.0542 24.2457 35.1694 24.3609C35.2847 24.4762 35.441 24.5409 35.604 24.5409C35.767 24.5409 35.9233 24.4762 36.0386 24.3609C36.1538 24.2457 36.2186 24.0893 36.2186 23.9263ZM31.9805 25.9929L26.6471 23.9953C26.5325 23.9527 26.4886 23.991 26.5152 24.1102C26.6058 24.5239 26.5648 24.927 26.3923 25.3194C26.3838 25.338 26.3815 25.3589 26.3856 25.3792C26.3897 25.3994 26.4001 25.418 26.4153 25.4323L27.1478 26.1208C27.1663 26.1382 27.191 26.1478 27.2167 26.1478H31.9525C32.2463 26.1478 32.2556 26.0962 31.9805 25.9929ZM34.6836 25.1905L29.9908 24.407C29.9851 24.4061 29.9792 24.4067 29.9737 24.4088C29.9683 24.4109 29.9635 24.4144 29.9598 24.419C29.9299 24.456 30.0028 24.45 30.0138 24.454C31.634 25.0549 33.2526 25.6605 34.8695 26.2707C34.9608 26.3047 35.0554 26.3513 35.1533 26.4106C35.1859 26.43 35.2186 26.4489 35.2512 26.4676C35.4144 26.5622 35.4511 26.5266 35.3611 26.3607L34.7546 25.2414C34.7474 25.2281 34.7373 25.2165 34.725 25.2077C34.7127 25.1989 34.6985 25.193 34.6836 25.1905ZM31.3479 26.9033C30.0928 26.9163 28.8516 26.8853 27.6025 26.9073C26.809 26.9213 26.4862 26.5156 25.9726 26.0479C25.9551 26.0321 25.9326 26.023 25.909 26.0221C25.8855 26.0212 25.8624 26.0285 25.8437 26.0429C25.4206 26.3733 24.9616 26.5219 24.4666 26.4886C24.0396 26.4599 23.6635 26.3117 23.3384 26.0439C23.0326 25.7927 22.8184 25.4656 22.6958 25.0626C22.6612 24.948 22.6042 24.9353 22.5249 25.0246L21.6456 26.0219C21.5676 26.1105 21.5866 26.1651 21.7025 26.1858C22.0636 26.2504 22.3777 26.394 22.6449 26.6165C23.4613 27.297 23.5702 28.4123 22.9726 29.3047C22.9694 29.3094 22.9672 29.3147 22.9662 29.3203C22.9651 29.3259 22.9653 29.3317 22.9666 29.3372C22.9679 29.3428 22.9704 29.348 22.9738 29.3525C22.9773 29.3571 22.9816 29.3609 22.9866 29.3636C23.0153 29.3789 23.0403 29.3749 23.0616 29.3516C23.0684 29.3445 23.0769 29.339 23.0862 29.3355C23.0955 29.3321 23.1056 29.3307 23.1155 29.3316C23.7021 29.3896 24.4206 29.3456 24.8524 29.3456C27.3846 29.3476 29.9185 29.3463 32.4541 29.3416C32.5701 29.341 32.5987 29.2907 32.5401 29.1907C32.1237 28.4806 32.1257 27.771 32.5461 27.0622C32.555 27.0472 32.5598 27.0301 32.5601 27.0126C32.5603 26.9951 32.556 26.9779 32.5475 26.9626C32.539 26.9474 32.5266 26.9346 32.5116 26.9256C32.4967 26.9166 32.4796 26.9116 32.4621 26.9113C32.0904 26.902 31.719 26.8993 31.3479 26.9033ZM37.4607 28.3483C37.4727 28.3057 37.473 28.2637 37.4617 28.2224C37.1766 27.1751 36.8814 26.1275 36.5763 25.0796C36.5718 25.0641 36.5637 25.05 36.5527 25.0384C36.5416 25.0267 36.5278 25.018 36.5126 25.0128C36.4974 25.0076 36.4812 25.0061 36.4653 25.0085C36.4495 25.0109 36.4344 25.0171 36.4214 25.0266C36.2322 25.1638 36.0217 25.2501 35.7899 25.2854C35.7741 25.2877 35.7592 25.2938 35.7464 25.3032C35.7335 25.3126 35.7231 25.325 35.7161 25.3394C35.709 25.3538 35.7055 25.3698 35.7058 25.3859C35.7061 25.4021 35.7103 25.418 35.7179 25.4323L37.3128 28.3653C37.3754 28.4799 37.4247 28.4742 37.4607 28.3483ZM42.2384 28.9539C42.4596 28.9546 42.4783 28.8936 42.2944 28.771C41.415 28.1854 40.5299 27.5958 39.6392 27.0022C39.2775 26.7624 39.0566 26.8913 38.8727 27.2511C38.6123 27.7594 38.3538 28.275 38.0973 28.798C38.0898 28.8133 38.0863 28.8302 38.0872 28.8471C38.0881 28.8641 38.0933 28.8805 38.1023 28.8949C38.1113 28.9093 38.1238 28.9212 38.1387 28.9294C38.1535 28.9376 38.1702 28.9419 38.1872 28.9419L42.2384 28.9539ZM22.6019 28.1315C22.6019 27.8092 22.4739 27.5001 22.246 27.2722C22.0181 27.0443 21.709 26.9163 21.3867 26.9163C21.0644 26.9163 20.7554 27.0443 20.5275 27.2722C20.2996 27.5001 20.1716 27.8092 20.1716 28.1315C20.1716 28.4537 20.2996 28.7628 20.5275 28.9907C20.7554 29.2186 21.0644 29.3466 21.3867 29.3466C21.709 29.3466 22.0181 29.2186 22.246 28.9907C22.4739 28.7628 22.6019 28.4537 22.6019 28.1315ZM35.4181 28.1305C35.4181 27.8084 35.2902 27.4996 35.0625 27.2719C34.8348 27.0442 34.526 26.9163 34.2039 26.9163C33.8819 26.9163 33.5731 27.0442 33.3454 27.2719C33.1177 27.4996 32.9898 27.8084 32.9898 28.1305C32.9898 28.4525 33.1177 28.7613 33.3454 28.989C33.5731 29.2167 33.8819 29.3446 34.2039 29.3446C34.526 29.3446 34.8348 29.2167 35.0625 28.989C35.2902 28.7613 35.4181 28.4525 35.4181 28.1305Z" fill="url(#paint0_linear_550_2469)"/>
</g>
<defs>
<filter id="filter0_dd_550_2469" x="0.634939" y="0.260571" width="63.1168" height="50.7208" filterUnits="userSpaceOnUse" color-interpolation-filters="sRGB">
<feFlood flood-opacity="0" result="BackgroundImageFix"/>
<feColorMatrix in="SourceAlpha" type="matrix" values="0 0 0 0 0 0 0 0 0 0 0 0 0 0 0 0 0 0 127 0" result="hardAlpha"/>
<feOffset dy="1.57803"/>
<feGaussianBlur stdDeviation="1.27456"/>
<feColorMatrix type="matrix" values="0 0 0 0 0 0 0 0 0 0 0 0 0 0 0 0 0 0 1 0"/>
<feBlend mode="normal" in2="BackgroundImageFix" result="effect1_dropShadow_550_2469"/>
<feColorMatrix in="SourceAlpha" type="matrix" values="0 0 0 0 0 0 0 0 0 0 0 0 0 0 0 0 0 0 127 0" result="hardAlpha"/>
<feOffset dy="2.08657"/>
<feGaussianBlur stdDeviation="9.38956"/>
<feColorMatrix type="matrix" values="0 0 0 0 0 0 0 0 0 0 0 0 0 0 0 0 0 0 0.5 0"/>
<feBlend mode="normal" in2="effect1_dropShadow_550_2469" result="effect2_dropShadow_550_2469"/>
<feBlend mode="normal" in="SourceGraphic" in2="effect2_dropShadow_550_2469" result="shape"/>
</filter>
<linearGradient id="paint0_linear_550_2469" x1="32.2133" y1="20.0381" x2="32.2133" y2="29.2931" gradientUnits="userSpaceOnUse">
<stop stop-color="#ECECEC"/>
<stop offset="0.484375" stop-color="#BBBBBB"/>
<stop offset="0.734421" stop-color="#3E3E3E"/>
<stop offset="1" stop-color="#969696"/>
</linearGradient>
</defs>
</svg>
