<?xml version="1.0" encoding="UTF-8"?>
<svg xmlns="http://www.w3.org/2000/svg" xmlns:xlink="http://www.w3.org/1999/xlink" width="120px" height="120px" viewBox="0 0 120 120" version="1.1">
<defs>
<clipPath id="clip1">
  <path d="M 0 29.085938 L 119.984375 29.085938 L 119.984375 90.871094 L 0 90.871094 Z M 0 29.085938 "/>
</clipPath>
</defs>
<g id="surface1">
<g clip-path="url(#clip1)" clip-rule="nonzero">
<path style=" stroke:none;fill-rule:nonzero;fill:rgb(0%,0%,0%);fill-opacity:1;" d="M 87.742188 76.722656 C 87.96875 76.378906 88.175781 76.023438 88.359375 75.652344 C 90.125 72.160156 93.617188 71.144531 96.9375 73.367188 C 102.898438 77.351562 108.863281 81.332031 114.832031 85.304688 C 114.910156 85.359375 115.003906 85.386719 115.097656 85.382812 C 116.992188 85.359375 118.21875 85.414062 118.765625 85.546875 C 120.058594 85.847656 120.394531 87.566406 119.480469 88.445312 C 118.753906 89.144531 117.933594 88.886719 117.050781 88.898438 C 105.941406 89 94.8125 89 83.664062 88.890625 C 83.582031 88.890625 83.5 88.871094 83.425781 88.828125 C 83.355469 88.785156 83.296875 88.722656 83.257812 88.648438 L 79.382812 81.484375 C 78.964844 80.71875 78.730469 80.769531 78.675781 81.640625 C 78.40625 85.921875 76.304688 88.8125 72.382812 90.308594 C 70.824219 90.90625 68.285156 90.9375 66.550781 90.878906 C 55.546875 90.511719 44.765625 90.996094 33.910156 90.878906 C 26.523438 90.796875 19.132812 90.773438 11.742188 90.800781 C 9.050781 90.816406 7.097656 90.601562 5.886719 90.160156 C 1.382812 88.511719 -1.269531 82.867188 0.617188 78.289062 C 1.027344 77.292969 2.023438 75.90625 3.601562 74.128906 C 6.769531 70.570312 9.90625 67.007812 13.011719 63.4375 C 13.476562 62.902344 13.355469 62.644531 12.648438 62.660156 C 11.996094 62.675781 11.347656 62.667969 10.695312 62.636719 C 7.109375 62.472656 5.9375 59.953125 7.304688 56.8125 C 8.722656 53.53125 10.171875 50.261719 11.648438 47.011719 C 13.242188 43.488281 13.828125 41.929688 18.226562 42.890625 C 18.871094 43.03125 19.515625 43.164062 20.164062 43.289062 C 20.230469 43.304688 20.304688 43.300781 20.371094 43.28125 C 20.441406 43.265625 20.503906 43.230469 20.554688 43.1875 C 20.609375 43.140625 20.652344 43.085938 20.679688 43.019531 C 20.710938 42.957031 20.722656 42.886719 20.722656 42.816406 C 20.683594 41.265625 20.671875 39.714844 20.683594 38.171875 C 20.734375 32.058594 23.175781 29.113281 29.453125 29.113281 C 39.769531 29.109375 50.082031 29.105469 60.398438 29.101562 C 60.488281 29.101562 60.574219 29.128906 60.652344 29.175781 C 61.964844 30.023438 62.085938 31.054688 61.019531 32.277344 C 60.9375 32.367188 60.828125 32.425781 60.707031 32.4375 L 59.308594 32.566406 C 59.238281 32.570312 59.171875 32.59375 59.109375 32.628906 C 59.050781 32.667969 59 32.714844 58.960938 32.773438 C 58.921875 32.832031 58.894531 32.902344 58.886719 32.972656 C 58.878906 33.042969 58.882812 33.113281 58.90625 33.179688 L 65.394531 52.640625 C 65.421875 52.71875 65.46875 52.789062 65.527344 52.84375 C 65.589844 52.898438 65.664062 52.933594 65.742188 52.949219 C 69.4375 53.730469 73.132812 54.535156 76.832031 55.367188 C 79.644531 56 81.46875 57.6875 82.300781 60.425781 C 82.960938 62.59375 84.496094 67.984375 86.898438 76.589844 C 87.082031 77.246094 87.363281 77.292969 87.742188 76.722656 Z M 48.453125 34.738281 C 50.648438 34.769531 52.851562 34.757812 55.058594 34.699219 C 55.132812 34.699219 55.207031 34.679688 55.269531 34.644531 C 55.335938 34.609375 55.390625 34.5625 55.433594 34.5 C 55.476562 34.441406 55.503906 34.375 55.515625 34.300781 C 55.523438 34.230469 55.519531 34.15625 55.496094 34.085938 L 55.121094 32.941406 C 55.089844 32.847656 55.03125 32.765625 54.949219 32.707031 C 54.871094 32.648438 54.773438 32.617188 54.675781 32.617188 C 46.082031 32.625 37.484375 32.628906 28.890625 32.628906 C 26.65625 32.628906 24.660156 33.417969 24.292969 35.703125 C 24.089844 36.988281 24.046875 39.679688 24.160156 43.773438 C 24.164062 43.878906 24.203125 43.980469 24.269531 44.0625 C 24.335938 44.140625 24.429688 44.199219 24.53125 44.21875 L 29.542969 45.261719 C 29.609375 45.273438 29.679688 45.273438 29.75 45.257812 C 29.816406 45.238281 29.878906 45.207031 29.933594 45.164062 C 29.988281 45.121094 30.03125 45.066406 30.0625 45 C 30.09375 44.9375 30.109375 44.871094 30.109375 44.800781 C 30.121094 42.742188 30.128906 40.683594 30.132812 38.621094 C 30.132812 35.9375 31.644531 34.746094 34.324219 34.746094 C 39.039062 34.75 43.332031 34.660156 48.453125 34.738281 Z M 39.34375 47.40625 C 46.347656 48.878906 53.460938 50.363281 60.679688 51.863281 C 61.210938 51.972656 61.390625 51.769531 61.21875 51.257812 L 56.992188 38.574219 C 56.960938 38.480469 56.902344 38.402344 56.820312 38.34375 C 56.742188 38.285156 56.644531 38.253906 56.546875 38.257812 L 34.117188 38.257812 C 33.992188 38.257812 33.875 38.304688 33.785156 38.394531 C 33.699219 38.480469 33.648438 38.601562 33.648438 38.726562 L 33.628906 45.703125 C 33.628906 45.804688 33.664062 45.90625 33.726562 45.992188 C 33.789062 46.074219 33.878906 46.132812 33.980469 46.15625 C 35.761719 46.609375 37.546875 47.027344 39.34375 47.40625 Z M 70.359375 57.546875 L 16.316406 46.078125 C 16.210938 46.054688 16.101562 46.070312 16.007812 46.117188 C 15.910156 46.167969 15.835938 46.246094 15.792969 46.34375 L 10.386719 58.472656 C 10.355469 58.542969 10.34375 58.621094 10.347656 58.699219 C 10.355469 58.777344 10.382812 58.851562 10.425781 58.917969 C 10.46875 58.984375 10.523438 59.039062 10.59375 59.074219 C 10.664062 59.113281 10.738281 59.132812 10.816406 59.132812 L 16.652344 59.132812 C 16.722656 59.132812 16.789062 59.117188 16.851562 59.089844 C 16.914062 59.0625 16.964844 59.019531 17.011719 58.96875 C 18.996094 56.613281 21.480469 55.421875 24.464844 55.394531 C 26.289062 55.378906 28.183594 56.277344 29.984375 56.882812 C 31.308594 57.328125 32.703125 57.675781 34.164062 57.917969 C 45.820312 59.875 57.488281 61.816406 69.167969 63.746094 C 69.242188 63.757812 69.316406 63.75 69.390625 63.726562 C 69.460938 63.703125 69.523438 63.664062 69.578125 63.609375 C 69.628906 63.554688 69.667969 63.488281 69.691406 63.417969 C 69.710938 63.347656 69.714844 63.269531 69.703125 63.195312 C 69.378906 61.40625 69.699219 59.761719 70.660156 58.261719 C 70.699219 58.195312 70.722656 58.121094 70.730469 58.046875 C 70.738281 57.96875 70.722656 57.894531 70.695312 57.824219 C 70.664062 57.753906 70.621094 57.691406 70.5625 57.644531 C 70.503906 57.597656 70.433594 57.5625 70.359375 57.546875 Z M 30.007812 64.660156 C 30.007812 63.910156 29.859375 63.171875 29.574219 62.480469 C 29.285156 61.789062 28.867188 61.160156 28.335938 60.628906 C 27.808594 60.101562 27.179688 59.679688 26.488281 59.394531 C 25.796875 59.109375 25.054688 58.960938 24.304688 58.960938 C 23.558594 58.960938 22.816406 59.109375 22.125 59.394531 C 21.433594 59.679688 20.804688 60.101562 20.277344 60.628906 C 19.746094 61.160156 19.328125 61.789062 19.039062 62.480469 C 18.753906 63.171875 18.605469 63.910156 18.605469 64.660156 C 18.605469 66.171875 19.207031 67.621094 20.277344 68.691406 C 21.34375 69.761719 22.792969 70.359375 24.304688 70.359375 C 25.816406 70.359375 27.269531 69.761719 28.335938 68.691406 C 29.40625 67.621094 30.007812 66.171875 30.007812 64.660156 Z M 78.898438 61.839844 C 78.898438 61.074219 78.59375 60.339844 78.054688 59.800781 C 77.511719 59.257812 76.777344 58.957031 76.011719 58.957031 C 75.246094 58.957031 74.511719 59.257812 73.972656 59.800781 C 73.429688 60.339844 73.128906 61.074219 73.128906 61.839844 C 73.128906 62.605469 73.429688 63.339844 73.972656 63.878906 C 74.511719 64.421875 75.246094 64.726562 76.011719 64.726562 C 76.777344 64.726562 77.511719 64.421875 78.054688 63.878906 C 78.59375 63.339844 78.898438 62.605469 78.898438 61.839844 Z M 59 71.542969 L 33.960938 62.164062 C 33.421875 61.964844 33.21875 62.144531 33.34375 62.703125 C 33.769531 64.644531 33.574219 66.539062 32.765625 68.378906 C 32.726562 68.46875 32.714844 68.566406 32.734375 68.660156 C 32.753906 68.757812 32.800781 68.84375 32.875 68.910156 L 36.3125 72.144531 C 36.398438 72.226562 36.515625 72.269531 36.636719 72.269531 L 58.871094 72.269531 C 60.25 72.269531 60.292969 72.027344 59 71.542969 Z M 71.691406 67.777344 L 49.660156 64.097656 C 49.632812 64.09375 49.605469 64.097656 49.578125 64.105469 C 49.554688 64.117188 49.53125 64.132812 49.515625 64.152344 C 49.375 64.328125 49.714844 64.300781 49.769531 64.316406 C 57.375 67.140625 64.972656 69.980469 72.5625 72.847656 C 72.992188 73.007812 73.4375 73.226562 73.898438 73.503906 C 74.050781 73.59375 74.203125 73.683594 74.355469 73.769531 C 75.121094 74.214844 75.292969 74.046875 74.871094 73.269531 L 72.023438 68.015625 C 71.992188 67.953125 71.945312 67.898438 71.886719 67.855469 C 71.828125 67.816406 71.761719 67.789062 71.691406 67.777344 Z M 56.03125 75.816406 C 50.136719 75.878906 44.3125 75.730469 38.445312 75.835938 C 34.722656 75.902344 33.207031 73.996094 30.792969 71.800781 C 30.710938 71.726562 30.605469 71.683594 30.496094 71.679688 C 30.386719 71.675781 30.277344 71.710938 30.191406 71.777344 C 28.203125 73.328125 26.046875 74.027344 23.722656 73.871094 C 21.71875 73.734375 19.953125 73.039062 18.425781 71.78125 C 16.992188 70.601562 15.988281 69.066406 15.410156 67.175781 C 15.25 66.636719 14.980469 66.578125 14.609375 66.996094 L 10.480469 71.679688 C 10.113281 72.09375 10.203125 72.351562 10.746094 72.449219 C 12.441406 72.75 13.917969 73.425781 15.171875 74.46875 C 19.003906 77.664062 19.515625 82.902344 16.710938 87.089844 C 16.695312 87.113281 16.683594 87.136719 16.679688 87.164062 C 16.675781 87.191406 16.675781 87.21875 16.683594 87.242188 C 16.6875 87.269531 16.699219 87.292969 16.714844 87.316406 C 16.730469 87.335938 16.753906 87.355469 16.777344 87.367188 C 16.910156 87.441406 17.027344 87.421875 17.128906 87.3125 C 17.160156 87.277344 17.199219 87.253906 17.242188 87.234375 C 17.289062 87.21875 17.335938 87.214844 17.382812 87.21875 C 20.136719 87.488281 23.507812 87.28125 25.535156 87.28125 C 37.425781 87.292969 49.320312 87.285156 61.222656 87.265625 C 61.769531 87.261719 61.902344 87.023438 61.628906 86.554688 C 59.671875 83.222656 59.683594 79.890625 61.65625 76.5625 C 61.699219 76.492188 61.71875 76.414062 61.722656 76.328125 C 61.722656 76.246094 61.703125 76.167969 61.664062 76.09375 C 61.621094 76.023438 61.566406 75.964844 61.496094 75.921875 C 61.425781 75.878906 61.34375 75.855469 61.261719 75.855469 C 59.515625 75.8125 57.773438 75.796875 56.03125 75.816406 Z M 84.730469 82.601562 C 84.785156 82.402344 84.789062 82.203125 84.734375 82.011719 C 83.394531 77.09375 82.011719 72.175781 80.578125 67.253906 C 80.554688 67.183594 80.519531 67.117188 80.464844 67.0625 C 80.414062 67.007812 80.351562 66.964844 80.277344 66.941406 C 80.207031 66.917969 80.132812 66.910156 80.054688 66.921875 C 79.980469 66.933594 79.910156 66.960938 79.851562 67.007812 C 78.960938 67.648438 77.972656 68.054688 76.886719 68.222656 C 76.8125 68.230469 76.742188 68.261719 76.679688 68.304688 C 76.621094 68.347656 76.570312 68.40625 76.539062 68.476562 C 76.503906 68.542969 76.488281 68.617188 76.492188 68.691406 C 76.492188 68.769531 76.511719 68.84375 76.546875 68.910156 L 84.035156 82.679688 C 84.328125 83.21875 84.5625 83.191406 84.730469 82.601562 Z M 107.160156 85.445312 C 108.199219 85.449219 108.285156 85.160156 107.421875 84.585938 C 103.292969 81.835938 99.140625 79.066406 94.957031 76.28125 C 93.257812 75.15625 92.222656 75.761719 91.359375 77.449219 C 90.136719 79.835938 88.921875 82.257812 87.71875 84.710938 C 87.683594 84.785156 87.667969 84.863281 87.671875 84.941406 C 87.675781 85.023438 87.699219 85.097656 87.742188 85.167969 C 87.785156 85.234375 87.84375 85.289062 87.914062 85.328125 C 87.980469 85.367188 88.0625 85.386719 88.140625 85.386719 Z M 14.96875 81.582031 C 14.96875 80.070312 14.367188 78.617188 13.300781 77.550781 C 12.230469 76.480469 10.777344 75.878906 9.265625 75.878906 C 7.75 75.878906 6.300781 76.480469 5.230469 77.550781 C 4.160156 78.617188 3.558594 80.070312 3.558594 81.582031 C 3.558594 83.097656 4.160156 84.546875 5.230469 85.617188 C 6.300781 86.6875 7.75 87.289062 9.265625 87.289062 C 10.777344 87.289062 12.230469 86.6875 13.300781 85.617188 C 14.367188 84.546875 14.96875 83.097656 14.96875 81.582031 Z M 75.140625 81.578125 C 75.140625 80.066406 74.539062 78.617188 73.46875 77.546875 C 72.402344 76.476562 70.953125 75.878906 69.4375 75.878906 C 67.925781 75.878906 66.476562 76.476562 65.410156 77.546875 C 64.339844 78.617188 63.738281 80.066406 63.738281 81.578125 C 63.738281 83.089844 64.339844 84.539062 65.410156 85.609375 C 66.476562 86.679688 67.925781 87.277344 69.4375 87.277344 C 70.953125 87.277344 72.402344 86.679688 73.46875 85.609375 C 74.539062 84.539062 75.140625 83.089844 75.140625 81.578125 Z M 75.140625 81.578125 "/>
</g>
</g>
</svg>
