<?xml version="1.0" standalone="no"?>
<!DOCTYPE svg PUBLIC "-//W3C//DTD SVG 20010904//EN"
 "http://www.w3.org/TR/2001/REC-SVG-20010904/DTD/svg10.dtd">
<svg version="1.0" xmlns="http://www.w3.org/2000/svg"
 width="700.000000pt" height="700.000000pt" viewBox="0 0 700.000000 700.000000"
 preserveAspectRatio="xMidYMid meet">
<metadata>
Created by potrace 1.14, written by Peter Selinger 2001-2017
</metadata>
<g transform="translate(0.000000,700.000000) scale(0.100000,-0.100000)"
fill="#000000" stroke="none">
<path d="M1747 5304 c-1 -1 -45 -4 -97 -7 -230 -14 -359 -107 -414 -298 -24
-82 -28 -125 -27 -326 0 -153 -3 -184 -15 -191 -9 -5 -50 -1 -102 10 -223 47
-293 18 -377 -158 -46 -97 -271 -602 -295 -664 -24 -62 -30 -117 -19 -171 21
-99 104 -148 259 -154 52 -2 98 -4 103 -4 13 -2 7 -31 -10 -49 -10 -10 -31
-33 -47 -52 -16 -19 -55 -64 -86 -100 -32 -36 -97 -110 -145 -165 -48 -55
-104 -118 -124 -140 -20 -22 -67 -76 -106 -120 -38 -44 -72 -82 -75 -85 -4 -3
-19 -23 -35 -45 -17 -22 -33 -42 -36 -45 -4 -3 -21 -31 -39 -64 -135 -239 -20
-585 235 -714 40 -20 89 -35 155 -47 39 -8 874 -14 1705 -14 303 1 782 1 1065
1 283 1 589 0 680 0 203 -2 245 2 325 33 139 52 240 140 300 260 35 69 64 180
65 243 0 57 26 36 81 -66 29 -53 65 -122 82 -152 85 -159 109 -199 121 -203 8
-3 470 -6 1027 -6 1115 0 1064 -3 1090 61 16 40 2 95 -33 121 -21 16 -47 20
-140 24 l-113 5 -540 359 c-297 197 -561 367 -586 378 -163 72 -313 12 -423
-168 -28 -46 -56 -86 -63 -88 -11 -4 -39 74 -77 217 -35 132 -117 421 -186
655 -64 215 -117 297 -232 352 -76 37 -148 55 -593 148 -156 33 -177 39 -187
55 -5 8 -93 268 -196 578 -138 414 -185 567 -177 577 5 7 32 16 59 19 27 3 49
7 50 8 1 2 12 16 24 32 33 43 29 91 -9 127 -17 16 -41 29 -53 30 -43 1 -1768
4 -1769 3z m1462 -218 c17 -21 31 -90 20 -101 -7 -7 -224 -10 -647 -11 -689
-1 -696 -1 -756 -55 -60 -52 -68 -89 -69 -332 -1 -119 -5 -219 -9 -223 -9 -8
-319 54 -332 66 -13 13 -10 435 4 495 20 86 81 143 177 163 63 13 1601 12
1612 -2z m108 -328 c6 -7 67 -183 136 -390 94 -283 122 -380 113 -387 -8 -7
-33 -5 -76 4 -36 8 -119 25 -185 39 -66 14 -230 48 -365 77 -135 28 -254 53
-265 55 -11 2 -83 17 -160 33 -77 17 -153 32 -170 35 -30 5 -194 43 -309 70
-32 8 -62 20 -67 27 -10 17 -8 410 3 432 8 16 50 17 672 17 519 0 666 -3 673
-12z m-2307 -458 c19 -5 49 -12 65 -14 17 -3 73 -15 125 -26 52 -11 129 -28
170 -36 41 -9 82 -17 90 -19 36 -8 217 -47 240 -51 14 -3 119 -25 234 -50 116
-25 226 -47 245 -50 20 -3 39 -8 42 -10 3 -2 19 -6 35 -8 16 -3 58 -12 94 -20
36 -8 184 -39 330 -70 146 -31 339 -73 430 -92 209 -45 200 -43 235 -49 17 -3
37 -8 45 -10 8 -2 27 -7 43 -10 15 -3 37 -7 50 -10 12 -3 159 -34 326 -69 167
-36 307 -70 311 -77 4 -6 -6 -41 -24 -78 -27 -58 -31 -77 -33 -160 -1 -51 -5
-97 -10 -102 -5 -5 -69 1 -154 15 -79 14 -160 27 -179 30 -29 4 -243 40 -375
62 -16 3 -232 39 -480 80 -247 41 -461 77 -475 79 -36 7 -212 37 -235 40 -30
5 -156 25 -190 31 -67 11 -187 46 -310 90 -118 42 -139 47 -225 48 -54 0 -117
-5 -145 -13 -82 -23 -176 -77 -243 -141 l-63 -60 -179 0 c-155 0 -180 2 -188
16 -7 12 4 47 38 123 155 348 262 586 271 602 11 21 36 24 89 9z m555 -776
c66 -33 115 -83 152 -154 24 -48 28 -67 28 -140 0 -71 -4 -94 -26 -140 -65
-137 -219 -217 -363 -187 -201 41 -319 248 -249 436 38 105 108 171 218 208
63 21 176 10 240 -23z m2941 20 c116 -55 125 -231 15 -292 -120 -68 -254 9
-252 145 1 119 129 198 237 147z m-2136 -317 c206 -77 391 -146 410 -153 196
-71 703 -263 708 -268 3 -4 1 -10 -5 -14 -7 -4 -315 -8 -686 -7 l-674 0 -69
67 c-38 36 -87 82 -108 102 l-39 35 23 72 c24 77 32 177 20 255 -4 27 -6 53
-3 57 6 11 0 13 423 -146z m745 -2 c116 -20 224 -38 240 -41 17 -2 55 -9 85
-14 30 -5 69 -12 85 -14 176 -28 644 -108 657 -112 17 -5 201 -339 196 -355
-2 -6 -30 4 -63 21 -55 30 -516 208 -800 310 -27 10 -61 22 -75 28 -20 9 -303
114 -507 189 -41 15 -53 23 -35 23 4 0 102 -16 217 -35z m-2195 -198 c94 -223
307 -353 546 -334 41 4 83 11 94 17 11 6 20 8 20 5 0 -7 114 51 162 82 44 29
33 34 131 -57 103 -95 186 -143 273 -156 26 -4 358 -7 736 -7 516 0 693 -3
705 -12 15 -11 13 -19 -15 -78 -80 -166 -81 -316 -3 -483 17 -37 31 -72 31
-80 0 -12 -171 -14 -1112 -15 -612 -1 -1201 -2 -1308 -3 -107 -1 -198 0 -202
2 -4 1 8 31 27 65 135 248 74 540 -145 701 -53 39 -159 85 -232 101 -16 3 -28
11 -28 18 0 10 143 179 214 253 6 6 22 24 34 39 29 33 36 28 72 -58z m3865
-247 c180 -637 160 -559 156 -606 -2 -33 -34 -6 -70 61 -21 39 -49 90 -63 115
-14 25 -41 74 -60 110 -20 36 -92 170 -162 297 -69 128 -126 237 -126 242 0 6
22 17 49 25 28 8 78 28 112 45 35 17 66 27 70 23 4 -4 46 -144 94 -312z m736
-221 c47 -25 767 -508 774 -519 4 -6 4 -14 0 -18 -3 -3 -185 -6 -403 -5 -218
1 -481 2 -583 2 -150 1 -188 4 -192 15 -6 15 201 438 242 495 41 58 93 67 162
30z m-4837 -19 c164 -78 235 -287 151 -448 -34 -66 -71 -104 -140 -143 -56
-32 -66 -34 -150 -34 -77 0 -98 4 -145 26 -70 34 -122 86 -157 157 -24 50 -28
69 -28 147 0 78 4 97 28 142 85 164 276 230 441 153z m3511 0 c58 -28 126 -96
156 -156 20 -42 24 -63 24 -144 0 -83 -4 -101 -27 -145 -35 -68 -92 -122 -158
-154 -46 -22 -69 -26 -140 -26 -73 0 -93 4 -141 28 -66 32 -132 99 -162 165
-33 71 -31 198 4 272 79 167 280 239 444 160z"/>
</g>
</svg>
