<?xml version="1.0" encoding="utf-8"?>
<!-- Generator: Adobe Illustrator 23.0.3, SVG Export Plug-In . SVG Version: 6.00 Build 0)  -->
<svg version="1.1" xmlns="http://www.w3.org/2000/svg" xmlns:xlink="http://www.w3.org/1999/xlink" x="0px" y="0px"
	 viewBox="0 0 80 80" style="enable-background:new 0 0 80 80;" xml:space="preserve">
<style type="text/css">
	.st0{fill:none;stroke:#000000;stroke-width:1.647;stroke-miterlimit:10;}
	.st1{fill:none;stroke:#000000;stroke-width:1.647;stroke-linejoin:round;stroke-miterlimit:10;}
	.st2{fill:none;stroke:#000000;stroke-width:1.647;stroke-linecap:round;stroke-linejoin:round;stroke-miterlimit:10;}
	.st3{fill:none;stroke:#000000;stroke-width:1.647;stroke-linecap:round;stroke-miterlimit:10;}
	.st4{fill:none;stroke:#000000;stroke-linecap:round;stroke-linejoin:round;stroke-miterlimit:10;}
	.st5{fill:none;stroke:#000000;stroke-miterlimit:10;}
	.st6{fill:none;stroke:#000000;stroke-width:1.6732;stroke-linecap:round;stroke-miterlimit:10;}
	.st7{fill:none;stroke:#000000;stroke-width:1.6639;stroke-linecap:round;stroke-miterlimit:10;}
	.st8{fill:none;stroke:#000000;stroke-width:1.565;stroke-linecap:round;stroke-linejoin:round;stroke-miterlimit:10;}
	.st9{fill:none;stroke:#000000;stroke-width:1.2484;stroke-linecap:round;stroke-miterlimit:10;}
	.st10{fill:none;stroke:#000000;stroke-width:1.2682;stroke-linecap:round;stroke-miterlimit:10;}
	.st11{fill:none;stroke:#000000;stroke-width:1.1862;stroke-linecap:round;stroke-linejoin:round;stroke-miterlimit:10;}
</style>
<g id="образец_цвета">
</g>
<g id="_x31__гарантия">
</g>
<g id="_x32__сертиф_произв">
</g>
<g id="_x33__стандарт_нестандарт">
</g>
<g id="_x34_">
</g>
<g id="_x35__доставка_в_регион_0_руб">
</g>
<g id="_x36__регионы">
</g>
<g id="_x37_">
</g>
<g id="_x38__до_500_км_бесплатно">
</g>
<g id="_x39__по_счету_картой">
	<g>
		<path class="st3" d="M13.6,34.5V66c0,2.3-1.9,4.2-4.2,4.2S5.3,68.3,5.3,66V34.5H13.6z"/>
		<line class="st3" x1="41.8" y1="34.3" x2="41.8" y2="27.1"/>
		<line class="st3" x1="13.6" y1="34.5" x2="13.5" y2="26.7"/>
		<polyline class="st3" points="9.4,70.2 25.2,70.2 40.7,70.2 		"/>
		<g>
			<g>
				<g>
					<path class="st3" d="M25.2,41.4v9.5v19.3h15.5h27.9c1.3,0,2.4-1.1,2.4-2.4v-8.5"/>
					<path class="st3" d="M63,37.9h5.9c1.3,0,2.1,1.4,2.1,2.7v0.7V43v0.7v1.7v0.7v4.2v0.5v1.7"/>
					<path class="st3" d="M33.9,37.9h-6.6c-0.7,0-1.2,0.3-1.7,0.7c-0.4,0.4-0.7,1-0.7,1.7c0,0.4,0.1,0.8,0.3,1.1v0
						c0.4,0.8,1.2,1.3,2.1,1.3"/>
					<path class="st3" d="M27.3,42.7h14.8h22.2h4.6c1.3,0,2.1,1.4,2.1,2.7v0.7"/>
				</g>
				<path class="st3" d="M72.3,59.2h-5.5c-0.9,0-1.6-0.7-1.6-1.6v-3.6c0-0.9,0.7-1.6,1.6-1.6h5.5c1.9,0,3.4,1.5,3.4,3.4v0
					C75.7,57.7,74.2,59.2,72.3,59.2z"/>
				<path class="st3" d="M71,50.3h1.4c1.9,0,3.2,2,3.2,3.9"/>
				<polyline class="st3" points="34.5,40.2 42.1,40.2 64.1,40.2 				"/>
			</g>
			<polyline class="st3" points="64.1,40.2 63.8,39.6 63,37.9 58.7,28.8 43.8,35.9 34.5,40.2 			"/>
		</g>
		<polyline class="st3" points="13.5,26.7 16.3,25.2 19.1,26.8 22,25.2 24.8,26.8 27.6,25.2 30.5,26.8 33.3,25.2 36.2,26.8 39,25.2 
			41.8,26.7 		"/>
		<line class="st3" x1="20" y1="33.7" x2="34.6" y2="33.7"/>
		<line class="st3" x1="25.2" y1="46.5" x2="20" y2="46.5"/>
		<line class="st3" x1="25.2" y1="59.2" x2="20" y2="59.2"/>
	</g>
</g>
<g id="_x31_0_адреса_отправки">
</g>
<g id="_x31_1_лизинг">
</g>
<g id="_x31_2_с_ндс">
</g>
<g id="_x31_3_без_ндс">
</g>
<g id="_x31_4">
</g>
</svg>
