<?xml version="1.0" encoding="utf-8"?>
<!-- Generator: Adobe Illustrator 23.0.3, SVG Export Plug-In . SVG Version: 6.00 Build 0)  -->
<svg version="1.1" xmlns="http://www.w3.org/2000/svg" xmlns:xlink="http://www.w3.org/1999/xlink" x="0px" y="0px"
	 viewBox="0 0 80 80" style="enable-background:new 0 0 80 80;" xml:space="preserve">
<style type="text/css">
	.st0{fill:none;stroke:#000000;stroke-width:1.647;stroke-miterlimit:10;}
	.st1{fill:none;stroke:#000000;stroke-width:1.647;stroke-linejoin:round;stroke-miterlimit:10;}
	.st2{fill:none;stroke:#000000;stroke-width:1.647;stroke-linecap:round;stroke-linejoin:round;stroke-miterlimit:10;}
	.st3{fill:none;stroke:#000000;stroke-width:1.647;stroke-linecap:round;stroke-miterlimit:10;}
	.st4{fill:none;stroke:#000000;stroke-linecap:round;stroke-linejoin:round;stroke-miterlimit:10;}
	.st5{fill:none;stroke:#000000;stroke-miterlimit:10;}
	.st6{fill:none;stroke:#000000;stroke-width:1.6732;stroke-linecap:round;stroke-miterlimit:10;}
	.st7{fill:none;stroke:#000000;stroke-width:1.6639;stroke-linecap:round;stroke-miterlimit:10;}
	.st8{fill:none;stroke:#000000;stroke-width:1.565;stroke-linecap:round;stroke-linejoin:round;stroke-miterlimit:10;}
	.st9{fill:none;stroke:#000000;stroke-width:1.2484;stroke-linecap:round;stroke-miterlimit:10;}
	.st10{fill:none;stroke:#000000;stroke-width:1.2682;stroke-linecap:round;stroke-miterlimit:10;}
	.st11{fill:none;stroke:#000000;stroke-width:1.1862;stroke-linecap:round;stroke-linejoin:round;stroke-miterlimit:10;}
</style>
<g id="образец_цвета">
</g>
<g id="_x31__гарантия">
</g>
<g id="_x32__сертиф_произв">
</g>
<g id="_x33__стандарт_нестандарт">
</g>
<g id="_x34_">
</g>
<g id="_x35__доставка_в_регион_0_руб">
</g>
<g id="_x36__регионы">
</g>
<g id="_x37_">
</g>
<g id="_x38__до_500_км_бесплатно">
	<g>
		<polyline class="st3" points="29.8,62.9 52.4,62.9 52.4,61.5 52.4,44.3 52.4,35.6 52.4,30.1 52.4,25.7 7.1,25.7 7.1,62.9 
			14.5,62.9 		"/>
		<circle class="st3" cx="22.1" cy="62.9" r="7.6"/>
		<circle class="st3" cx="65.9" cy="62.9" r="7.6"/>
		<path class="st3" d="M73.4,61.5h1c0.9,0,1.7-0.8,1.7-1.7v-6.9v-2.4c0-1-0.2-2-0.7-2.8c-0.8-1.7-2.4-2.9-4.3-3.3
			c-0.4-0.1-0.8-0.1-1.2-0.1H52.4v17.2h6"/>
		<path class="st3" d="M68.3,35.6H52.4v-5.5h13c1.6,0,2.9,1.3,2.9,2.9V35.6z"/>
		<line class="st3" x1="68.3" y1="35.6" x2="71.1" y2="44.4"/>
		<path class="st3" d="M76.1,50.5v2.4h-2c-1.4,0-2.5-1.1-2.5-2.5v-1.7c0-0.5,0.4-1,1-1h2.9C75.8,48.5,76.1,49.5,76.1,50.5z"/>
		<circle class="st3" cx="22.1" cy="62.9" r="2.7"/>
		<circle class="st3" cx="65.9" cy="62.9" r="2.7"/>
		<line class="st3" x1="2.8" y1="52.9" x2="14.8" y2="52.9"/>
		<line class="st3" x1="4.9" y1="58.4" x2="13.6" y2="58.4"/>
		<line class="st3" x1="25.9" y1="52.9" x2="45.9" y2="52.9"/>
		<line class="st3" x1="20.3" y1="38.3" x2="25.9" y2="44.3"/>
		<line class="st3" x1="25.9" y1="44.3" x2="37.5" y2="33.8"/>
	</g>
</g>
<g id="_x39__по_счету_картой">
</g>
<g id="_x31_0_адреса_отправки">
</g>
<g id="_x31_1_лизинг">
</g>
<g id="_x31_2_с_ндс">
</g>
<g id="_x31_3_без_ндс">
</g>
<g id="_x31_4">
</g>
</svg>
