<?xml version="1.0" encoding="utf-8"?>
<!-- Generator: Adobe Illustrator 23.0.3, SVG Export Plug-In . SVG Version: 6.00 Build 0)  -->
<svg version="1.1" xmlns="http://www.w3.org/2000/svg" xmlns:xlink="http://www.w3.org/1999/xlink" x="0px" y="0px"
	 viewBox="0 0 80 80" style="enable-background:new 0 0 80 80;" xml:space="preserve">
<style type="text/css">
	.st0{fill:none;stroke:#000000;stroke-width:1.647;stroke-miterlimit:10;}
	.st1{fill:none;stroke:#000000;stroke-width:1.647;stroke-linejoin:round;stroke-miterlimit:10;}
	.st2{fill:none;stroke:#000000;stroke-width:1.647;stroke-linecap:round;stroke-linejoin:round;stroke-miterlimit:10;}
	.st3{fill:none;stroke:#000000;stroke-width:1.647;stroke-linecap:round;stroke-miterlimit:10;}
	.st4{fill:none;stroke:#000000;stroke-linecap:round;stroke-linejoin:round;stroke-miterlimit:10;}
	.st5{fill:none;stroke:#000000;stroke-miterlimit:10;}
	.st6{fill:none;stroke:#000000;stroke-width:1.6732;stroke-linecap:round;stroke-miterlimit:10;}
	.st7{fill:none;stroke:#000000;stroke-width:1.6639;stroke-linecap:round;stroke-miterlimit:10;}
	.st8{fill:none;stroke:#000000;stroke-width:1.565;stroke-linecap:round;stroke-linejoin:round;stroke-miterlimit:10;}
	.st9{fill:none;stroke:#000000;stroke-width:1.2484;stroke-linecap:round;stroke-miterlimit:10;}
	.st10{fill:none;stroke:#000000;stroke-width:1.2682;stroke-linecap:round;stroke-miterlimit:10;}
	.st11{fill:none;stroke:#000000;stroke-width:1.1862;stroke-linecap:round;stroke-linejoin:round;stroke-miterlimit:10;}
</style>
<g id="образец_цвета">
</g>
<g id="_x31__гарантия">
</g>
<g id="_x32__сертиф_произв">
</g>
<g id="_x33__стандарт_нестандарт">
</g>
<g id="_x34_">
</g>
<g id="_x35__доставка_в_регион_0_руб">
</g>
<g id="_x36__регионы">
</g>
<g id="_x37_">
	<g>
		<path class="st3" d="M12.9,36.7c0-0.4,0.1-0.8,0.4-1.1c0.9-1.2,3.1-3.6,4.8-3.6c0.8,0,1.4,0.2,1.7,0.6c0.7,0.8,0.2,2.5-0.1,3.2
			c-0.3,0.9-0.7,1.7-0.5,1.8c0.1,0.1,0.2,0,0.4-0.1c1.2-0.6,1.8-1.2,2.1-1.1c0.1,0,0.2,0.2,0.3,0.3c0.1,0.2,0.1,0.2,0.9,1
			c1,1,2.3,0.4,3.2,1.3c0.9,0.9,1.2,0.5,1.7,0c0.5-0.5,0.4,0.5,1.3,0.5s1.1-2,1.9-2.8c0.1-0.1,0.3-0.2,0.5-0.2
			c0.2,0,0.4,0.2,0.6,0.4c0.8,1,2.3,1.4,3.5,0.8c0.2-0.1,0.3-0.2,0.5-0.3c0.8-0.8,1.4-1.6,2.9-3.2s5.7-2.1,5.7-1.1s-1.5,2.7-1,3.2
			c0.5,0.5,5.3-2.8,5.8-2.3c0.5,0.5,0.2,1.4,1.5,1.4c1.3,0,2.5-2.7,2.8-2.3c0.4,0.4-0.2-2.1,1.6-2.1c1.8,0,2.9-1,2.9-1.9
			c0-0.9,1.1,0.7,1.9,0c0.7-0.7,1.9-1.8,2.7-2.7c0.8-0.8-0.6-1.9,0.5-3.1c1.1-1.1,1.5-1.1,2.5-2.1c1-1,1.6-1.7,3-1.7
			c1.4,0,0,1.5,0,2c0,0.6-0.9,1.4-0.9,1.4l1.5,1.5c0,0,1.8,0.2,1.8,2c0,1.9,0.7,3,0,3.7c-0.7,0.7-0.6,1.7,0.3,2.6
			c0.9,0.9,3.3,3.8,3.3,5.5c0,1.7,1.5,1.4,1.5,2.4s-1.5,1.1-2.5,0s-1.5-1.9-2.4-2.8c-0.9-0.9-1.1-2.3-1.7-3.7s-1.1-2.4-1.1-1.4
			c0,1.1-0.5,0.9-0.5,2.4c0,1.5,0.9,2.3-0.6,3.8c-1.5,1.5-2.1,2.5-2.8,3.2c-0.7,0.7-1.5,2.4-1.1,4.1s1,2.6,1.8,1.8
			c0.8-0.8,0.8-1.7,1.7-0.7c0.9,0.9,3.6,2.5,3.6,3.5s-0.4,2.2,0.2,3.7c0.7,1.7,0.4,4-0.8,4.8c-1.3,0.9-2.9-1-1.9-2.2
			c0.2-0.3,0.4-0.6,0.4-0.8c0-0.8,0.6-1.4-0.5-1.4c-1.1,0-2,1.2-4.1,1.2c-3,0-2.5-1.5-4.8-2.6c-0.4-0.2-0.8-0.1-1.1,0.2
			c-0.8,0.8,0.6,2.1-0.5,3.2c-1.1,1.1-0.6,1.6-2.3,1.6s-1.3,2.2-2.8,2.2s-4.8,0.8-5.7,0c-0.8-0.8-2.2-1.5-3.4-0.3
			c-1.2,1.2-0.2,2-1.5,2c-1.3,0-1.6-1.1-2.7-1.1s-1,1.9-2.5,1.9c-1.5,0-2-1.3-3.4-1.9c-1.5-0.6-2.5-2.3-3.4-3.2
			c-0.9-0.9-1-0.8-2.6-1.5c-1.6-0.7-1.1-0.9-1.6-1.5c-0.6-0.6-2.5,1.8-3.8,0.6c-1.3-1.3-0.6,0.9-2.7,0.9S15,55.3,14,54.3
			c-1-1-0.2,0-1.8,0s-2.8-0.5-2.8,0.4c0,0.9,1.2,2.5,0.5,3.2c-0.7,0.7-2.5-0.7-2.5,0.7s0.3,3.2-1.2,2.7c-1.5-0.6-1.3-4.5-2.2-6.5
			c-0.9-1.9,0-3.8,1.2-3.8c1.2,0,1.9-0.2,1.5-1.5c-0.4-1.3-1.4-1.9-1.4-2.7c0-0.8-1.5-2-0.9-2.6C5,43.7,6,44.4,6,43.3s0.4-3,1.9-4.4
			s3.3-1.6,4.4-1.6C12.8,37.2,12.9,37,12.9,36.7z"/>
		<g>
			<path class="st0" d="M48.3,17.5c-4.9-6.4-14.2-7.6-20.6-2.7c-4,3.1-6,7.9-5.7,12.6"/>
			<polygon points="51.6,15 52.7,23.1 45.1,20 			"/>
		</g>
	</g>
</g>
<g id="_x38__до_500_км_бесплатно">
</g>
<g id="_x39__по_счету_картой">
</g>
<g id="_x31_0_адреса_отправки">
</g>
<g id="_x31_1_лизинг">
</g>
<g id="_x31_2_с_ндс">
</g>
<g id="_x31_3_без_ндс">
</g>
<g id="_x31_4">
</g>
</svg>
