<svg width="84" height="74" viewBox="0 0 84 74" fill="none" xmlns="http://www.w3.org/2000/svg">
<rect width="83" height="73" transform="translate(0.853027 0.8125)" fill="white"/>
<path d="M27.853 12.8125H23.853" stroke="black"/>
<path d="M14.853 43.8125C13.9007 43.8125 12.9583 44.0207 12.0837 44.4244C11.209 44.8281 10.4204 45.4188 9.76618 46.1603C9.11195 46.9018 8.60581 47.7785 8.27875 48.7369C7.95169 49.6952 7.81059 50.7149 7.86408 51.7337C7.91756 52.7525 8.16451 53.7489 8.58982 54.6618C9.01512 55.5748 9.60984 56.3852 10.3376 57.0434C11.0653 57.7017 11.9107 58.1939 12.8221 58.4899C13.7335 58.7859 14.6917 58.8796 15.6381 58.7652L15.5445 57.8766C14.7109 57.9774 13.867 57.8949 13.0643 57.6341C12.2615 57.3734 11.5169 56.9399 10.8759 56.3601C10.235 55.7804 9.71118 55.0666 9.33658 54.2625C8.96199 53.4584 8.74448 52.5808 8.69737 51.6835C8.65026 50.7862 8.77454 49.888 9.0626 49.044C9.35067 48.1999 9.79646 47.4277 10.3727 46.7746C10.9489 46.1215 11.6435 45.6012 12.4139 45.2457C13.1842 44.8901 14.0142 44.7067 14.853 44.7067V43.8125Z" fill="#121211" stroke="black" stroke-width="2"/>
<path d="M59.353 43.8125C60.2374 43.8125 61.1124 44.0207 61.9246 44.4244C62.7368 44.8281 63.469 45.4188 64.0765 46.1603C64.684 46.9018 65.154 47.7785 65.4577 48.7369C65.7614 49.6952 65.8924 50.7149 65.8428 51.7337C65.7931 52.7525 65.5638 53.7489 65.1689 54.6618C64.7739 55.5748 64.2217 56.3852 63.546 57.0434C62.8702 57.7017 62.0852 58.1939 61.2389 58.4899C60.3926 58.7859 59.5028 58.8796 58.6241 58.7652L58.711 57.8766C59.485 57.9774 60.2686 57.8949 61.014 57.6341C61.7594 57.3734 62.4509 56.9399 63.046 56.3601C63.6412 55.7804 64.1276 55.0666 64.4754 54.2625C64.8233 53.4584 65.0253 52.5808 65.069 51.6835C65.1127 50.7862 64.9973 49.888 64.7298 49.044C64.4624 48.1999 64.0484 47.4277 63.5133 46.7746C62.9783 46.1215 62.3333 45.6012 61.618 45.2457C60.9026 44.8901 60.1319 44.7067 59.353 44.7067V43.8125Z" fill="#121211"/>
<path d="M59.353 43.8125C60.2374 43.8125 61.1124 44.0207 61.9246 44.4244C62.7368 44.8281 63.469 45.4188 64.0765 46.1603C64.684 46.9018 65.154 47.7785 65.4577 48.7369C65.7614 49.6952 65.8924 50.7149 65.8428 51.7337C65.7931 52.7525 65.5638 53.7489 65.1689 54.6618C64.7739 55.5748 64.2217 56.3852 63.546 57.0434C62.8702 57.7017 62.0852 58.1939 61.2389 58.4899C60.3926 58.7859 59.5028 58.8796 58.6241 58.7652L58.711 57.8766C59.485 57.9774 60.2686 57.8949 61.014 57.6341C61.7594 57.3734 62.4509 56.9399 63.046 56.3601C63.6412 55.7804 64.1276 55.0666 64.4754 54.2625C64.8233 53.4584 65.0253 52.5808 65.069 51.6835C65.1127 50.7862 64.9973 49.888 64.7298 49.044C64.4624 48.1999 64.0484 47.4277 63.5133 46.7746C62.9783 46.1215 62.3333 45.6012 61.618 45.2457C60.9026 44.8901 60.1319 44.7067 59.353 44.7067V43.8125Z" fill="black" fill-opacity="0.2"/>
<path d="M59.353 43.8125C60.2374 43.8125 61.1124 44.0207 61.9246 44.4244C62.7368 44.8281 63.469 45.4188 64.0765 46.1603C64.684 46.9018 65.154 47.7785 65.4577 48.7369C65.7614 49.6952 65.8924 50.7149 65.8428 51.7337C65.7931 52.7525 65.5638 53.7489 65.1689 54.6618C64.7739 55.5748 64.2217 56.3852 63.546 57.0434C62.8702 57.7017 62.0852 58.1939 61.2389 58.4899C60.3926 58.7859 59.5028 58.8796 58.6241 58.7652L58.711 57.8766C59.485 57.9774 60.2686 57.8949 61.014 57.6341C61.7594 57.3734 62.4509 56.9399 63.046 56.3601C63.6412 55.7804 64.1276 55.0666 64.4754 54.2625C64.8233 53.4584 65.0253 52.5808 65.069 51.6835C65.1127 50.7862 64.9973 49.888 64.7298 49.044C64.4624 48.1999 64.0484 47.4277 63.5133 46.7746C62.9783 46.1215 62.3333 45.6012 61.618 45.2457C60.9026 44.8901 60.1319 44.7067 59.353 44.7067V43.8125Z" stroke="black" stroke-width="2"/>
<path d="M18.853 51.3125C18.853 52.8434 17.8185 53.8125 16.853 53.8125C15.8875 53.8125 14.853 52.8434 14.853 51.3125C14.853 49.7816 15.8875 48.8125 16.853 48.8125C17.8185 48.8125 18.853 49.7816 18.853 51.3125Z" stroke="#121211" stroke-width="2"/>
<path d="M72.353 48.8125L76.853 58.4554L72.353 58.8125L67.853 58.4554L72.353 48.8125Z" fill="#121211"/>
<path d="M19.7909 51.3468L67.7254 53.6164L67.6362 52.3364L67.3281 47.916L19.7909 51.3468Z" fill="#121211"/>
<path d="M31.853 18.8125L35.3171 39.8125H28.3889L31.853 18.8125Z" fill="#121211"/>
<path d="M14.853 12.8125H35.853" stroke="#736D6D"/>
<path d="M14.853 12.8125H35.853" stroke="#736D6D"/>
<path d="M14.853 12.8125H35.853" stroke="#121211" stroke-width="3"/>
<path d="M14.8953 43.8125L15.2262 12.8121" stroke="#121211" stroke-width="3"/>
<path d="M51.853 29.8125V19.8125" stroke="#121211" stroke-width="2"/>
<g filter="url(#filter0_d_90_396)">
<path d="M43.853 26.8125V29.8125" stroke="#121211" stroke-width="3"/>
</g>
<path d="M53.853 19.8125H51.853" stroke="#121211"/>
<path d="M17.853 36.8125L17.853 19.8125" stroke="#121211" stroke-width="6"/>
<path d="M69.853 58.8125V40.8125" stroke="#121211" stroke-width="6"/>
<path d="M27.853 39.8125L27.853 28.0176V16.8125" stroke="#121211" stroke-width="8"/>
<path d="M61.353 44.3125L14.353 44.3125" stroke="#121211" stroke-width="3"/>
<path d="M61.353 58.3125L13.853 58.3125" stroke="#121211"/>
<path d="M59.853 58.3125L13.853 58.3125" stroke="#121211" stroke-width="3"/>
<path d="M67.6143 51.5625L37.6143 51.5625L19.256 51.5625" stroke="#121211" stroke-width="3"/>
<g filter="url(#filter1_d_90_396)">
<path d="M60.853 43.8125V29.3125" stroke="#121211" stroke-width="3"/>
</g>
<path d="M60.853 29.8125L37.853 29.8125" stroke="#121211" stroke-width="3"/>
<path d="M38.5098 29.8125L35.8232 12.8125" stroke="#121211" stroke-width="3"/>
<defs>
<filter id="filter0_d_90_396" x="38.353" y="26.8125" width="11" height="11" filterUnits="userSpaceOnUse" color-interpolation-filters="sRGB">
<feFlood flood-opacity="0" result="BackgroundImageFix"/>
<feColorMatrix in="SourceAlpha" type="matrix" values="0 0 0 0 0 0 0 0 0 0 0 0 0 0 0 0 0 0 127 0" result="hardAlpha"/>
<feOffset dy="4"/>
<feGaussianBlur stdDeviation="2"/>
<feComposite in2="hardAlpha" operator="out"/>
<feColorMatrix type="matrix" values="0 0 0 0 0 0 0 0 0 0 0 0 0 0 0 0 0 0 0.25 0"/>
<feBlend mode="normal" in2="BackgroundImageFix" result="effect1_dropShadow_90_396"/>
<feBlend mode="normal" in="SourceGraphic" in2="effect1_dropShadow_90_396" result="shape"/>
</filter>
<filter id="filter1_d_90_396" x="55.353" y="29.3125" width="11" height="22.5" filterUnits="userSpaceOnUse" color-interpolation-filters="sRGB">
<feFlood flood-opacity="0" result="BackgroundImageFix"/>
<feColorMatrix in="SourceAlpha" type="matrix" values="0 0 0 0 0 0 0 0 0 0 0 0 0 0 0 0 0 0 127 0" result="hardAlpha"/>
<feOffset dy="4"/>
<feGaussianBlur stdDeviation="2"/>
<feComposite in2="hardAlpha" operator="out"/>
<feColorMatrix type="matrix" values="0 0 0 0 0 0 0 0 0 0 0 0 0 0 0 0 0 0 0.25 0"/>
<feBlend mode="normal" in2="BackgroundImageFix" result="effect1_dropShadow_90_396"/>
<feBlend mode="normal" in="SourceGraphic" in2="effect1_dropShadow_90_396" result="shape"/>
</filter>
</defs>
</svg>
