<?xml version="1.0" encoding="utf-8"?>
<!-- Generator: Adobe Illustrator 23.0.3, SVG Export Plug-In . SVG Version: 6.00 Build 0)  -->
<svg version="1.1" xmlns="http://www.w3.org/2000/svg" xmlns:xlink="http://www.w3.org/1999/xlink" x="0px" y="0px"
	 viewBox="0 0 45 45" style="enable-background:new 0 0 45 45;" xml:space="preserve">
<style type="text/css">
	.st0{fill:none;stroke:#000000;stroke-linecap:round;stroke-linejoin:round;stroke-miterlimit:10;}
	.st1{fill:none;stroke:#000000;stroke-width:0.5;stroke-linecap:round;stroke-linejoin:round;stroke-miterlimit:10;}
	.st2{fill:none;}
	.st3{fill:none;stroke:#000000;stroke-miterlimit:10;}
	.st4{fill:#ED1E79;}
</style>
<g id="Слой_2">
</g>
<g id="Слой_3">
</g>
<g id="Слой_4">
</g>
<g id="Слой_5">
</g>
<g id="Слой_6">
	<g>
		<path class="st1" d="M44.5,26.4c-0.2,0-0.5,0-0.7,0c-1,0-1.9,0.1-2.8,0.4c-0.3,0.1-0.6,0.2-1,0.3c-0.3,0.1-0.6,0.3-0.9,0.4
			c-0.3,0.1-0.6,0.3-0.8,0.5c-0.3,0.2-0.6,0.4-0.9,0.7c-0.3,0.3-0.6,0.5-0.9,0.8c-0.3,0.4-0.6,0.7-0.9,1.1c-0.3,0.5-0.7,1-0.9,1.6
			c-0.6,1.3-0.9,2.7-0.9,4.2h1.8c0-0.7,0.1-1.5,0.3-2.1c0.3-1.1,0.8-2.2,1.6-3c0.3-0.3,0.6-0.6,0.9-0.9c0.3-0.2,0.5-0.4,0.8-0.6
			c0.3-0.2,0.6-0.4,0.9-0.6c0.3-0.2,0.6-0.3,1-0.4c0.9-0.3,1.8-0.5,2.8-0.5c0.2,0,0.5,0,0.7,0"/>
		<path class="st1" d="M28.8,36.4L27.3,9.9V9.6c0-0.5-0.4-0.9-0.9-0.9H11.2c-0.5,0-0.9,0.4-0.9,0.9v0.1c0,0.5,0,1-0.1,1.5l-1.3,8.7
			c-3.5,0.6-6.5,2.7-8.3,5.6l1.4,1.2c2-3.3,5.8-5.4,10-5.1c5.4,0.4,9.8,4.8,10.1,10.2c0.1,1.7-0.2,3.3-0.8,4.7h1.9
			c0.4-1.3,0.7-2.6,0.7-4.1c0-4.7-2.5-8.8-6.3-10.9c-1.6-0.9-3.4-1.5-5.3-1.7c-0.4,0-0.7,0-1.1,0c-0.2,0-0.3,0-0.5,0l0.9-9.3H26
			l1,26"/>
		<line class="st1" x1="35.6" y1="36.4" x2="33.8" y2="36.4"/>
		<line class="st1" x1="23.1" y1="36.4" x2="21.3" y2="36.4"/>
		<line class="st1" x1="28.8" y1="36.4" x2="27" y2="36.4"/>
		<path class="st1" d="M44.5,28.2v-1.8v-2c0-1.6-1.3-2.9-2.9-2.9H27.9v0"/>
		<polyline class="st1" points="27.9,36.4 28.8,36.4 33.8,36.4 35.6,36.4 		"/>
		<g>
			<line class="st1" x1="26.7" y1="28.2" x2="23.1" y2="28.2"/>
			<line class="st1" x1="23.6" y1="30" x2="26.7" y2="30"/>
		</g>
		<path class="st1" d="M19.9,19.7v1.7h-2.4c-1.6-0.9-3.4-1.5-5.3-1.7H19.9z"/>
		<path class="st1" d="M17.2,10.4l0.9,9.3"/>
		<g>
			<line class="st1" x1="26.9" y1="33.4" x2="23.8" y2="33.4"/>
			<polyline class="st1" points="23.5,35.1 26.9,35.1 26.9,35.1 			"/>
		</g>
		<path class="st1" d="M39.9,24v2.8l0,0.4c0,0-0.5,0.2-0.8,0.4c-0.3,0.1-0.6,0.3-0.8,0.5c-0.3,0.2-0.6,0.4-0.9,0.7
			c-0.3,0.3-0.6,0.5-0.9,0.8c-0.3,0.4-0.6,0.7-0.9,1.1c-0.3,0.5-0.7,1-0.9,1.6V24H39.9z"/>
		<line class="st1" x1="36.5" y1="29.5" x2="36.5" y2="24"/>
		<line class="st1" x1="38.3" y1="28" x2="38.3" y2="24"/>
	</g>
</g>
</svg>
