<?xml version="1.0" encoding="utf-8"?>
<!-- Generator: Adobe Illustrator 23.0.3, SVG Export Plug-In . SVG Version: 6.00 Build 0)  -->
<svg version="1.1" xmlns="http://www.w3.org/2000/svg" xmlns:xlink="http://www.w3.org/1999/xlink" x="0px" y="0px"
	 viewBox="0 0 45 45" style="enable-background:new 0 0 45 45;" xml:space="preserve">
<style type="text/css">
	.st0{fill:none;stroke:#000000;stroke-width:0.5;stroke-linecap:round;stroke-linejoin:round;stroke-miterlimit:10;}
	.st1{fill:none;}
	.st2{fill:#ED1E79;}
	.st3{fill:none;stroke:#000000;stroke-linecap:round;stroke-linejoin:round;stroke-miterlimit:10;}
</style>
<g id="Слой_2">
</g>
<g id="Слой_3">
</g>
<g id="Слой_4">
</g>
<g id="Слой_5">
	<g>
		<path class="st0" d="M9.4,32.7h-1c-0.7,0-1.3-0.6-1.3-1.3V19.8c0-0.7,0.6-1.3,1.3-1.3h1V32.7z"/>
		<path class="st0" d="M36,35h-1.9V16.2H36c1,0,1.8,0.8,1.8,1.8v15.1C37.8,34.2,37,35,36,35z"/>
		<path class="st0" d="M42.3,33h-0.5c-0.5,0-0.9-0.4-0.9-0.9V19.1c0-0.5,0.4-0.9,0.9-0.9h0.5c0.5,0,0.9,0.4,0.9,0.9v12.9
			C43.2,32.6,42.8,33,42.3,33z"/>
		<rect x="37.8" y="23.1" class="st0" width="3" height="5"/>
		<polyline class="st0" points="13.3,36 34.2,36 34.2,16.2 30,13.3 15.5,13.3 9.4,18.6 9.4,32.7 		"/>
		<rect x="4.1" y="24.1" class="st0" width="3" height="3"/>
		<path class="st0" d="M3.3,31.3H2.5c-0.4,0-0.8-0.3-0.8-0.8v-9.9c0-0.4,0.3-0.8,0.8-0.8h0.8c0.4,0,0.8,0.3,0.8,0.8v9.9
			C4.1,31,3.7,31.3,3.3,31.3z"/>
		
			<rect x="22.4" y="1.7" transform="matrix(-1.836970e-16 1 -1 -1.836970e-16 32.407 -13.4321)" class="st0" width="1.1" height="15.6"/>
		<rect x="20.5" y="10" class="st0" width="4.8" height="3.2"/>
		<polygon class="st0" points="22.2,19.3 27.1,19.3 23.9,24 28.3,24 21.8,30.6 22.9,26.4 18.7,26.4 		"/>
		<line class="st0" x1="11" y1="19.8" x2="16.4" y2="15.2"/>
		<line class="st0" x1="13.3" y1="36" x2="9.4" y2="32.7"/>
	</g>
</g>
<g id="Слой_6">
</g>
</svg>
