<svg width="120" height="110" viewBox="0 0 120 110" fill="none" xmlns="http://www.w3.org/2000/svg">
<mask id="path-1-inside-1_101_477" fill="white">
<path d="M118.001 52.8003H106C104.896 52.8003 104.001 53.7854 104.001 55.0003V63.8002H100V44.0001C100 43.3899 99.7701 42.8078 99.3646 42.3919L84.3646 26.992C83.9945 26.6117 83.5072 26.4 83.0003 26.4H68.0002V13.2H76.0001C79.3088 13.2 82.0002 10.2396 82.0002 6.60001C82.0002 2.96046 79.3088 0 76.0001 0H44.0001C40.6914 0 38.0001 2.96046 38.0001 6.60001C38.0001 10.2396 40.6914 13.2 44.0001 13.2H52V26.4H41.0001C40.4931 26.4 40.0059 26.6117 39.6358 26.992L25.2123 41.8002H14C12.8954 41.8002 12 42.7853 12 44.0001V59.4001H4.00009V44.0001C4.00009 42.7851 3.10454 41.8002 2.00016 41.8002C0.895785 41.8002 0 42.7853 0 44.0001V92.4001C0 93.6152 0.89555 94.6001 1.99993 94.6001C3.10431 94.6001 3.99986 93.615 3.99986 92.4001V77.0002H12V92.4001C12 93.6152 12.8956 94.6001 14 94.6001H25.1919L39.1103 109.382C39.4834 109.779 39.9815 110 40.4999 110H98.0001C99.1047 110 100 109.015 100 107.8V90.2H104V98.9999C104 100.215 104.896 101.2 106 101.2H118C119.105 101.2 120 100.215 120 98.9999V55.0003C120 53.7852 119.105 52.8003 118.001 52.8003ZM12 72.6004H4.00009V63.8004H12V72.6004ZM24.0001 90.2002H16.0001V46.2003H24.0001V90.2002ZM44.0001 8.80019C42.8976 8.80019 42.0002 7.81302 42.0002 6.60027C42.0002 5.38752 42.8976 4.40035 44.0001 4.40035H76.0001C77.1026 4.40035 78.0001 5.38752 78.0001 6.60027C78.0001 7.81302 77.1026 8.80019 76.0001 8.80019H44.0001ZM64.0003 13.2003V26.4003H56.0004V13.2003H64.0003ZM96.0004 105.6H41.3078L28.0002 91.4669V44.9564L41.7883 30.8004H82.2123L96.0004 44.9564V105.6ZM104 85.8004H100V68.2003H104V85.8004ZM116 96.8002H108V57.2004H116V96.8002Z"/>
</mask>
<path d="M118.001 52.8003H106C104.896 52.8003 104.001 53.7854 104.001 55.0003V63.8002H100V44.0001C100 43.3899 99.7701 42.8078 99.3646 42.3919L84.3646 26.992C83.9945 26.6117 83.5072 26.4 83.0003 26.4H68.0002V13.2H76.0001C79.3088 13.2 82.0002 10.2396 82.0002 6.60001C82.0002 2.96046 79.3088 0 76.0001 0H44.0001C40.6914 0 38.0001 2.96046 38.0001 6.60001C38.0001 10.2396 40.6914 13.2 44.0001 13.2H52V26.4H41.0001C40.4931 26.4 40.0059 26.6117 39.6358 26.992L25.2123 41.8002H14C12.8954 41.8002 12 42.7853 12 44.0001V59.4001H4.00009V44.0001C4.00009 42.7851 3.10454 41.8002 2.00016 41.8002C0.895785 41.8002 0 42.7853 0 44.0001V92.4001C0 93.6152 0.89555 94.6001 1.99993 94.6001C3.10431 94.6001 3.99986 93.615 3.99986 92.4001V77.0002H12V92.4001C12 93.6152 12.8956 94.6001 14 94.6001H25.1919L39.1103 109.382C39.4834 109.779 39.9815 110 40.4999 110H98.0001C99.1047 110 100 109.015 100 107.8V90.2H104V98.9999C104 100.215 104.896 101.2 106 101.2H118C119.105 101.2 120 100.215 120 98.9999V55.0003C120 53.7852 119.105 52.8003 118.001 52.8003ZM12 72.6004H4.00009V63.8004H12V72.6004ZM24.0001 90.2002H16.0001V46.2003H24.0001V90.2002ZM44.0001 8.80019C42.8976 8.80019 42.0002 7.81302 42.0002 6.60027C42.0002 5.38752 42.8976 4.40035 44.0001 4.40035H76.0001C77.1026 4.40035 78.0001 5.38752 78.0001 6.60027C78.0001 7.81302 77.1026 8.80019 76.0001 8.80019H44.0001ZM64.0003 13.2003V26.4003H56.0004V13.2003H64.0003ZM96.0004 105.6H41.3078L28.0002 91.4669V44.9564L41.7883 30.8004H82.2123L96.0004 44.9564V105.6ZM104 85.8004H100V68.2003H104V85.8004ZM116 96.8002H108V57.2004H116V96.8002Z" fill="black"/>
<path d="M104.001 63.8002V69.8002H110.001V63.8002H104.001ZM100 63.8002H94.0005V69.8002H100V63.8002ZM99.3646 42.3919L95.0665 46.5784L95.0687 46.5806L99.3646 42.3919ZM84.3646 26.992L80.0647 31.1766L80.0665 31.1784L84.3646 26.992ZM68.0002 26.4H62.0002V32.4H68.0002V26.4ZM68.0002 13.2V7.20002H62.0002V13.2H68.0002ZM52 13.2H58V7.20002H52V13.2ZM52 26.4V32.4H58V26.4H52ZM39.6358 26.992L43.9339 31.1784L43.9357 31.1766L39.6358 26.992ZM25.2123 41.8002V47.8002H27.744L29.5104 45.9867L25.2123 41.8002ZM12 59.4001V65.4001H18V59.4001H12ZM4.00009 59.4001H-1.99991V65.4001H4.00009V59.4001ZM3.99986 77.0002V71.0002H-2.00014V77.0002H3.99986ZM12 77.0002H18V71.0002H12V77.0002ZM25.1919 94.6001L29.5603 90.487L27.7836 88.6001H25.1919V94.6001ZM39.1103 109.382L34.742 113.495L34.7421 113.496L39.1103 109.382ZM100 90.2V84.2H94V90.2H100ZM104 90.2H110V84.2H104V90.2ZM120 55.0003L114 54.9979V55.0003H120ZM12 72.6004V78.6004H18V72.6004H12ZM4.00009 72.6004H-1.99991V78.6004H4.00009V72.6004ZM4.00009 63.8004V57.8004H-1.99991V63.8004H4.00009ZM12 63.8004H18V57.8004H12V63.8004ZM24.0001 90.2002V96.2002H30.0001V90.2002H24.0001ZM16.0001 90.2002H10.0001V96.2002H16.0001V90.2002ZM16.0001 46.2003V40.2003H10.0001V46.2003H16.0001ZM24.0001 46.2003H30.0001V40.2003H24.0001V46.2003ZM64.0003 13.2003H70.0003V7.20028H64.0003V13.2003ZM64.0003 26.4003V32.4003H70.0003V26.4003H64.0003ZM56.0004 26.4003H50.0004V32.4003H56.0004V26.4003ZM56.0004 13.2003V7.20028H50.0004V13.2003H56.0004ZM96.0004 105.6V111.6H102V105.6H96.0004ZM41.3078 105.6L36.9395 109.714L38.7161 111.6H41.3078V105.6ZM28.0002 91.4669H22.0002V93.847L23.6318 95.5799L28.0002 91.4669ZM28.0002 44.9564L23.7021 40.77L22.0002 42.5172V44.9564H28.0002ZM41.7883 30.8004V24.8004H39.2566L37.4902 26.614L41.7883 30.8004ZM82.2123 30.8004L86.5104 26.614L84.7439 24.8004H82.2123V30.8004ZM96.0004 44.9564H102V42.5172L100.299 40.77L96.0004 44.9564ZM104 85.8004V91.8004H110V85.8004H104ZM100 85.8004H94.0002V91.8004H100V85.8004ZM100 68.2003V62.2003H94.0002V68.2003H100ZM104 68.2003H110V62.2003H104V68.2003ZM116 96.8002V102.8H122V96.8002H116ZM108 96.8002H102V102.8H108V96.8002ZM108 57.2004V51.2004H102V57.2004H108ZM116 57.2004H122V51.2004H116V57.2004ZM118.001 46.8003H106V58.8003H118.001V46.8003ZM106 46.8003C101.056 46.8003 98.0006 51.0231 98.0006 55.0003H110.001C110.001 56.5477 108.735 58.8003 106 58.8003V46.8003ZM98.0006 55.0003V63.8002H110.001V55.0003H98.0006ZM104.001 57.8002H100V69.8002H104.001V57.8002ZM106 63.8002V44.0001H94.0005V63.8002H106ZM106 44.0001C106 41.9103 105.217 39.7994 103.661 38.2032L95.0687 46.5806C94.3233 45.8162 94.0005 44.8695 94.0005 44.0001H106ZM103.663 38.2054L88.6626 22.8055L80.0665 31.1784L95.0665 46.5784L103.663 38.2054ZM88.6644 22.8074C87.226 21.3293 85.2125 20.4 83.0003 20.4V32.4C81.8019 32.4 80.7629 31.8941 80.0647 31.1766L88.6644 22.8074ZM83.0003 20.4H68.0002V32.4H83.0003V20.4ZM74.0002 26.4V13.2H62.0002V26.4H74.0002ZM68.0002 19.2H76.0001V7.20002H68.0002V19.2ZM76.0001 19.2C83.1479 19.2 88.0002 13.0023 88.0002 6.60001H76.0002C76.0002 6.93817 75.8763 7.14627 75.8013 7.2288C75.7663 7.26729 75.7587 7.26095 75.7991 7.24212C75.8461 7.22023 75.9201 7.20002 76.0001 7.20002V19.2ZM88.0002 6.60001C88.0002 0.197686 83.1479 -6 76.0001 -6V6C75.9201 6 75.8461 5.97979 75.7991 5.95789C75.7587 5.93907 75.7663 5.93273 75.8013 5.97122C75.8763 6.05375 76.0002 6.26185 76.0002 6.60001H88.0002ZM76.0001 -6H44.0001V6H76.0001V-6ZM44.0001 -6C36.8524 -6 32.0001 0.197686 32.0001 6.60001H44.0001C44.0001 6.26185 44.1239 6.05375 44.199 5.97122C44.234 5.93273 44.2415 5.93907 44.2011 5.95789C44.1542 5.97979 44.0802 6 44.0001 6V-6ZM32.0001 6.60001C32.0001 13.0023 36.8524 19.2 44.0001 19.2V7.20002C44.0802 7.20002 44.1542 7.22023 44.2011 7.24212C44.2415 7.26095 44.234 7.26729 44.199 7.2288C44.1239 7.14627 44.0001 6.93817 44.0001 6.60001H32.0001ZM44.0001 19.2H52V7.20002H44.0001V19.2ZM46 13.2V26.4H58V13.2H46ZM52 20.4H41.0001V32.4H52V20.4ZM41.0001 20.4C38.7879 20.4 36.7743 21.3293 35.3359 22.8074L43.9357 31.1766C43.2374 31.8941 42.1984 32.4 41.0001 32.4V20.4ZM35.3377 22.8055L20.9142 37.6138L29.5104 45.9867L43.9339 31.1784L35.3377 22.8055ZM25.2123 35.8002H14V47.8002H25.2123V35.8002ZM14 35.8002C9.05591 35.8002 6.00005 40.023 6.00005 44.0001H18C18 45.5477 16.7348 47.8002 14 47.8002V35.8002ZM6.00005 44.0001V59.4001H18V44.0001H6.00005ZM12 53.4001H4.00009V65.4001H12V53.4001ZM10.0001 59.4001V44.0001H-1.99991V59.4001H10.0001ZM10.0001 44.0001C10.0001 40.0218 6.94312 35.8002 2.00016 35.8002V47.8002C-0.734037 47.8002 -1.99991 45.5483 -1.99991 44.0001H10.0001ZM2.00016 35.8002C-2.94236 35.8002 -6 40.0216 -6 44.0001H6C6 45.5491 4.73393 47.8002 2.00016 47.8002V35.8002ZM-6 44.0001V92.4001H6V44.0001H-6ZM-6 92.4001C-6 96.3785 -2.943 100.6 1.99993 100.6V88.6001C4.7341 88.6001 6 90.8519 6 92.4001H-6ZM1.99993 100.6C6.9433 100.6 9.99986 96.3778 9.99986 92.4001H-2.00014C-2.00014 90.8521 -0.734679 88.6001 1.99993 88.6001V100.6ZM9.99986 92.4001V77.0002H-2.00014V92.4001H9.99986ZM3.99986 83.0002H12V71.0002H3.99986V83.0002ZM6.00005 77.0002V92.4001H18V77.0002H6.00005ZM6.00005 92.4001C6.00005 96.3785 9.05704 100.6 14 100.6V88.6001C16.7342 88.6001 18 90.8519 18 92.4001H6.00005ZM14 100.6H25.1919V88.6001H14V100.6ZM20.8235 98.7131L34.742 113.495L43.4787 105.269L29.5603 90.487L20.8235 98.7131ZM34.7421 113.496C36.1849 115.028 38.2364 116 40.4999 116V104C41.7266 104 42.7819 104.529 43.4785 105.269L34.7421 113.496ZM40.4999 116H98.0001V104H40.4999V116ZM98.0001 116C102.944 116 106 111.777 106 107.8H94C94 106.253 95.2652 104 98.0001 104V116ZM106 107.8V90.2H94V107.8H106ZM100 96.2H104V84.2H100V96.2ZM98.0001 90.2V98.9999H110V90.2H98.0001ZM98.0001 98.9999C98.0001 102.978 101.057 107.2 106 107.2V95.1998C108.734 95.1998 110 97.4517 110 98.9999H98.0001ZM106 107.2H118V95.1998H106V107.2ZM118 107.2C122.944 107.2 126 102.977 126 98.9999H114C114 97.4524 115.265 95.1998 118 95.1998V107.2ZM126 98.9999V55.0003H114V98.9999H126ZM126 55.0026C126.002 51.0222 122.943 46.8003 118.001 46.8003V58.8003C115.266 58.8003 113.999 56.5482 114 54.9979L126 55.0026ZM12 66.6004H4.00009V78.6004H12V66.6004ZM10.0001 72.6004V63.8004H-1.99991V72.6004H10.0001ZM4.00009 69.8004H12V57.8004H4.00009V69.8004ZM6.00005 63.8004V72.6004H18V63.8004H6.00005ZM24.0001 84.2002H16.0001V96.2002H24.0001V84.2002ZM22.0001 90.2002V46.2003H10.0001V90.2002H22.0001ZM16.0001 52.2003H24.0001V40.2003H16.0001V52.2003ZM18.0001 46.2003V90.2002H30.0001V46.2003H18.0001ZM44.0001 2.80019C46.7366 2.80019 48.0002 5.05024 48.0002 6.60027H36.0002C36.0002 10.5758 39.0586 14.8002 44.0001 14.8002V2.80019ZM48.0002 6.60027C48.0002 8.1503 46.7366 10.4004 44.0001 10.4004V-1.59965C39.0586 -1.59965 36.0002 2.62473 36.0002 6.60027H48.0002ZM44.0001 10.4004H76.0001V-1.59965H44.0001V10.4004ZM76.0001 10.4004C73.2636 10.4004 72.0001 8.1503 72.0001 6.60027H84.0001C84.0001 2.62473 80.9417 -1.59965 76.0001 -1.59965V10.4004ZM72.0001 6.60027C72.0001 5.05024 73.2636 2.80019 76.0001 2.80019V14.8002C80.9417 14.8002 84.0001 10.5758 84.0001 6.60027H72.0001ZM76.0001 2.80019H44.0001V14.8002H76.0001V2.80019ZM58.0003 13.2003V26.4003H70.0003V13.2003H58.0003ZM64.0003 20.4003H56.0004V32.4003H64.0003V20.4003ZM62.0004 26.4003V13.2003H50.0004V26.4003H62.0004ZM56.0004 19.2003H64.0003V7.20028H56.0004V19.2003ZM96.0004 99.6004H41.3078V111.6H96.0004V99.6004ZM45.6762 101.487L32.3685 87.3538L23.6318 95.5799L36.9395 109.714L45.6762 101.487ZM34.0002 91.4669V44.9564H22.0002V91.4669H34.0002ZM32.2983 49.1428L46.0864 34.9868L37.4902 26.614L23.7021 40.77L32.2983 49.1428ZM41.7883 36.8004H82.2123V24.8004H41.7883V36.8004ZM77.9141 34.9868L91.7023 49.1428L100.299 40.77L86.5104 26.614L77.9141 34.9868ZM104 79.8004H100V91.8004H104V79.8004ZM106 85.8004V68.2003H94.0002V85.8004H106ZM100 74.2003H104V62.2003H100V74.2003ZM98.0003 68.2003V85.8004H110V68.2003H98.0003ZM116 90.8002H108V102.8H116V90.8002ZM108 63.2004H116V51.2004H108V63.2004ZM110 57.2004V96.8002H122V57.2004H110ZM90.0004 44.9564V105.6H102V44.9564H90.0004ZM114 96.8002V57.2004H102V96.8002H114Z" fill="black" mask="url(#path-1-inside-1_101_477)"/>
</svg>
