<svg width="45" height="89" viewBox="0 0 45 89" fill="none" xmlns="http://www.w3.org/2000/svg">
<path d="M2 2H16.2609V10H30.5217V2H43V11" stroke="black" stroke-width="4"/>
<path d="M2 2V10.4211L8.47368 17.7895V22H14.9474V17.7895H30.0526V22H36.5263V17.7895L43 10.4211" stroke="black" stroke-width="4"/>
<path d="M2 22H16.2609V30.8889H30.5217V22H43V32" stroke="black" stroke-width="4"/>
<path d="M2 22V31.2632L8.47368 39.3684V44H14.9474V39.3684H30.0526V44H36.5263V39.3684L43 31.2632" stroke="black" stroke-width="4"/>
<path d="M2 45H16.2609V53.8889H30.5217V45H43V55" stroke="black" stroke-width="4"/>
<path d="M2 45V54.2632L8.47368 62.3684V67H14.9474V62.3684H30.0526V67H36.5263V62.3684L43 54.2632" stroke="black" stroke-width="4"/>
<path d="M2 67H16.2609V74.1111H30.5217V67H43V75" stroke="black" stroke-width="4"/>
<path d="M2 67V75.4211L8.47368 82.7895V87H14.9474V82.7895H30.0526V87H36.5263V82.7895L43 75.4211" stroke="black" stroke-width="4"/>
</svg>
