<?xml version="1.0" encoding="utf-8"?>
<!-- Generator: Adobe Illustrator 23.0.3, SVG Export Plug-In . SVG Version: 6.00 Build 0)  -->
<svg version="1.1" xmlns="http://www.w3.org/2000/svg" xmlns:xlink="http://www.w3.org/1999/xlink" x="0px" y="0px"
	 viewBox="0 0 45 45" style="enable-background:new 0 0 45 45;" xml:space="preserve">
<style type="text/css">
	.st0{fill:none;stroke:#000000;stroke-width:0.5;stroke-linecap:round;stroke-linejoin:round;stroke-miterlimit:10;}
	.st1{fill:none;}
	.st2{fill:#ED1E79;}
	.st3{fill:none;stroke:#000000;stroke-linecap:round;stroke-linejoin:round;stroke-miterlimit:10;}
</style>
<g id="Слой_2">
</g>
<g id="Слой_3">
	<g>
		<polyline class="st0" points="18,31.8 15.1,31.8 7.5,31.8 5,31.8 5,39.6 18,39.6 		"/>
		<polyline class="st0" points="21.8,39.6 36.1,39.6 36.1,31.8 32.5,31.8 29.3,31.8 21.8,31.8 		"/>
		<path class="st0" d="M15.1,31.8H7.5l0.4-2.5c0.1-0.7,0.7-1.1,1.3-1.1h4.1c0.7,0,1.2,0.5,1.3,1.1L15.1,31.8z"/>
		<rect x="10" y="21.1" class="st0" width="2.8" height="7.1"/>
		<polyline class="st0" points="32.5,21.8 32.5,31.8 29.3,31.8 29.3,21.8 		"/>
		<path class="st0" d="M8.4,18.5h5.7l-0.3,1.8c-0.1,0.5-0.5,0.8-1,0.8H9.7c-0.5,0-0.9-0.3-1-0.8L8.4,18.5z"/>
		<path class="st0" d="M14.3,18.5H8.3c-0.3,0-0.5-0.2-0.5-0.5v-1.3c0-0.3,0.2-0.5,0.5-0.5h6.1c0.3,0,0.5,0.2,0.5,0.5V18
			C14.9,18.3,14.6,18.5,14.3,18.5z"/>
		<polygon class="st0" points="16.7,11.1 16.7,16.1 9.4,16.1 9.4,5.4 13.7,5.4 13.7,11.1 		"/>
		<rect x="16.7" y="11.4" class="st0" width="2.5" height="3.6"/>
		<rect x="8.2" y="3.3" class="st0" width="6.6" height="2.1"/>
		<g>
			<g>
				<circle class="st0" cx="30.9" cy="12.8" r="1.5"/>
				<circle class="st0" cx="30.9" cy="12.8" r="5.5"/>
				<circle class="st0" cx="30.9" cy="12.8" r="9.1"/>
			</g>
			<line class="st3" x1="30.9" y1="12.8" x2="36" y2="18.3"/>
		</g>
		<path class="st0" d="M21.8,31.8v-1.1v-0.4c0-0.4-0.3-0.7-0.7-0.7h-2.4c-0.4,0-0.7,0.3-0.7,0.7v0.4v1.1l0,9.2
			c0,0.4,0.3,0.7,0.7,0.7h2.4c0.4,0,0.7-0.3,0.7-0.7L21.8,31.8"/>
		<g>
			<line class="st0" x1="18" y1="30.9" x2="21.8" y2="30.9"/>
			<line class="st0" x1="21.8" y1="32.8" x2="18" y2="32.8"/>
			<line class="st0" x1="18" y1="34.7" x2="21.8" y2="34.7"/>
			<line class="st0" x1="18" y1="36.7" x2="21.8" y2="36.7"/>
			<line class="st0" x1="18" y1="38.6" x2="21.8" y2="38.6"/>
			<line class="st0" x1="18" y1="40.5" x2="21.8" y2="40.5"/>
		</g>
		<polyline class="st0" points="21.8,12.2 19.3,12.2 19.3,14.1 21.9,14.1 		"/>
		<g>
			<line class="st0" x1="6.3" y1="33.7" x2="15.4" y2="33.7"/>
			<line class="st0" x1="6.3" y1="37.7" x2="15.4" y2="37.7"/>
			<line class="st0" x1="6.3" y1="35.7" x2="15.4" y2="35.7"/>
		</g>
		<g>
			<line class="st0" x1="28.9" y1="33.7" x2="34.5" y2="33.7"/>
			<line class="st0" x1="28.9" y1="37.7" x2="34.5" y2="37.7"/>
			<line class="st0" x1="28.9" y1="35.7" x2="34.5" y2="35.7"/>
		</g>
	</g>
</g>
<g id="Слой_4">
</g>
<g id="Слой_5">
</g>
<g id="Слой_6">
</g>
</svg>
