<?xml version="1.0" encoding="utf-8"?>
<!-- Generator: Adobe Illustrator 23.0.3, SVG Export Plug-In . SVG Version: 6.00 Build 0)  -->
<svg version="1.1" xmlns="http://www.w3.org/2000/svg" xmlns:xlink="http://www.w3.org/1999/xlink" x="0px" y="0px"
	 viewBox="0 0 700 700" style="enable-background:new 0 0 700 700;" xml:space="preserve">
<style type="text/css">
	.st0{fill:none;stroke:#000000;stroke-width:3;stroke-linecap:round;stroke-linejoin:round;stroke-miterlimit:10;}
	.st1{fill:none;stroke:#333333;stroke-width:3;stroke-linecap:round;stroke-linejoin:round;stroke-miterlimit:10;}
	.st2{stroke:#333333;stroke-miterlimit:10;}
	.st3{fill:none;stroke:#333333;stroke-width:4;stroke-linecap:round;stroke-linejoin:round;stroke-miterlimit:10;}
	.st4{fill:#333333;stroke:#000000;stroke-width:3;stroke-linecap:round;stroke-linejoin:round;stroke-miterlimit:10;}
	.st5{fill:#999999;stroke:#000000;stroke-width:3;stroke-linecap:round;stroke-linejoin:round;stroke-miterlimit:10;}
	.st6{opacity:0.3;clip-path:url(#XMLID_73_);}
	.st7{opacity:0.7;clip-path:url(#XMLID_74_);fill:#C69C6D;}
	.st8{opacity:0.7;clip-path:url(#XMLID_75_);fill:#C69C6D;}
	.st9{fill:#3FA9F5;stroke:#000000;stroke-width:3;stroke-linecap:round;stroke-linejoin:round;stroke-miterlimit:10;}
	.st10{fill:#0077AE;stroke:#000000;stroke-width:3;stroke-linecap:round;stroke-linejoin:round;stroke-miterlimit:10;}
	.st11{opacity:0.3;clip-path:url(#XMLID_78_);}
	.st12{fill:#E9F8FF;stroke:#000000;stroke-width:3;stroke-linecap:round;stroke-linejoin:round;stroke-miterlimit:10;}
	.st13{opacity:0.3;clip-path:url(#XMLID_79_);}
	.st14{opacity:0.7;fill:#C69C6D;}
	.st15{fill:#C69C6D;}
	.st16{fill:none;stroke:#000000;stroke-miterlimit:10;}
	.st17{display:none;}
	.st18{display:inline;}
	
		.st19{display:inline;fill:#FFFCDE;stroke:#000000;stroke-width:3;stroke-linecap:round;stroke-linejoin:round;stroke-miterlimit:10;}
	
		.st20{display:inline;fill:#333333;stroke:#000000;stroke-width:3;stroke-linecap:round;stroke-linejoin:round;stroke-miterlimit:10;}
	
		.st21{display:inline;fill:#999999;stroke:#000000;stroke-width:3;stroke-linecap:round;stroke-linejoin:round;stroke-miterlimit:10;}
	.st22{display:inline;fill:none;stroke:#000000;stroke-width:3;stroke-linecap:round;stroke-linejoin:round;stroke-miterlimit:10;}
	.st23{opacity:0.3;clip-path:url(#XMLID_80_);}
	
		.st24{display:inline;fill:#3FA9F5;stroke:#000000;stroke-width:3;stroke-linecap:round;stroke-linejoin:round;stroke-miterlimit:10;}
	.st25{clip-path:url(#XMLID_81_);fill:#FFFCDE;}
	
		.st26{display:inline;fill:#0077AE;stroke:#000000;stroke-width:3;stroke-linecap:round;stroke-linejoin:round;stroke-miterlimit:10;}
	.st27{opacity:0.3;clip-path:url(#XMLID_83_);}
	
		.st28{display:inline;fill:#E9F8FF;stroke:#000000;stroke-width:3;stroke-linecap:round;stroke-linejoin:round;stroke-miterlimit:10;}
	.st29{opacity:0.3;clip-path:url(#XMLID_84_);}
	.st30{opacity:0.3;clip-path:url(#XMLID_85_);}
	.st31{clip-path:url(#XMLID_86_);fill:#FFFCDE;}
	.st32{opacity:0.3;clip-path:url(#XMLID_88_);}
	.st33{opacity:0.3;clip-path:url(#XMLID_89_);}
	.st34{fill:none;}
	.st35{fill:none;stroke:#000000;stroke-width:2;stroke-linecap:round;stroke-linejoin:round;stroke-miterlimit:10;}
	.st36{fill:#FFFFFF;}
	.st37{fill:#2C2E3D;}
	.st38{fill:#C7762B;}
	.st39{fill:#8F521A;}
	.st40{clip-path:url(#XMLID_90_);fill:#ACB5AC;}
	.st41{clip-path:url(#XMLID_91_);fill:#ACB5AC;}
	.st42{fill:#2C2721;}
	.st43{opacity:0.35;clip-path:url(#SVGID_2_);fill:#C7762B;}
	.st44{clip-path:url(#SVGID_2_);fill:#51525B;}
	.st45{opacity:0.35;clip-path:url(#SVGID_4_);fill:#C7762B;}
	.st46{fill:#6A2317;}
	.st47{opacity:0.35;fill:#6A2317;}
	.st48{fill:#6F2B1C;}
	.st49{fill:#2A2520;}
	.st50{fill:#FAAC86;}
	.st51{opacity:0.35;clip-path:url(#SVGID_6_);fill:#FBB282;}
	.st52{fill:#FBB282;}
	.st53{opacity:0.32;fill:#FBB282;}
	.st54{fill:#F58D6A;}
	.st55{fill:none;stroke:#6D3337;stroke-width:2;stroke-linecap:round;stroke-linejoin:round;stroke-miterlimit:10;}
	.st56{fill:#333333;}
	.st57{fill:#8C3E37;}
	.st58{opacity:0.35;clip-path:url(#XMLID_92_);fill:#4F515B;}
	.st59{opacity:0.35;fill:#51525B;}
	.st60{fill:#51525B;}
	.st61{fill:none;stroke:#3A3B46;stroke-width:2;stroke-linecap:round;stroke-miterlimit:10;}
	.st62{stroke:#000000;stroke-miterlimit:10;}
	.st63{fill:none;stroke:#000000;stroke-width:3;stroke-miterlimit:10;}
	.st64{fill:#333333;stroke:#000000;stroke-width:3;stroke-miterlimit:10;}
	.st65{fill:none;stroke:#333333;stroke-width:16;stroke-miterlimit:10;}
	.st66{clip-path:url(#XMLID_93_);fill:#ACB5AC;}
	.st67{clip-path:url(#XMLID_94_);fill:#ACB5AC;}
	.st68{opacity:0.35;clip-path:url(#SVGID_8_);fill:#C7762B;}
	.st69{clip-path:url(#SVGID_8_);fill:#51525B;}
	.st70{opacity:0.35;clip-path:url(#SVGID_10_);fill:#C7762B;}
	.st71{opacity:6.000000e-02;fill:#FFFFFF;}
	.st72{opacity:0.35;clip-path:url(#SVGID_12_);fill:#FBB282;}
	.st73{opacity:0.35;clip-path:url(#XMLID_95_);fill:#4F515B;}
	.st74{fill:none;stroke:#FFA26B;stroke-width:2;stroke-linecap:round;stroke-linejoin:round;stroke-miterlimit:10;}
	.st75{opacity:0.3;}
	.st76{fill:none;stroke:#333333;stroke-width:16;stroke-linecap:round;stroke-linejoin:round;stroke-miterlimit:10;}
	.st77{fill:none;stroke:#333333;stroke-width:10;stroke-linecap:round;stroke-linejoin:round;stroke-miterlimit:10;}
	.st78{fill:none;stroke:#333333;stroke-width:10;stroke-miterlimit:10;}
	.st79{fill:#FFFFFF;stroke:#333333;stroke-width:3;stroke-linecap:round;stroke-linejoin:round;stroke-miterlimit:10;}
	.st80{fill:#FFFFFF;stroke:#333333;stroke-width:3;stroke-miterlimit:10;}
	.st81{fill:none;stroke:#333333;stroke-width:24;stroke-miterlimit:10;}
	.st82{opacity:0.3;clip-path:url(#XMLID_97_);}
	.st83{fill:#9BD5F9;stroke:#000000;stroke-width:3;stroke-linecap:round;stroke-linejoin:round;stroke-miterlimit:10;}
	.st84{opacity:0.3;clip-path:url(#XMLID_98_);}
	.st85{opacity:0.3;clip-path:url(#XMLID_99_);}
	.st86{fill:#FFFCDE;stroke:#000000;stroke-width:3;stroke-linecap:round;stroke-linejoin:round;stroke-miterlimit:10;}
	.st87{fill:#999999;stroke:#000000;stroke-width:3;stroke-miterlimit:10;}
	.st88{opacity:0.3;clip-path:url(#XMLID_100_);}
	.st89{opacity:0.3;clip-path:url(#XMLID_102_);}
	.st90{opacity:0.3;clip-path:url(#XMLID_103_);}
	.st91{opacity:0.3;clip-path:url(#XMLID_104_);}
	.st92{opacity:0.3;clip-path:url(#XMLID_105_);}
	.st93{fill:#E2E0E0;stroke:#333333;stroke-width:10;stroke-linecap:round;stroke-linejoin:round;stroke-miterlimit:10;}
	.st94{fill:#9BD5F9;stroke:#333333;stroke-width:10;stroke-linecap:round;stroke-linejoin:round;stroke-miterlimit:10;}
	.st95{fill:#E4B357;stroke:#333333;stroke-width:10;stroke-linecap:round;stroke-linejoin:round;stroke-miterlimit:10;}
	.st96{fill:#E1495C;stroke:#333333;stroke-width:10;stroke-linecap:round;stroke-linejoin:round;stroke-miterlimit:10;}
	.st97{fill:#FFFFFF;stroke:#333333;stroke-width:10;stroke-linecap:round;stroke-linejoin:round;stroke-miterlimit:10;}
	.st98{fill:#77AEC1;stroke:#333333;stroke-width:10;stroke-linecap:round;stroke-linejoin:round;stroke-miterlimit:10;}
	.st99{fill:#559AB1;stroke:#333333;stroke-width:10;stroke-linecap:round;stroke-linejoin:round;stroke-miterlimit:10;}
	.st100{fill:#E2E0E0;stroke:#333333;stroke-width:3;stroke-linecap:round;stroke-linejoin:round;stroke-miterlimit:10;}
	.st101{opacity:0.3;fill:#ADACAC;}
	.st102{opacity:0.3;clip-path:url(#XMLID_106_);fill:#333333;}
	.st103{opacity:0.3;clip-path:url(#XMLID_107_);fill:#333333;}
	.st104{fill:#E4B357;stroke:#333333;stroke-width:3;stroke-linecap:round;stroke-linejoin:round;stroke-miterlimit:10;}
	.st105{opacity:0.3;clip-path:url(#XMLID_108_);fill:#333333;}
	.st106{opacity:0.3;clip-path:url(#XMLID_110_);}
	.st107{opacity:0.3;clip-path:url(#XMLID_111_);}
	.st108{opacity:0.3;clip-path:url(#XMLID_112_);}
	.st109{opacity:0.3;clip-path:url(#XMLID_113_);}
	.st110{fill:#E2E0E0;stroke:#333333;stroke-width:6;stroke-linecap:round;stroke-linejoin:round;stroke-miterlimit:10;}
	.st111{fill:#9BD5F9;stroke:#333333;stroke-width:6;stroke-linecap:round;stroke-linejoin:round;stroke-miterlimit:10;}
	.st112{fill:#E4B357;stroke:#333333;stroke-width:6;stroke-linecap:round;stroke-linejoin:round;stroke-miterlimit:10;}
	.st113{fill:none;stroke:#333333;stroke-width:6;stroke-linecap:round;stroke-linejoin:round;stroke-miterlimit:10;}
	.st114{opacity:0.3;clip-path:url(#XMLID_114_);fill:#333333;}
	.st115{opacity:0.3;clip-path:url(#XMLID_115_);fill:#333333;}
	.st116{opacity:0.3;clip-path:url(#XMLID_116_);fill:#333333;}
</style>
<g id="контур__x28_копия_x29_">
</g>
<g id="цвет">
</g>
<g id="_x31__монтажная_область">
	<line class="st0" x1="47.9" y1="573.8" x2="692.2" y2="573.8"/>
	<g>
		<g>
			<path d="M492.1,207.6l-5.4-4.7l-27.2,14.3c-1.1,0.6-1.7,1.5-1.7,2.4l0.4,42.5c0.1,0,0.1,0.1,0.2,0.1c0.8,0.5-1-2,2,1.8
				c0,0.1,1.5,2.3,1.5,2.4c0.9,1.8,0.8,2.4,0.9,4.1c0.1,0.9,0.1,1.8-0.2,2.7c-0.2,1.3-0.7,2.6-1.5,3.7c0,0-1.8,2-1.8,2
				c-0.3,0.2-0.6,0.4-0.9,0.6l0.2,29.6l8.9,0l-0.7-88.1L492.1,207.6z"/>
		</g>
		<path class="st4" d="M573.6,446.5c-8-11-18.9-19.8-31.5-25.4c-9.6-4.3-20.3-6.6-31.5-6.6c-6.4,0-12.6,0.8-18.5,2.2
			c-30.1,7.3-53.4,32.1-58.5,63.1c-0.7,4.1-1,8.4-1,12.7c0,43.1,34.9,78,78,78c43.1,0,78-34.9,78-78
			C588.6,475.3,583,459.4,573.6,446.5z M510.6,545.3c-29.2,0-52.8-23.7-52.8-52.8c0-29.2,23.6-52.8,52.8-52.8
			c29.2,0,52.8,23.6,52.8,52.8C563.4,521.7,539.7,545.3,510.6,545.3z"/>
		<path class="st5" d="M510.6,439.7c-29.2,0-52.8,23.6-52.8,52.8c0,29.2,23.6,52.8,52.8,52.8c29.2,0,52.8-23.7,52.8-52.8
			C563.4,463.3,539.7,439.7,510.6,439.7z M510.6,516.1c-13,0-23.6-10.6-23.6-23.6c0-13.1,10.6-23.6,23.6-23.6
			c13.1,0,23.6,10.6,23.6,23.6C534.2,505.6,523.6,516.1,510.6,516.1z"/>
		<path class="st5" d="M206.6,419.7c-29.2,0-52.8,23.6-52.8,52.8c0,29.2,23.6,52.8,52.8,52.8c29.2,0,52.8-23.7,52.8-52.8
			C259.4,443.3,235.7,419.7,206.6,419.7z M206.6,496.1c-13,0-23.6-10.6-23.6-23.6c0-13.1,10.6-23.6,23.6-23.6
			c13.1,0,23.6,10.6,23.6,23.6C230.2,485.6,219.6,496.1,206.6,496.1z"/>
		<path class="st4" d="M230.2,472.5c0,13-10.6,23.6-23.6,23.6c-13,0-23.6-10.6-23.6-23.6c0-13.1,10.6-23.6,23.6-23.6
			C219.6,448.9,230.2,459.5,230.2,472.5z"/>
		<path class="st4" d="M534.2,492.5c0,13-10.6,23.6-23.6,23.6c-13,0-23.6-10.6-23.6-23.6c0-13.1,10.6-23.6,23.6-23.6
			C523.6,468.9,534.2,479.5,534.2,492.5z"/>
		<path class="st0" d="M345.6,232.5h34.2c5.4,0,9.8,4.4,9.8,9.8v27.5c0,5.4-4.4,9.8-9.8,9.8h-26.5"/>
		<g>
			<defs>
				<polygon id="XMLID_4_" points="377,240.5 389.6,256 377,271.5 				"/>
			</defs>
			<use xlink:href="#XMLID_4_"  style="overflow:visible;fill:#3FA9F5;"/>
			<clipPath id="XMLID_73_">
				<use xlink:href="#XMLID_4_"  style="overflow:visible;"/>
			</clipPath>
			<path class="st6" d="M372.6,250l15.2,6l-1.5-13.2l-6.6-7.3c0,0-7.1-1.7-7.1,0S372.6,250,372.6,250z"/>
			
				<use xlink:href="#XMLID_4_"  style="overflow:visible;fill:none;stroke:#000000;stroke-width:3;stroke-linecap:round;stroke-linejoin:round;stroke-miterlimit:10;"/>
		</g>
		<g>
			<defs>
				<path id="XMLID_70_" d="M492.1,416.7c-30.1,7.3-53.4,32.1-58.5,63.1h-61v-46.9c0-4-1.5-7.8-4.3-10.7l-7.3-7.7l1.3-34.6h117.9
					C480.2,380.1,492.1,416.7,492.1,416.7z"/>
			</defs>
			<use xlink:href="#XMLID_70_"  style="overflow:visible;fill:#3FA9F5;"/>
			<clipPath id="XMLID_74_">
				<use xlink:href="#XMLID_70_"  style="overflow:visible;"/>
			</clipPath>
			<path class="st7" d="M489.8,385.2c-3-0.1-6.2-0.3-9.4-0.3c-3.2-0.1-6.4,0-9.4,0c-1.3,0.3-2.2,1.1-3,2c-5.1-0.2-10.4,1.7-13.8,5.5
				c-2.2,2.5-3.7,5.5-5.3,8.4c-1.8-0.8-3.4-2-4.5-3.6c-1.6,5.7-6.4,9.7-12,11.5c-2.8-1.9-5.2-4.7-8.5-4.7c-2.4,0-4.3,1.6-6.1,3.3
				c-0.7-0.4-1.3-0.8-1.9-1.4c-1.9-1.6-3.5-3.7-5.7-4.9c-2.2-1.2-5.3-1.4-6.9,0.6c-0.8,1.9-1.4,3.9-2,5.9
				c-11.9-3.5-7.5,11.3-7.9,16.7c-4.6-0.2-9.3-0.4-13.9-0.6c1,3,2,5.9,3,8.9c-1.8,1-3.4,2.4-4.1,4.4c-1.3,3.5,0,7,2.3,10.2
				c-6.4,2.2-12.8,4.5-19.1,6.7c8.5,4.1,16.2,3.4,24.5,3.6c-3.6,5.6-6.7,11.5-9.2,17.6c11.7-3.7,23.5-7.3,35.2-11
				c2.4-0.7,4.8-1.5,6.6-3.3c3.1-3.1,2.9-7.8,2.1-12.3c2.1-3,4.2-6,6.8-8.7c0.5,0.1,1,0.3,1.4,0.4c7.4,1.8,14.5-3.6,19.5-9.4
				c1.4-1.6,2.7-3.2,4.1-4.8c0.4-0.1,0.9-0.3,1.3-0.4c9-2.2,19.3-2.9,25.7-9.5c0.9,0.6,2.5,1.5,4.5,1.9c3.7,0.7,6.7-0.5,7.8-1
				c-0.4-3.7-0.8-7.6-1.2-11.6C490.2,398.5,489.9,391.7,489.8,385.2z"/>
			
				<use xlink:href="#XMLID_70_"  style="overflow:visible;fill:none;stroke:#000000;stroke-width:3;stroke-linecap:round;stroke-linejoin:round;stroke-miterlimit:10;"/>
		</g>
		<g>
			<defs>
				<path id="XMLID_71_" d="M368.3,422.2l-7.3-7.7l1.3-34.6l1.3-36.4l-18.9-118H177.6l-3.1,52.8c2.2-0.1,4.4-0.2,6.6-0.3l2.5-43.4
					h71v104h-77l2.3-40.2c-2.2,0.1-4.4,0.2-6.6,0.3l-2.8,47l-34.9,21.9l11.6,24.6c16.6-12.3,37.2-19.6,59.4-19.6
					c55.2,0,100,44.8,100,100c0,2.4-0.1,4.9-0.3,7.3h66.3v-46.9C372.6,428.9,371,425.1,368.3,422.2z M353.6,414.5h-30l-62-65
					l-0.1-114l77.1,1l15,106V414.5z"/>
			</defs>
			<use xlink:href="#XMLID_71_"  style="overflow:visible;fill:#3FA9F5;"/>
			<clipPath id="XMLID_75_">
				<use xlink:href="#XMLID_71_"  style="overflow:visible;"/>
			</clipPath>
			<path class="st8" d="M305.7,355.3c-3.4-1.2-6.9-2.5-10.5-3.7c-3.6-1.2-7.2-2.3-10.6-3.4c-1.6-0.2-3,0.2-4.3,0.8
				c-5.7-2-12.4-2.2-18,0c-3.6,1.4-6.5,3.7-9.6,5.7c-1.7-1.3-3-3-3.5-4.9c-4.2,4.6-11.4,6.5-18.5,6.1c-2.4-2.7-3.8-6.2-7.6-7.3
				c-2.7-0.8-5.5-0.1-8.4,0.8c-0.6-0.6-1.1-1.2-1.6-1.9c-1.5-2.2-2.4-4.6-4.3-6.5c-1.9-1.9-5.4-3.2-8-1.9c-1.7,1.5-3.3,3-4.8,4.7
				c-12-7.5-13.4,7.5-16.1,12.3c-5.2-1.9-10.3-3.7-15.5-5.6c-0.2,3.1-0.3,6.1-0.5,9.2c-2.5,0.3-4.8,0.9-6.6,2.5
				c-2.9,2.7-3,6.4-1.8,10.1c-8.2-0.3-16.4-0.5-24.6-0.8c7.8,6.7,16.8,8.9,26.1,12.2c-6.5,3.7-12.5,8-18,12.6
				c14.9,0.9,29.7,1.9,44.6,2.8c3,0.2,6.1,0.4,8.9-0.6c4.9-1.7,6.6-6,7.7-10.4c3.7-1.9,7.4-3.9,11.5-5.5c0.5,0.3,1,0.6,1.4,0.8
				c7.5,4.3,18,2,26.1-1.4c2.2-0.9,4.5-1.9,6.7-2.9c0.5,0,1.1,0.1,1.6,0.1c11.2,1.2,23.1,4.4,33.2,0.7c0.8,0.9,2.1,2.3,4.2,3.4
				c3.8,2,7.7,2,9.2,1.9c1.1-3.6,2.3-7.2,3.7-10.9C300.4,367.4,303,361.1,305.7,355.3z"/>
			<path class="st8" d="M355.7,215.3c-3.4-1.2-6.9-2.5-10.5-3.7c-3.6-1.2-7.2-2.3-10.6-3.4c-1.6-0.2-3,0.2-4.3,0.8
				c-5.7-2-12.4-2.2-18,0c-3.6,1.4-6.5,3.7-9.6,5.7c-1.7-1.3-3-3-3.5-4.9c-4.2,4.6-11.4,6.5-18.5,6.1c-2.4-2.7-3.8-6.2-7.6-7.3
				c-2.7-0.8-5.5-0.1-8.4,0.8c-0.6-0.6-1.1-1.2-1.6-1.9c-1.5-2.2-2.4-4.6-4.3-6.5c-1.9-1.9-5.4-3.2-8-1.9c-1.7,1.5-3.3,3-4.8,4.7
				c-12-7.5-13.4,7.5-16.1,12.3c-5.2-1.9-10.3-3.7-15.5-5.6c-0.2,3.1-0.3,6.1-0.5,9.2c-2.5,0.3-4.8,0.9-6.6,2.5
				c-2.9,2.7-3,6.4-1.8,10.1c-8.2-0.3-16.4-0.5-24.6-0.8c7.8,6.7,16.8,8.9,26.1,12.2c-6.5,3.7-12.5,8-18,12.6
				c14.9,0.9,29.7,1.9,44.6,2.8c3,0.2,6.1,0.4,8.9-0.6c4.9-1.7,6.6-6,7.7-10.4c3.7-1.9,7.4-3.9,11.5-5.5c0.5,0.3,1,0.6,1.4,0.8
				c7.5,4.3,18,2,26.1-1.4c2.2-0.9,4.5-1.9,6.7-2.9c0.5,0,1.1,0.1,1.6,0.1c11.2,1.2,23.1,4.4,33.2,0.7c0.8,0.9,2.1,2.3,4.2,3.4
				c3.8,2,7.7,2,9.2,1.9c1.1-3.6,2.3-7.2,3.7-10.9C350.4,227.4,353,221.1,355.7,215.3z"/>
			
				<use xlink:href="#XMLID_71_"  style="overflow:visible;fill:none;stroke:#000000;stroke-width:3;stroke-linecap:round;stroke-linejoin:round;stroke-miterlimit:10;"/>
		</g>
		<path class="st9" d="M338.6,236.5l-77.1-1l0.1,114l62,65h30v-72L338.6,236.5z M268.6,246.5h65l10,92h-75V246.5z M345.6,403.4
			c0,1.7-1.4,3.1-3.1,3.1h-16.1c-0.9,0-1.8-0.4-2.4-1.1l-33.6-40.3c-1.7-2-0.3-5.1,2.4-5.1h49.7c1.7,0,3.1,1.4,3.1,3.1V403.4z"/>
		<g>
			<defs>
				<polygon id="XMLID_7_" points="343.6,338.5 268.6,338.5 268.6,246.5 333.6,246.5 				"/>
			</defs>
			<use xlink:href="#XMLID_7_"  style="overflow:visible;fill:#E9F8FF;"/>
			<clipPath id="XMLID_76_">
				<use xlink:href="#XMLID_7_"  style="overflow:visible;"/>
			</clipPath>
			
				<use xlink:href="#XMLID_7_"  style="overflow:visible;fill:none;stroke:#000000;stroke-width:3;stroke-linecap:round;stroke-linejoin:round;stroke-miterlimit:10;"/>
		</g>
		<g>
			<defs>
				<polygon id="XMLID_8_" points="254.6,234.5 254.6,338.5 177.6,338.5 183.6,234.5 				"/>
			</defs>
			<use xlink:href="#XMLID_8_"  style="overflow:visible;fill:#E9F8FF;"/>
			<clipPath id="XMLID_77_">
				<use xlink:href="#XMLID_8_"  style="overflow:visible;"/>
			</clipPath>
			
				<use xlink:href="#XMLID_8_"  style="overflow:visible;fill:none;stroke:#000000;stroke-width:3;stroke-linecap:round;stroke-linejoin:round;stroke-miterlimit:10;"/>
		</g>
		<polygon id="XMLID_5_" class="st10" points="344.7,225.5 177.6,225.5 190.6,218.5 343.6,218.5 		"/>
		<g>
			<defs>
				<path id="XMLID_2_" d="M542,421.1c-9.6-4.3-20.3-6.6-31.5-6.6c-6.4,0-12.6,0.8-18.5,2.2c0,0-11.9-36.6-11.9-36.8H362.2l1.1-29.5
					l0.3-7l80.7,4.9l35.4,2.1l50,3l8.3,44.7l2.7,14.6L542,421.1z"/>
			</defs>
			<use xlink:href="#XMLID_2_"  style="overflow:visible;fill:#3FA9F5;"/>
			<clipPath id="XMLID_78_">
				<use xlink:href="#XMLID_2_"  style="overflow:visible;"/>
			</clipPath>
			<path class="st11" d="M361,352.6l175.1,10c0,0-1-15-5.1-15c-4.1,0-171.9-9.1-171.9-9.1L361,352.6z"/>
			
				<use xlink:href="#XMLID_2_"  style="overflow:visible;fill:none;stroke:#000000;stroke-width:3;stroke-linecap:round;stroke-linejoin:round;stroke-miterlimit:10;"/>
		</g>
		<path class="st12" d="M345.6,363.1v40.3c0,1.7-1.4,3.1-3.1,3.1h-16.1c-0.9,0-1.8-0.4-2.4-1.1l-33.6-40.3c-1.7-2-0.3-5.1,2.4-5.1
			h49.7C344.2,360,345.6,361.4,345.6,363.1z"/>
		<g>
			<path d="M281.7,387.6c-1.3,1.3-3,2-4.7,2c-1.6,0-3.3-0.6-4.5-1.8l-20.1-19.3H136.1c-3.6,0-6.5-2.9-6.5-6.5c0-3.6,2.9-6.5,6.5-6.5
				h119c1.7,0,3.3,0.6,4.5,1.8l22,21.2C284.1,380.9,284.2,385,281.7,387.6z"/>
		</g>
		<g>
			<defs>
				<polygon id="XMLID_3_" points="479.6,350.5 444.2,348.4 447.5,325 448.5,318 475,318 				"/>
			</defs>
			<use xlink:href="#XMLID_3_"  style="overflow:visible;fill:#3FA9F5;"/>
			<clipPath id="XMLID_79_">
				<use xlink:href="#XMLID_3_"  style="overflow:visible;"/>
			</clipPath>
			<path class="st13" d="M468.6,326.3l4.3,26.3c0,0,10.7,1.9,10.7,0s-7.1-40.9-7.1-40.9l-32.2,1.3c0,0-3.1,10.5-1.8,10.5
				C443.7,323.5,468.6,326.3,468.6,326.3z"/>
			
				<use xlink:href="#XMLID_3_"  style="overflow:visible;fill:none;stroke:#000000;stroke-width:3;stroke-linecap:round;stroke-linejoin:round;stroke-miterlimit:10;"/>
		</g>
		<rect x="456" y="305.6" class="st9" width="12.6" height="12.5"/>
		<path d="M353.1,418.2h-31.2c-0.8,0-1.5,0.7-1.5,1.5v105.6c0,0.8,0.7,1.5,1.5,1.5h31.2c0.8,0,1.5-0.7,1.5-1.5V419.7
			C354.6,418.9,353.9,418.2,353.1,418.2z M351.6,421.2v20.4h-28.2v-20.4H351.6z M323.4,515.8v-27.6h28.2v27.6H323.4z M323.4,478.7
			v-27.6h28.2v27.6H323.4z"/>
		<line class="st0" x1="381.2" y1="411.6" x2="385.7" y2="439.7"/>
		<line class="st0" x1="389.6" y1="411.6" x2="394" y2="439.7"/>
		<line class="st0" x1="397.9" y1="411.6" x2="402.4" y2="439.7"/>
		<line class="st0" x1="406.3" y1="411.6" x2="410.8" y2="439.7"/>
		<line class="st0" x1="414.7" y1="411.6" x2="419.1" y2="439.7"/>
		<g>
			<path d="M552.6,406.7c-0.1-1.1-0.1-2.3,0.2-3.3c-9.3-4.3-19.2-7.2-29.5-8.4c-1.1,2-2.9,3.5-4.8,4.6c-2.3,1.2-5.6,1.2-8,0.4
				c-2.8-1-4.4-2.9-5.9-5.4c-8.8,0.6-17.3,2.4-25.3,5.2c2.2,5.3-0.2,11-5.2,13.6c-4.8,2.5-11.3,0.1-13.7-4.7
				c-5.1,3.1-9.9,6.7-14.3,10.6c0.8,1.7,1.2,3.6,1.1,5.4c-0.3,6-5.9,9.5-11.4,9.5h-3.2c-1.5,2-2.9,4.1-4.3,6.3
				c0.4,1.3,0.5,2.7,0.5,4.2c0,0.4,0,0.9,0,1.3c0.1,1.2,0.3,2.4,0.6,3.6c0.8,2.5-0.4,5.6-1.7,7.7c-1.5,2.4-4.2,3.8-6.9,4.4
				c-0.8,0.2-1.7,0.2-2.6,0.1c-3.2,9.6-4.9,19.9-4.9,30.6c0,3.6,2.9,6.5,6.5,6.5s6.5-2.9,6.5-6.5c0-46.9,38.2-85.1,85.1-85.1
				c14.4,0,28.2,3.5,40.6,10.3C552.1,413.7,552.1,410.2,552.6,406.7z"/>
		</g>
		<path class="st4" d="M206.6,372.5c-22.3,0-42.8,7.3-59.4,19.6c-24.6,18.2-40.6,47.5-40.6,80.4c0,55.2,44.8,100,100,100
			c52.8,0,96-40.9,99.7-92.7c0.2-2.4,0.3-4.8,0.3-7.3C306.6,417.3,261.8,372.5,206.6,372.5z M206.6,525.3
			c-29.2,0-52.8-23.7-52.8-52.8c0-29.2,23.6-52.8,52.8-52.8c29.2,0,52.8,23.6,52.8,52.8C259.4,501.7,235.7,525.3,206.6,525.3z"/>
	</g>
	<polyline class="st16" points="218.4,262.3 234.5,269.1 221.7,283.3 226.4,302.6 	"/>
	<polyline class="st16" points="233.9,291.6 243.1,306.5 224.5,310.7 217.2,329.2 	"/>
</g>
<g id="_x32__монтажная_область">
	<g id="Слой_5">
	</g>
</g>
<g id="_x33__монтажная_облатсть">
</g>
<g id="_x34__монтажная_область">
</g>
</svg>
