<?xml version="1.0" encoding="utf-8"?>
<!-- Generator: Adobe Illustrator 23.0.3, SVG Export Plug-In . SVG Version: 6.00 Build 0)  -->
<svg version="1.1" xmlns="http://www.w3.org/2000/svg" xmlns:xlink="http://www.w3.org/1999/xlink" x="0px" y="0px"
	 viewBox="0 0 700 700" style="enable-background:new 0 0 700 700;" xml:space="preserve">
<style type="text/css">
	.st0{fill:none;stroke:#000000;stroke-width:3;stroke-linecap:round;stroke-linejoin:round;stroke-miterlimit:10;}
	.st1{fill:none;stroke:#333333;stroke-width:3;stroke-linecap:round;stroke-linejoin:round;stroke-miterlimit:10;}
	.st2{stroke:#333333;stroke-miterlimit:10;}
	.st3{fill:none;stroke:#333333;stroke-width:4;stroke-linecap:round;stroke-linejoin:round;stroke-miterlimit:10;}
	.st4{fill:#333333;stroke:#000000;stroke-width:3;stroke-linecap:round;stroke-linejoin:round;stroke-miterlimit:10;}
	.st5{fill:#999999;stroke:#000000;stroke-width:3;stroke-linecap:round;stroke-linejoin:round;stroke-miterlimit:10;}
	.st6{opacity:0.3;clip-path:url(#XMLID_73_);}
	.st7{opacity:0.7;clip-path:url(#XMLID_74_);fill:#C69C6D;}
	.st8{opacity:0.7;clip-path:url(#XMLID_75_);fill:#C69C6D;}
	.st9{fill:#3FA9F5;stroke:#000000;stroke-width:3;stroke-linecap:round;stroke-linejoin:round;stroke-miterlimit:10;}
	.st10{fill:#0077AE;stroke:#000000;stroke-width:3;stroke-linecap:round;stroke-linejoin:round;stroke-miterlimit:10;}
	.st11{opacity:0.3;clip-path:url(#XMLID_78_);}
	.st12{fill:#E9F8FF;stroke:#000000;stroke-width:3;stroke-linecap:round;stroke-linejoin:round;stroke-miterlimit:10;}
	.st13{opacity:0.3;clip-path:url(#XMLID_79_);}
	.st14{opacity:0.7;fill:#C69C6D;}
	.st15{fill:#C69C6D;}
	.st16{fill:none;stroke:#000000;stroke-miterlimit:10;}
	.st17{display:none;}
	.st18{display:inline;}
	
		.st19{display:inline;fill:#FFFCDE;stroke:#000000;stroke-width:3;stroke-linecap:round;stroke-linejoin:round;stroke-miterlimit:10;}
	
		.st20{display:inline;fill:#333333;stroke:#000000;stroke-width:3;stroke-linecap:round;stroke-linejoin:round;stroke-miterlimit:10;}
	
		.st21{display:inline;fill:#999999;stroke:#000000;stroke-width:3;stroke-linecap:round;stroke-linejoin:round;stroke-miterlimit:10;}
	.st22{display:inline;fill:none;stroke:#000000;stroke-width:3;stroke-linecap:round;stroke-linejoin:round;stroke-miterlimit:10;}
	.st23{opacity:0.3;clip-path:url(#XMLID_80_);}
	
		.st24{display:inline;fill:#3FA9F5;stroke:#000000;stroke-width:3;stroke-linecap:round;stroke-linejoin:round;stroke-miterlimit:10;}
	.st25{clip-path:url(#XMLID_81_);fill:#FFFCDE;}
	
		.st26{display:inline;fill:#0077AE;stroke:#000000;stroke-width:3;stroke-linecap:round;stroke-linejoin:round;stroke-miterlimit:10;}
	.st27{opacity:0.3;clip-path:url(#XMLID_83_);}
	
		.st28{display:inline;fill:#E9F8FF;stroke:#000000;stroke-width:3;stroke-linecap:round;stroke-linejoin:round;stroke-miterlimit:10;}
	.st29{opacity:0.3;clip-path:url(#XMLID_84_);}
	.st30{opacity:0.3;clip-path:url(#XMLID_85_);}
	.st31{clip-path:url(#XMLID_86_);fill:#FFFCDE;}
	.st32{opacity:0.3;clip-path:url(#XMLID_88_);}
	.st33{opacity:0.3;clip-path:url(#XMLID_89_);}
	.st34{fill:none;}
	.st35{fill:none;stroke:#000000;stroke-width:2;stroke-linecap:round;stroke-linejoin:round;stroke-miterlimit:10;}
	.st36{fill:#FFFFFF;}
	.st37{fill:#2C2E3D;}
	.st38{fill:#C7762B;}
	.st39{fill:#8F521A;}
	.st40{clip-path:url(#XMLID_90_);fill:#ACB5AC;}
	.st41{clip-path:url(#XMLID_91_);fill:#ACB5AC;}
	.st42{fill:#2C2721;}
	.st43{opacity:0.35;clip-path:url(#SVGID_2_);fill:#C7762B;}
	.st44{clip-path:url(#SVGID_2_);fill:#51525B;}
	.st45{opacity:0.35;clip-path:url(#SVGID_4_);fill:#C7762B;}
	.st46{fill:#6A2317;}
	.st47{opacity:0.35;fill:#6A2317;}
	.st48{fill:#6F2B1C;}
	.st49{fill:#2A2520;}
	.st50{fill:#FAAC86;}
	.st51{opacity:0.35;clip-path:url(#SVGID_6_);fill:#FBB282;}
	.st52{fill:#FBB282;}
	.st53{opacity:0.32;fill:#FBB282;}
	.st54{fill:#F58D6A;}
	.st55{fill:none;stroke:#6D3337;stroke-width:2;stroke-linecap:round;stroke-linejoin:round;stroke-miterlimit:10;}
	.st56{fill:#333333;}
	.st57{fill:#8C3E37;}
	.st58{opacity:0.35;clip-path:url(#XMLID_92_);fill:#4F515B;}
	.st59{opacity:0.35;fill:#51525B;}
	.st60{fill:#51525B;}
	.st61{fill:none;stroke:#3A3B46;stroke-width:2;stroke-linecap:round;stroke-miterlimit:10;}
	.st62{stroke:#000000;stroke-miterlimit:10;}
	.st63{fill:none;stroke:#000000;stroke-width:3;stroke-miterlimit:10;}
	.st64{fill:#333333;stroke:#000000;stroke-width:3;stroke-miterlimit:10;}
	.st65{fill:none;stroke:#333333;stroke-width:16;stroke-miterlimit:10;}
	.st66{clip-path:url(#XMLID_93_);fill:#ACB5AC;}
	.st67{clip-path:url(#XMLID_94_);fill:#ACB5AC;}
	.st68{opacity:0.35;clip-path:url(#SVGID_8_);fill:#C7762B;}
	.st69{clip-path:url(#SVGID_8_);fill:#51525B;}
	.st70{opacity:0.35;clip-path:url(#SVGID_10_);fill:#C7762B;}
	.st71{opacity:6.000000e-02;fill:#FFFFFF;}
	.st72{opacity:0.35;clip-path:url(#SVGID_12_);fill:#FBB282;}
	.st73{opacity:0.35;clip-path:url(#XMLID_95_);fill:#4F515B;}
	.st74{fill:none;stroke:#FFA26B;stroke-width:2;stroke-linecap:round;stroke-linejoin:round;stroke-miterlimit:10;}
	.st75{opacity:0.3;}
	.st76{fill:none;stroke:#333333;stroke-width:16;stroke-linecap:round;stroke-linejoin:round;stroke-miterlimit:10;}
	.st77{fill:none;stroke:#333333;stroke-width:10;stroke-linecap:round;stroke-linejoin:round;stroke-miterlimit:10;}
	.st78{fill:none;stroke:#333333;stroke-width:10;stroke-miterlimit:10;}
	.st79{fill:#FFFFFF;stroke:#333333;stroke-width:3;stroke-linecap:round;stroke-linejoin:round;stroke-miterlimit:10;}
	.st80{fill:#FFFFFF;stroke:#333333;stroke-width:3;stroke-miterlimit:10;}
	.st81{fill:none;stroke:#333333;stroke-width:24;stroke-miterlimit:10;}
	.st82{opacity:0.3;clip-path:url(#XMLID_97_);}
	.st83{fill:#9BD5F9;stroke:#000000;stroke-width:3;stroke-linecap:round;stroke-linejoin:round;stroke-miterlimit:10;}
	.st84{opacity:0.3;clip-path:url(#XMLID_98_);}
	.st85{opacity:0.3;clip-path:url(#XMLID_99_);}
	.st86{fill:#FFFCDE;stroke:#000000;stroke-width:3;stroke-linecap:round;stroke-linejoin:round;stroke-miterlimit:10;}
	.st87{fill:#999999;stroke:#000000;stroke-width:3;stroke-miterlimit:10;}
	.st88{opacity:0.3;clip-path:url(#XMLID_100_);}
	.st89{opacity:0.3;clip-path:url(#XMLID_102_);}
	.st90{opacity:0.3;clip-path:url(#XMLID_103_);}
	.st91{opacity:0.3;clip-path:url(#XMLID_104_);}
	.st92{opacity:0.3;clip-path:url(#XMLID_105_);}
	.st93{fill:#E2E0E0;stroke:#333333;stroke-width:10;stroke-linecap:round;stroke-linejoin:round;stroke-miterlimit:10;}
	.st94{fill:#9BD5F9;stroke:#333333;stroke-width:10;stroke-linecap:round;stroke-linejoin:round;stroke-miterlimit:10;}
	.st95{fill:#E4B357;stroke:#333333;stroke-width:10;stroke-linecap:round;stroke-linejoin:round;stroke-miterlimit:10;}
	.st96{fill:#E1495C;stroke:#333333;stroke-width:10;stroke-linecap:round;stroke-linejoin:round;stroke-miterlimit:10;}
	.st97{fill:#FFFFFF;stroke:#333333;stroke-width:10;stroke-linecap:round;stroke-linejoin:round;stroke-miterlimit:10;}
	.st98{fill:#77AEC1;stroke:#333333;stroke-width:10;stroke-linecap:round;stroke-linejoin:round;stroke-miterlimit:10;}
	.st99{fill:#559AB1;stroke:#333333;stroke-width:10;stroke-linecap:round;stroke-linejoin:round;stroke-miterlimit:10;}
	.st100{fill:#E2E0E0;stroke:#333333;stroke-width:3;stroke-linecap:round;stroke-linejoin:round;stroke-miterlimit:10;}
	.st101{opacity:0.3;fill:#ADACAC;}
	.st102{opacity:0.3;clip-path:url(#XMLID_106_);fill:#333333;}
	.st103{opacity:0.3;clip-path:url(#XMLID_107_);fill:#333333;}
	.st104{fill:#E4B357;stroke:#333333;stroke-width:3;stroke-linecap:round;stroke-linejoin:round;stroke-miterlimit:10;}
	.st105{opacity:0.3;clip-path:url(#XMLID_108_);fill:#333333;}
	.st106{opacity:0.3;clip-path:url(#XMLID_110_);}
	.st107{opacity:0.3;clip-path:url(#XMLID_111_);}
	.st108{opacity:0.3;clip-path:url(#XMLID_112_);}
	.st109{opacity:0.3;clip-path:url(#XMLID_113_);}
	.st110{fill:#E2E0E0;stroke:#333333;stroke-width:6;stroke-linecap:round;stroke-linejoin:round;stroke-miterlimit:10;}
	.st111{fill:#9BD5F9;stroke:#333333;stroke-width:6;stroke-linecap:round;stroke-linejoin:round;stroke-miterlimit:10;}
	.st112{fill:#E4B357;stroke:#333333;stroke-width:6;stroke-linecap:round;stroke-linejoin:round;stroke-miterlimit:10;}
	.st113{fill:none;stroke:#333333;stroke-width:6;stroke-linecap:round;stroke-linejoin:round;stroke-miterlimit:10;}
	.st114{opacity:0.3;clip-path:url(#XMLID_114_);fill:#333333;}
	.st115{opacity:0.3;clip-path:url(#XMLID_115_);fill:#333333;}
	.st116{opacity:0.3;clip-path:url(#XMLID_116_);fill:#333333;}
</style>
<g id="контур__x28_копия_x29_">
</g>
<g id="цвет">
</g>
<g id="_x31__монтажная_область">
</g>
<g id="_x32__монтажная_область">
	<g id="Слой_5">
	</g>
</g>
<g id="_x33__монтажная_облатсть">
	<g>
		<polygon class="st56" points="83.3,262.1 95.1,158.4 179,220.5 		"/>
		<path class="st76" d="M282.9,605.6c-34.8-10.1-66.9-27.3-94.8-51c-2-1-16-13-20.7-17.3"/>
		<path class="st65" d="M615.1,403.4c-12.9,63.2-46.9,119.2-99.9,159.2c-29.7,22-61.5,36.2-95.5,44.8"/>
		<path class="st65" d="M404.2,89.2c64,10.4,120,47.4,162,99.4c4,5,7,10,11,15c7,11,13,21,18,32c8.2,20.9,16.4,41.8,20.5,63.4"/>
		<path class="st65" d="M124.6,204.6c36.6-64,104.6-106,178-116"/>
	</g>
	<g>
		<path class="st79" d="M431,647.5c0-45.1-34.1-81.7-76.2-81.7s-76.2,36.6-76.2,81.7H431z"/>
		<line class="st79" x1="316.7" y1="576.7" x2="323.2" y2="589"/>
		<line class="st79" x1="354.8" y1="565.8" x2="354.8" y2="579.9"/>
		<line class="st79" x1="392.9" y1="576.7" x2="386.3" y2="589"/>
		<line class="st79" x1="374.1" y1="611.6" x2="355.4" y2="646.2"/>
	</g>
	<g>
		<g>
			<polygon class="st79" points="413.1,124.6 285.2,124.6 294.3,36.7 404,36.7 			"/>
		</g>
		<g>
			<line class="st79" x1="302.5" y1="68.7" x2="347.7" y2="68.7"/>
			<line class="st79" x1="325.1" y1="83.5" x2="347.7" y2="83.5"/>
			<line class="st79" x1="302.5" y1="83.5" x2="312" y2="83.5"/>
			<line class="st79" x1="302.5" y1="98.3" x2="347.7" y2="98.3"/>
		</g>
		<polyline class="st79" points="391.5,65 383,83.5 375.1,74.3 362.5,98.3 399,98.3 		"/>
		<polygon class="st79" points="421.9,142.7 276.4,142.7 285.2,124.6 413.1,124.6 		"/>
	</g>
	<g>
		<path class="st80" d="M676.2,362.4v-24.7h-17.2c-0.9-3.1-2.1-6-3.6-8.7l12.2-12.2L650,299.2l-12.2,12.2c-2.7-1.5-5.7-2.7-8.7-3.6
			v-17.2h-24.7v17.2c-3.1,0.9-6,2.1-8.7,3.6l-12.2-12.2L566,316.7l12.2,12.2c-1.5,2.7-2.7,5.7-3.6,8.7h-17.2v24.7h17.2
			c0.9,3.1,2.1,6,3.6,8.7L566,383.3l17.5,17.5l12.2-12.2c2.7,1.5,5.7,2.7,8.7,3.6v17.2h24.7v-17.2c3.1-0.9,6-2.1,8.7-3.6l12.2,12.2
			l17.5-17.5l-12.2-12.2c1.5-2.7,2.7-5.7,3.6-8.7H676.2z M616.7,368.1c-10,0-18.1-8.1-18.1-18.1s8.1-18.1,18.1-18.1
			c10,0,18.1,8.1,18.1,18.1S626.7,368.1,616.7,368.1z"/>
	</g>
	<g>
		<path class="st9" d="M446.2,206.2c1.5-21.9-6.1-23.9-6.1-23.9h-83.8h-83.8c0,0-7.6,2-6.1,23.9"/>
		<path class="st9" d="M435.5,215.5c9.7,0,11.6-4.5,10.7-9.3c-1.3-7.4-7.9-12.6-15.4-12.6H281.7c-7.5,0-14.1,5.3-15.4,12.6
			c-0.8,4.9,1.1,9.3,10.7,9.3l-2.4,15.2l-8.5,54.8h180.2l-8.5-54.8L435.5,215.5z M314.3,285.5c0,0,3.2-2.8,10.1-5.6
			c6.9-2.8,17.3-5.6,31.9-5.6s25,2.8,31.9,5.6c6.9,2.8,10.1,5.6,10.1,5.6H314.3z"/>
		<path class="st64" d="M272,439c0,2.2,0,4.4,0,6.5c-0.2,28.4-2.2,54.2-5.1,76.8c-0.6,4.7-4.3,8.2-8.7,8.2h-41.6
			c-4.3,0-7.9-3.3-8.7-7.9c-4-24-7-53.1-6.6-86.2c0.3-28.6,3-54,6.6-75.5h59c0,0.1,0,0.3,0.1,0.4c2.8,21.8,4.8,46.3,5.1,73.2
			C272,436.1,272,437.6,272,439z"/>
		<g>
			<defs>
				<path id="XMLID_47_" d="M504.7,522.7c-0.8,4.6-4.4,7.9-8.7,7.9h-41.7c-4.4,0-8.1-3.5-8.7-8.2c-2.9-22.6-5-48.4-5.1-76.8V439
					c0-1.5,0-2.9,0-4.4c0.3-26.9,2.3-51.4,5.1-73.2c0-0.1,0-0.3,0.1-0.4h42.7h16.3c3.6,21.5,6.3,47,6.6,75.5
					C511.7,469.6,508.7,498.7,504.7,522.7z"/>
			</defs>
			<use xlink:href="#XMLID_47_"  style="overflow:visible;fill:#333333;"/>
			<clipPath id="XMLID_73_">
				<use xlink:href="#XMLID_47_"  style="overflow:visible;"/>
			</clipPath>
			<use xlink:href="#XMLID_47_"  style="overflow:visible;fill:none;stroke:#000000;stroke-width:3;stroke-miterlimit:10;"/>
		</g>
		<g>
			<defs>
				<path id="XMLID_46_" d="M256.4,245.6v38.9c0,3.4-2.7,6.1-6.1,6.1h-8.6c-3.3,0-6.1-2.7-6.1-6.1v-38.9c0-3.4,2.7-6.1,6.1-6.1h8.6
					C253.7,239.5,256.4,242.2,256.4,245.6z"/>
			</defs>
			<use xlink:href="#XMLID_46_"  style="overflow:visible;fill:#9BD5F9;"/>
			<clipPath id="XMLID_74_">
				<use xlink:href="#XMLID_46_"  style="overflow:visible;"/>
			</clipPath>
			<rect x="231.4" y="230.7" style="opacity:0.3;clip-path:url(#XMLID_74_);" width="11.2" height="66.3"/>
			<use xlink:href="#XMLID_46_"  style="overflow:visible;fill:none;stroke:#000000;stroke-width:3;stroke-miterlimit:10;"/>
		</g>
		<path class="st63" d="M274.7,230.7c-9.7,2.3-19.3,6.5-29,8.8"/>
		<line class="st63" x1="246" y1="290.6" x2="269.5" y2="302.6"/>
		<g>
			<polygon class="st9" points="315.1,314.9 274.1,314.9 266.2,285.5 314.3,285.5 314.3,305.4 			"/>
			<polygon class="st9" points="446.4,285.5 441.6,303.4 438.5,314.9 397.5,314.9 398.2,305.4 398.2,285.5 			"/>
		</g>
		<polygon class="st83" points="345.7,395.3 334.9,395.3 331.2,361 326.3,314.9 340.2,314.9 343.3,361 		"/>
		<polygon class="st9" points="398.2,305.4 397.5,314.9 315.1,314.9 314.3,305.4 		"/>
		<g>
			<defs>
				<path id="XMLID_45_" d="M476.9,245.6v38.9c0,3.4-2.7,6.1-6.1,6.1h-8.6c-3.3,0-6.1-2.7-6.1-6.1v-38.9c0-3.4,2.7-6.1,6.1-6.1h8.6
					C474.2,239.5,476.9,242.2,476.9,245.6z"/>
			</defs>
			<use xlink:href="#XMLID_45_"  style="overflow:visible;fill:#9BD5F9;"/>
			<clipPath id="XMLID_75_">
				<use xlink:href="#XMLID_45_"  style="overflow:visible;"/>
			</clipPath>
			<path style="opacity:0.3;clip-path:url(#XMLID_75_);" d="M468.4,239.5h4.7c2.1,0,3.9,1.7,3.9,3.9v43.3c0,2.1-1.7,3.9-3.9,3.9
				h-4.7V239.5z"/>
			<use xlink:href="#XMLID_45_"  style="overflow:visible;fill:none;stroke:#000000;stroke-width:3;stroke-miterlimit:10;"/>
		</g>
		<path class="st63" d="M437.9,230.7c9.7,2.3,19.3,6.5,29,8.8"/>
		<line class="st63" x1="466.5" y1="290.6" x2="441.6" y2="303.4"/>
		<rect x="314.3" y="285.5" class="st9" width="83.9" height="19.9"/>
		<g>
			<g>
				<line class="st0" x1="356.3" y1="395.6" x2="356.3" y2="395.3"/>
				<line class="st0" x1="345.7" y1="395.6" x2="345.7" y2="395.3"/>
			</g>
		</g>
		<g>
			<g>
				<line class="st0" x1="356.3" y1="395.6" x2="356.3" y2="395.3"/>
				<line class="st0" x1="366.9" y1="395.3" x2="366.9" y2="395.6"/>
			</g>
		</g>
		<polygon class="st0" points="377.7,395.3 377.6,395.6 334.9,395.6 334.9,395.3 		"/>
		<polyline class="st0" points="272,445.6 272,445.6 272,439 272,439 		"/>
		<path class="st4" d="M440.5,439v6.5h-8.3c-0.2-2.2-0.3-4.4-0.5-6.5H440.5z"/>
		<path class="st4" d="M391.5,439c-0.3,2.1-0.5,4.3-0.7,6.5h-8.9V439H391.5z"/>
		<path class="st0" d="M432.2,445.6h-41.4c0.2-2.2,0.5-4.4,0.7-6.5h40.2C431.9,441.2,432,443.3,432.2,445.6z"/>
		<path class="st4" d="M329.5,439v6.5h-7.8c-0.2-2.2-0.3-4.4-0.5-6.5H329.5z"/>
		<path class="st4" d="M281,439c-0.3,2.1-0.5,4.3-0.7,6.5H272c0-2.2,0-4.3,0-6.5H281z"/>
		<path class="st0" d="M321.7,445.6h-41.4c0.2-2.2,0.5-4.4,0.7-6.5h40.2C321.4,441.2,321.6,443.3,321.7,445.6z"/>
		<g>
			<defs>
				<path id="XMLID_44_" d="M315.1,314.9h-99.9c-10.6,0-19.2,8.6-19.2,19.2V361h122.8L315.1,314.9z M265,345.3h-47.7v-8.6
					c0-9.6,7.8-17.3,17.3-17.3h13c9.6,0,17.3,7.8,17.3,17.3V345.3z"/>
			</defs>
			<use xlink:href="#XMLID_44_"  style="overflow:visible;fill:#3FA9F5;"/>
			<clipPath id="XMLID_76_">
				<use xlink:href="#XMLID_44_"  style="overflow:visible;"/>
			</clipPath>
			<path style="opacity:0.3;clip-path:url(#XMLID_76_);" d="M318.9,329c-46.9-0.3-85.1,3.4-101.5,17.6h-21.8l-13.2-16.9l1.7-20.4
				l139.2,4.8L318.9,329z"/>
			
				<use xlink:href="#XMLID_44_"  style="overflow:visible;fill:none;stroke:#000000;stroke-width:3;stroke-linecap:round;stroke-linejoin:round;stroke-miterlimit:10;"/>
		</g>
		<path class="st86" d="M265,336.7v8.6h-47.7v-8.6c0-9.6,7.8-17.3,17.3-17.3h13C257.3,319.4,265,327.1,265,336.7z"/>
		<g>
			<path class="st87" d="M346.4,464.7v7c-7.9,0.3-15.8,1-23.6,2c0-0.9,0-1.8,0-2.7c0-1.5,0-2.9-0.1-4.3
				C330.6,465.7,338.5,465,346.4,464.7z"/>
			<path class="st63" d="M322.8,473.7c-3.7,0.5-7.4,1-11,1.7l-1.2-6.9c4-0.7,8.1-1.3,12.2-1.8c0,1.4,0,2.9,0.1,4.3
				C322.8,471.9,322.8,472.8,322.8,473.7z"/>
			<path class="st87" d="M389.4,466.6c-0.1,1.8-0.1,3.6-0.1,5.4c0,0.5,0,1.1,0,1.6c-8-1-16.1-1.7-24.2-2v-7
				C373.2,464.9,381.3,465.6,389.4,466.6z"/>
			<path class="st63" d="M402,468.5l-1.2,6.9c-3.8-0.7-7.7-1.3-11.6-1.8c0-0.5,0-1.1,0-1.6c0-1.8,0.1-3.6,0.1-5.4
				C393.6,467.1,397.8,467.8,402,468.5z"/>
		</g>
		<polygon class="st83" points="356.3,314.9 356.3,395.3 345.7,395.3 343.3,361 340.2,314.9 		"/>
		<polygon class="st83" points="372.4,314.9 369.2,361 366.9,395.3 356.3,395.3 356.3,314.9 		"/>
		<polygon class="st83" points="386.2,314.9 381.3,361 377.7,395.3 366.9,395.3 369.2,361 372.4,314.9 		"/>
		<polygon class="st83" points="397.5,314.9 393.7,361 390.3,403.2 322.3,403.2 318.8,361 315.1,314.9 326.3,314.9 331.2,361 
			334.9,395.3 334.9,395.6 377.6,395.6 377.7,395.3 381.3,361 386.2,314.9 		"/>
		<g>
			<polygon class="st9" points="322.3,403.2 314.3,403.2 310.1,361 318.8,361 			"/>
			<path class="st9" d="M442.4,361l-17,51.4c-1,3-2.7,5.6-4.9,7.9c-5,5-12.6,8.2-20.9,8.2h-86.7c-8.4,0-16-3.2-21-8.2
				c-2.2-2.3-3.9-4.9-4.9-7.8l-17-51.4h40l4.2,42.2h83.9l4.2-42.2H442.4z"/>
		</g>
		<g>
			<defs>
				<path id="XMLID_43_" d="M497.9,314.9H397.5l-3.7,46.1h123.3v-26.9C517.1,323.5,508.5,314.9,497.9,314.9z M495.2,345.3h-47.7
					v-8.6c0-9.6,7.8-17.3,17.3-17.3h13c9.6,0,17.3,7.8,17.3,17.3V345.3z"/>
			</defs>
			<use xlink:href="#XMLID_43_"  style="overflow:visible;fill:#3FA9F5;"/>
			<clipPath id="XMLID_77_">
				<use xlink:href="#XMLID_43_"  style="overflow:visible;"/>
			</clipPath>
			<path style="opacity:0.3;clip-path:url(#XMLID_77_);" d="M393.7,327.7c46.9-0.3,85.1,3.4,101.5,17.6h21.8l13.2-16.9l-1.7-20.4
				l-139.2,4.8L393.7,327.7z"/>
			
				<use xlink:href="#XMLID_43_"  style="overflow:visible;fill:none;stroke:#000000;stroke-width:3;stroke-linecap:round;stroke-linejoin:round;stroke-miterlimit:10;"/>
		</g>
		<polygon class="st9" points="402.5,361 398.2,403.2 390.3,403.2 393.7,361 		"/>
		<path class="st86" d="M495.2,336.7v8.6h-47.7v-8.6c0-9.6,7.8-17.3,17.3-17.3h13C487.5,319.4,495.2,327.1,495.2,336.7z"/>
		<line class="st0" x1="381.9" y1="403.2" x2="329.5" y2="403.2"/>
		<rect x="346.4" y="451.4" class="st5" width="18.6" height="26.9"/>
		<rect x="329.5" y="428.5" class="st5" width="52.4" height="23"/>
		<line class="st0" x1="387.9" y1="428.5" x2="381.9" y2="428.5"/>
		<line class="st0" x1="329.5" y1="428.5" x2="323.2" y2="428.5"/>
		<path class="st64" d="M322.8,473.7c0,19.3-1.4,36.7-3.4,51.8c-0.4,2.9-2.7,5.1-5.4,5.1l-25.9-0.1c-2.6,0-4.9-2.1-5.4-4.9
			c-2.4-14.9-4.2-33-3.9-53.6c0.1-9.4,0.7-18.2,1.5-26.5c0.2-2.2,0.5-4.4,0.7-6.5c0.6-4.9,1.3-9.5,2-13.9c0.5-2.8,2.8-4.9,5.4-4.9
			l3.5,0l22.4,0.1c2.7,0,5,2.2,5.4,5.2c0.1,1,0.2,2,0.4,3c0.4,3.4,0.8,6.9,1.1,10.6c0.2,2.1,0.4,4.3,0.5,6.5
			c0.5,6.7,0.8,13.8,1,21.1c0,1.4,0,2.9,0.1,4.3C322.8,471.9,322.8,472.8,322.8,473.7z"/>
		<path class="st64" d="M429.8,525.6c-0.4,2.9-2.7,5.1-5.4,5.1l-25.9-0.1c-2.7,0-4.9-2.1-5.4-4.9c-2.4-14.5-4.1-32.1-3.9-52
			c0-0.5,0-1.1,0-1.6c0-1.8,0.1-3.6,0.1-5.4c0.2-7.4,0.7-14.4,1.4-21c0.2-2.2,0.5-4.4,0.7-6.5c0.4-3.7,0.9-7.2,1.5-10.6
			c0.2-1.1,0.4-2.3,0.5-3.3c0.5-2.8,2.8-4.9,5.4-4.9l21.6,0.1l4.3,0c2.7,0,5,2.2,5.4,5.2c0.5,4.3,1,8.8,1.4,13.5
			c0.2,2.1,0.4,4.3,0.5,6.5c0.6,8,1,16.5,1,25.5C433.4,491.4,431.9,509.7,429.8,525.6z"/>
		<polyline class="st86" points="324.4,279.9 277.1,279.9 287.8,203.3 356.3,203.3 424.8,203.3 435.5,279.9 388.1,279.9 		"/>
		<path class="st9" d="M398.2,285.5h-83.9c0,0,3.2-2.8,10.1-5.6c6.9-2.8,17.3-5.6,31.9-5.6s25,2.8,31.9,5.6
			C395,282.7,398.2,285.5,398.2,285.5z"/>
	</g>
</g>
<g id="_x34__монтажная_область">
</g>
</svg>
