<svg width="19" height="17" viewBox="0 0 19 17" fill="none" xmlns="http://www.w3.org/2000/svg">
<path d="M14.6075 3.17407L15.1326 2.65737L15.7326 3.24791L16.7828 2.21448L14.5325 0L13.4824 1.03343L14.0825 1.62394L13.4074 2.28828C9.80694 0.147609 5.15637 1.25485 3.05613 4.79801C0.955884 8.34118 2.08098 12.7701 5.60642 14.9108C9.13186 17.0515 13.7824 15.9442 15.8827 12.4011C17.7579 9.37461 17.2328 5.53619 14.6075 3.17407ZM9.50688 13.7298C6.58153 13.7298 4.25626 11.4415 4.25626 8.56266C4.25626 5.68384 6.58153 3.39552 9.50688 3.39552V8.56262H14.7575C14.7575 11.4414 12.4322 13.7298 9.50688 13.7298Z" fill="#5E5E5E"/>
</svg>
