<svg width="67" height="80" viewBox="0 0 67 80" fill="none" xmlns="http://www.w3.org/2000/svg">
<path d="M66.6621 50.4794V50.3492C66.6621 47.4722 64.3213 45.1315 61.4442 45.1315H46.555L47.5232 23.4581C47.5449 22.97 47.2683 22.5175 46.8238 22.3146C42.9204 20.5318 40.3982 16.6104 40.3982 12.3245C40.3982 8.64542 42.2452 5.2495 45.2296 3.22951V10.6173C45.2296 12.321 46.6158 13.7071 48.3196 13.7071H54.4362C56.14 13.7071 57.5262 12.321 57.5262 10.6173V3.22967C60.5106 5.24966 62.3576 8.64558 62.3576 12.3246C62.3576 16.7197 59.7468 20.6811 55.7066 22.4167C55.2458 22.6147 54.957 23.0786 54.9828 23.5796L55.8256 39.9302C55.8597 40.591 56.4222 41.1007 57.084 41.0652C57.745 41.0312 58.2531 40.4677 58.219 39.8068L57.4176 24.2613C61.9009 21.9932 64.754 17.3958 64.754 12.3245C64.754 7.04965 61.6379 2.2528 56.8155 0.103751C56.4448 -0.0614039 56.0158 -0.0278103 55.6751 0.193282C55.3348 0.414218 55.1294 0.792497 55.1294 1.19828V10.617C55.1294 10.9993 54.8183 11.3102 54.4361 11.3102H48.3194C47.9371 11.3102 47.6261 10.9993 47.6261 10.617V1.19859C47.6261 0.79281 47.4207 0.414531 47.0803 0.193595C46.7399 -0.0274978 46.3107 -0.0610914 45.94 0.104064C41.1176 2.25296 38.0015 7.04996 38.0015 12.3248C38.0015 17.2726 40.7594 21.821 45.0938 24.1319L45.0525 26.7111C44.223 26.0538 43.1766 25.6589 42.0394 25.6563C41.5377 25.6466 39.8702 25.7339 38.5577 27.1048C37.4453 28.267 37.2646 29.6356 37.256 30.3476C37.2549 30.4437 37.237 30.5448 37.2028 30.6483C36.3942 33.095 35.3395 35.4129 34.0679 37.5376C33.7281 38.1054 33.9129 38.8413 34.4807 39.1812C35.0487 39.5212 35.7845 39.3362 36.1243 38.7684C37.486 36.4928 38.6146 34.0139 39.4782 31.4006C39.5896 31.0639 39.6482 30.7197 39.6524 30.3772C39.6568 30.0178 39.7452 29.3301 40.2888 28.7623C40.923 28.1 41.7516 28.0525 41.9749 28.0525C41.9974 28.0525 42.0118 28.053 42.028 28.053C43.3985 28.053 44.5135 29.1697 44.5135 30.5425C44.5135 31.0769 44.5172 31.5712 44.5208 32.0387C44.5266 32.7907 44.5316 33.4401 44.5202 34.0834C44.4868 35.9865 44.4019 37.6798 44.3201 39.3173C44.2135 41.4454 44.1033 43.6458 44.1033 46.33C44.1033 46.9919 44.6399 47.5283 45.3016 47.5283H61.4437C62.9993 47.5283 64.2649 48.7939 64.2649 50.3496V50.4797C64.2649 52.0353 62.9993 53.3011 61.4437 53.3011H57.964C57.3022 53.3011 56.7658 53.8375 56.7658 54.4994C56.7658 55.1612 57.3023 55.6976 57.964 55.6976H61.4437C62.9993 55.6976 64.2649 56.9634 64.2649 58.519V58.5464C64.2649 60.102 62.9993 61.3676 61.4437 61.3676H57.964C57.3022 61.3676 56.7658 61.904 56.7658 62.5659C56.7658 63.2278 57.3023 63.7642 57.964 63.7642H61.4437C62.9993 63.7642 64.2649 65.0299 64.2649 66.5855V66.743C64.2649 68.2987 62.9993 69.5644 61.4437 69.5644H57.964C57.3022 69.5644 56.7658 70.1008 56.7658 70.7627C56.7658 71.4246 57.3023 71.961 57.964 71.961H61.4437C62.9993 71.961 64.2649 73.2268 64.2649 74.7824C64.2649 76.338 62.9993 77.6036 61.4437 77.6036H32.8442C30.0256 77.6036 27.3558 76.5263 25.3266 74.57L24.1239 73.4107V50.4639C25.7611 49.5539 27.3159 48.5035 28.7536 47.3339C29.6228 46.6268 30.4639 45.8643 31.2536 45.0674C31.7193 44.5972 31.7159 43.8387 31.2459 43.3727C30.7759 42.9068 30.0172 42.9104 29.5512 43.3804C28.8216 44.1166 28.0444 44.8213 27.2411 45.4749C26.2244 46.3019 25.143 47.0632 24.0133 47.7532C23.6242 46.2475 22.2544 45.1319 20.6289 45.1319H1.19827C0.536404 45.1319 0 45.6683 0 46.3302V78.8017C0 79.4636 0.53656 80 1.19827 80H20.6288C22.4863 80 24.0094 78.5433 24.1172 76.7125C26.533 78.8369 29.6081 80 32.8442 80H61.4442C64.3213 80 66.6621 77.6592 66.6621 74.7821C66.6621 73.1668 65.9243 71.7205 64.7679 70.7626C65.9243 69.8047 66.6621 68.3584 66.6621 66.7429V66.5854C66.6621 64.9701 65.9243 63.5237 64.7679 62.5657C65.9243 61.6079 66.6621 60.1617 66.6621 58.5462V58.5189C66.6621 56.9034 65.9241 55.4572 64.7677 54.4992C65.924 53.5413 66.6621 52.0949 66.6621 50.4794ZM21.7274 49.7338C21.7274 49.7355 21.7274 49.7372 21.7274 49.7389V76.5046C21.7274 77.1103 21.2346 77.6031 20.6289 77.6031H2.39655V47.5282H20.6288C21.2346 47.5282 21.7272 48.021 21.7272 48.6266V49.7338H21.7274Z" fill="black"/>
</svg>
