<svg width="19" height="16" viewBox="0 0 19 16" fill="none" xmlns="http://www.w3.org/2000/svg">
<path d="M18.1595 3.76L18.1767 3.74667L13.8873 0.444458L12.6668 1.38667L15.0964 3.26221C14.014 3.58221 13.2424 4.38667 13.2424 5.33333C13.2424 6.56 14.5321 7.55556 16.1213 7.55556C16.53 7.55556 16.9215 7.48887 17.2728 7.36887V13.7777C17.2728 14.2667 16.7546 14.6667 16.1213 14.6667C15.4879 14.6667 14.9698 14.2667 14.9698 13.7778V9.77782C14.9698 8.79556 13.9392 8 12.6668 8H11.5153V1.77779C11.5152 0.795542 10.4845 0 9.21217 0H2.30305C1.03059 0 0 0.795542 0 1.77779V16H11.5152V9.33331H13.2424V13.7778C13.2424 15.0044 14.5321 16 16.1213 16C17.7103 16 19 15.0044 19 13.7778V5.33333C19.0001 4.72 18.6777 4.16446 18.1595 3.76ZM9.21217 6.22221H2.30305V1.77779H9.21217V6.22221ZM16.1213 6.22221C15.4879 6.22221 14.9698 5.82221 14.9698 5.33333C14.9698 4.84446 15.4879 4.44446 16.1213 4.44446C16.7546 4.44446 17.2728 4.84446 17.2728 5.33333C17.2728 5.82221 16.7546 6.22221 16.1213 6.22221Z" fill="#5E5E5E"/>
</svg>
