<?xml version="1.0" encoding="utf-8"?>
<!-- Generator: Adobe Illustrator 23.0.3, SVG Export Plug-In . SVG Version: 6.00 Build 0)  -->
<svg version="1.1" xmlns="http://www.w3.org/2000/svg" xmlns:xlink="http://www.w3.org/1999/xlink" x="0px" y="0px"
	 viewBox="0 0 45 45" style="enable-background:new 0 0 45 45;" xml:space="preserve">
<style type="text/css">
	.st0{fill:none;stroke:#000000;stroke-width:0.5;stroke-linecap:round;stroke-linejoin:round;stroke-miterlimit:10;}
	.st1{fill:none;}
	.st2{fill:#ED1E79;}
	.st3{fill:none;stroke:#000000;stroke-linecap:round;stroke-linejoin:round;stroke-miterlimit:10;}
</style>
<g id="Слой_2">
	<g>
		<line class="st0" x1="25.8" y1="26.5" x2="23.4" y2="26.5"/>
		<line class="st0" x1="35" y1="26.5" x2="32.6" y2="26.5"/>
		<rect x="25.8" y="25.5" class="st0" width="6.8" height="1.9"/>
		<line class="st0" x1="14.5" y1="17.8" x2="14.5" y2="15.6"/>
		
			<rect x="12.4" y="12.5" transform="matrix(-1.836970e-16 1 -1 -1.836970e-16 28.0057 -1.0477)" class="st0" width="4.3" height="1.9"/>
		<g>
			<circle class="st0" cx="9.2" cy="27.8" r="1.3"/>
			<path class="st0" d="M11.8,28.3c-0.2,0.9-0.8,1.5-1.5,1.9c-0.5,0.2-1.1,0.3-1.6,0.2c-1.4-0.3-2.4-1.7-2.1-3.2
				c0.3-1.4,1.7-2.4,3.2-2.1C11.2,25.5,12.1,26.9,11.8,28.3z"/>
			<g>
				<path class="st0" d="M18.9,23c0,0.1,0,0.2,0,0.3c-0.2,1-1.2,1.7-2.2,1.5c-1-0.2-1.7-1.2-1.5-2.2c0.1-0.3,0.2-0.6,0.4-0.9
					c0.4-0.5,1.1-0.7,1.8-0.6C18.3,21.2,19,22.1,18.9,23z"/>
			</g>
			<path class="st0" d="M20.8,28.6L20.8,28.6c0,0.1,0,0.2,0,0.4c-0.2,1-1.2,1.7-2.2,1.5c-1-0.2-1.7-1.2-1.5-2.2
				c0.2-1,1.2-1.7,2.2-1.5c0.5,0.1,0.8,0.4,1.1,0.7C20.7,27.7,20.8,28.1,20.8,28.6z"/>
			<line class="st0" x1="15.6" y1="21.6" x2="8.5" y2="25.2"/>
			<line class="st0" x1="20.4" y1="27.4" x2="18.9" y2="22.9"/>
			<line class="st0" x1="18" y1="30.2" x2="10.3" y2="30.2"/>
		</g>
		<line class="st0" x1="8.3" y1="19.3" x2="15.5" y2="19.3"/>
		<line class="st0" x1="20.8" y1="17.8" x2="8.3" y2="17.8"/>
		<line class="st0" x1="18.5" y1="19.3" x2="20.8" y2="19.3"/>
		<path class="st0" d="M42.4,28.7v1.2l2,0v-6.8l-2,0v1.4h-6.3v-5.4c0-0.8-0.6-1.4-1.3-1.4h-8.9c-0.7,0-1.3,0.6-1.3,1.4v1.5h-1.8
			c-1.1,0-2-0.9-2-2v-0.9v-6.6v-0.8c0-0.5-0.4-0.9-0.9-0.9H9.2c-0.5,0-0.9,0.4-0.9,0.9v0.8v6.6v0.9c0,1.1-0.9,2-2,2
			c-1,0-1.9,0.8-1.9,1.9v3.3H2.5v-1.2H0.5v6.7h1.9v-1.2h1.9v2h4.8c0.3,0,0.6,0.2,0.7,0.5l1,2.7h2.4l1.1-2.7c0.1-0.3,0.4-0.5,0.6-0.5
			s0.6,0.2,0.7,0.5l1,2.7h2.4l1-2.7c0.1-0.3,0.4-0.5,0.7-0.5l3.8,1.4V34c0,0.8,0.6,1.4,1.3,1.4h8.9c0.7,0,1.3-0.5,1.3-1.2h2v-2.9
			h1.7c0,0,0-2.7,0-2.7C39.9,28.6,42.4,28.6,42.4,28.7"/>
		<g>
			<line class="st0" x1="25.8" y1="31.8" x2="25.8" y2="33.7"/>
			<line class="st0" x1="27.5" y1="31.8" x2="27.5" y2="33.7"/>
			<line class="st0" x1="29.2" y1="31.8" x2="29.2" y2="33.7"/>
			<line class="st0" x1="30.9" y1="31.8" x2="30.9" y2="33.7"/>
			<line class="st0" x1="32.6" y1="31.8" x2="32.6" y2="33.7"/>
		</g>
	</g>
</g>
<g id="Слой_3">
</g>
<g id="Слой_4">
</g>
<g id="Слой_5">
</g>
<g id="Слой_6">
</g>
</svg>
