<?xml version="1.0" encoding="utf-8"?>
<!-- Generator: Adobe Illustrator 23.0.3, SVG Export Plug-In . SVG Version: 6.00 Build 0)  -->
<svg version="1.1" xmlns="http://www.w3.org/2000/svg" xmlns:xlink="http://www.w3.org/1999/xlink" x="0px" y="0px"
	 viewBox="0 0 700 700" style="enable-background:new 0 0 700 700;" xml:space="preserve">
<style type="text/css">
	.st0{fill:none;stroke:#000000;stroke-width:3;stroke-linecap:round;stroke-linejoin:round;stroke-miterlimit:10;}
	.st1{fill:none;stroke:#333333;stroke-width:3;stroke-linecap:round;stroke-linejoin:round;stroke-miterlimit:10;}
	.st2{stroke:#333333;stroke-miterlimit:10;}
	.st3{fill:none;stroke:#333333;stroke-width:4;stroke-linecap:round;stroke-linejoin:round;stroke-miterlimit:10;}
	.st4{fill:#333333;stroke:#000000;stroke-width:3;stroke-linecap:round;stroke-linejoin:round;stroke-miterlimit:10;}
	.st5{fill:#999999;stroke:#000000;stroke-width:3;stroke-linecap:round;stroke-linejoin:round;stroke-miterlimit:10;}
	.st6{opacity:0.3;clip-path:url(#XMLID_73_);}
	.st7{opacity:0.7;clip-path:url(#XMLID_74_);fill:#C69C6D;}
	.st8{opacity:0.7;clip-path:url(#XMLID_75_);fill:#C69C6D;}
	.st9{fill:#3FA9F5;stroke:#000000;stroke-width:3;stroke-linecap:round;stroke-linejoin:round;stroke-miterlimit:10;}
	.st10{fill:#0077AE;stroke:#000000;stroke-width:3;stroke-linecap:round;stroke-linejoin:round;stroke-miterlimit:10;}
	.st11{opacity:0.3;clip-path:url(#XMLID_78_);}
	.st12{fill:#E9F8FF;stroke:#000000;stroke-width:3;stroke-linecap:round;stroke-linejoin:round;stroke-miterlimit:10;}
	.st13{opacity:0.3;clip-path:url(#XMLID_79_);}
	.st14{opacity:0.7;fill:#C69C6D;}
	.st15{fill:#C69C6D;}
	.st16{fill:none;stroke:#000000;stroke-miterlimit:10;}
	.st17{display:none;}
	.st18{display:inline;}
	
		.st19{display:inline;fill:#FFFCDE;stroke:#000000;stroke-width:3;stroke-linecap:round;stroke-linejoin:round;stroke-miterlimit:10;}
	
		.st20{display:inline;fill:#333333;stroke:#000000;stroke-width:3;stroke-linecap:round;stroke-linejoin:round;stroke-miterlimit:10;}
	
		.st21{display:inline;fill:#999999;stroke:#000000;stroke-width:3;stroke-linecap:round;stroke-linejoin:round;stroke-miterlimit:10;}
	.st22{display:inline;fill:none;stroke:#000000;stroke-width:3;stroke-linecap:round;stroke-linejoin:round;stroke-miterlimit:10;}
	.st23{opacity:0.3;clip-path:url(#XMLID_80_);}
	
		.st24{display:inline;fill:#3FA9F5;stroke:#000000;stroke-width:3;stroke-linecap:round;stroke-linejoin:round;stroke-miterlimit:10;}
	.st25{clip-path:url(#XMLID_81_);fill:#FFFCDE;}
	
		.st26{display:inline;fill:#0077AE;stroke:#000000;stroke-width:3;stroke-linecap:round;stroke-linejoin:round;stroke-miterlimit:10;}
	.st27{opacity:0.3;clip-path:url(#XMLID_83_);}
	
		.st28{display:inline;fill:#E9F8FF;stroke:#000000;stroke-width:3;stroke-linecap:round;stroke-linejoin:round;stroke-miterlimit:10;}
	.st29{opacity:0.3;clip-path:url(#XMLID_84_);}
	.st30{opacity:0.3;clip-path:url(#XMLID_85_);}
	.st31{clip-path:url(#XMLID_86_);fill:#FFFCDE;}
	.st32{opacity:0.3;clip-path:url(#XMLID_88_);}
	.st33{opacity:0.3;clip-path:url(#XMLID_89_);}
	.st34{fill:none;}
	.st35{fill:none;stroke:#000000;stroke-width:2;stroke-linecap:round;stroke-linejoin:round;stroke-miterlimit:10;}
	.st36{fill:#FFFFFF;}
	.st37{fill:#2C2E3D;}
	.st38{fill:#C7762B;}
	.st39{fill:#8F521A;}
	.st40{clip-path:url(#XMLID_90_);fill:#ACB5AC;}
	.st41{clip-path:url(#XMLID_91_);fill:#ACB5AC;}
	.st42{fill:#2C2721;}
	.st43{opacity:0.35;clip-path:url(#SVGID_2_);fill:#C7762B;}
	.st44{clip-path:url(#SVGID_2_);fill:#51525B;}
	.st45{opacity:0.35;clip-path:url(#SVGID_4_);fill:#C7762B;}
	.st46{fill:#6A2317;}
	.st47{opacity:0.35;fill:#6A2317;}
	.st48{fill:#6F2B1C;}
	.st49{fill:#2A2520;}
	.st50{fill:#FAAC86;}
	.st51{opacity:0.35;clip-path:url(#SVGID_6_);fill:#FBB282;}
	.st52{fill:#FBB282;}
	.st53{opacity:0.32;fill:#FBB282;}
	.st54{fill:#F58D6A;}
	.st55{fill:none;stroke:#6D3337;stroke-width:2;stroke-linecap:round;stroke-linejoin:round;stroke-miterlimit:10;}
	.st56{fill:#333333;}
	.st57{fill:#8C3E37;}
	.st58{opacity:0.35;clip-path:url(#XMLID_92_);fill:#4F515B;}
	.st59{opacity:0.35;fill:#51525B;}
	.st60{fill:#51525B;}
	.st61{fill:none;stroke:#3A3B46;stroke-width:2;stroke-linecap:round;stroke-miterlimit:10;}
	.st62{stroke:#000000;stroke-miterlimit:10;}
	.st63{fill:none;stroke:#000000;stroke-width:3;stroke-miterlimit:10;}
	.st64{fill:#333333;stroke:#000000;stroke-width:3;stroke-miterlimit:10;}
	.st65{fill:none;stroke:#333333;stroke-width:16;stroke-miterlimit:10;}
	.st66{clip-path:url(#XMLID_93_);fill:#ACB5AC;}
	.st67{clip-path:url(#XMLID_94_);fill:#ACB5AC;}
	.st68{opacity:0.35;clip-path:url(#SVGID_8_);fill:#C7762B;}
	.st69{clip-path:url(#SVGID_8_);fill:#51525B;}
	.st70{opacity:0.35;clip-path:url(#SVGID_10_);fill:#C7762B;}
	.st71{opacity:6.000000e-02;fill:#FFFFFF;}
	.st72{opacity:0.35;clip-path:url(#SVGID_12_);fill:#FBB282;}
	.st73{opacity:0.35;clip-path:url(#XMLID_95_);fill:#4F515B;}
	.st74{fill:none;stroke:#FFA26B;stroke-width:2;stroke-linecap:round;stroke-linejoin:round;stroke-miterlimit:10;}
	.st75{opacity:0.3;}
	.st76{fill:none;stroke:#333333;stroke-width:16;stroke-linecap:round;stroke-linejoin:round;stroke-miterlimit:10;}
	.st77{fill:none;stroke:#333333;stroke-width:10;stroke-linecap:round;stroke-linejoin:round;stroke-miterlimit:10;}
	.st78{fill:none;stroke:#333333;stroke-width:10;stroke-miterlimit:10;}
	.st79{fill:#FFFFFF;stroke:#333333;stroke-width:3;stroke-linecap:round;stroke-linejoin:round;stroke-miterlimit:10;}
	.st80{fill:#FFFFFF;stroke:#333333;stroke-width:3;stroke-miterlimit:10;}
	.st81{fill:none;stroke:#333333;stroke-width:24;stroke-miterlimit:10;}
	.st82{opacity:0.3;clip-path:url(#XMLID_97_);}
	.st83{fill:#9BD5F9;stroke:#000000;stroke-width:3;stroke-linecap:round;stroke-linejoin:round;stroke-miterlimit:10;}
	.st84{opacity:0.3;clip-path:url(#XMLID_98_);}
	.st85{opacity:0.3;clip-path:url(#XMLID_99_);}
	.st86{fill:#FFFCDE;stroke:#000000;stroke-width:3;stroke-linecap:round;stroke-linejoin:round;stroke-miterlimit:10;}
	.st87{fill:#999999;stroke:#000000;stroke-width:3;stroke-miterlimit:10;}
	.st88{opacity:0.3;clip-path:url(#XMLID_100_);}
	.st89{opacity:0.3;clip-path:url(#XMLID_102_);}
	.st90{opacity:0.3;clip-path:url(#XMLID_103_);}
	.st91{opacity:0.3;clip-path:url(#XMLID_104_);}
	.st92{opacity:0.3;clip-path:url(#XMLID_105_);}
	.st93{fill:#E2E0E0;stroke:#333333;stroke-width:10;stroke-linecap:round;stroke-linejoin:round;stroke-miterlimit:10;}
	.st94{fill:#9BD5F9;stroke:#333333;stroke-width:10;stroke-linecap:round;stroke-linejoin:round;stroke-miterlimit:10;}
	.st95{fill:#E4B357;stroke:#333333;stroke-width:10;stroke-linecap:round;stroke-linejoin:round;stroke-miterlimit:10;}
	.st96{fill:#E1495C;stroke:#333333;stroke-width:10;stroke-linecap:round;stroke-linejoin:round;stroke-miterlimit:10;}
	.st97{fill:#FFFFFF;stroke:#333333;stroke-width:10;stroke-linecap:round;stroke-linejoin:round;stroke-miterlimit:10;}
	.st98{fill:#77AEC1;stroke:#333333;stroke-width:10;stroke-linecap:round;stroke-linejoin:round;stroke-miterlimit:10;}
	.st99{fill:#559AB1;stroke:#333333;stroke-width:10;stroke-linecap:round;stroke-linejoin:round;stroke-miterlimit:10;}
	.st100{fill:#E2E0E0;stroke:#333333;stroke-width:3;stroke-linecap:round;stroke-linejoin:round;stroke-miterlimit:10;}
	.st101{opacity:0.3;fill:#ADACAC;}
	.st102{opacity:0.3;clip-path:url(#XMLID_106_);fill:#333333;}
	.st103{opacity:0.3;clip-path:url(#XMLID_107_);fill:#333333;}
	.st104{fill:#E4B357;stroke:#333333;stroke-width:3;stroke-linecap:round;stroke-linejoin:round;stroke-miterlimit:10;}
	.st105{opacity:0.3;clip-path:url(#XMLID_108_);fill:#333333;}
	.st106{opacity:0.3;clip-path:url(#XMLID_110_);}
	.st107{opacity:0.3;clip-path:url(#XMLID_111_);}
	.st108{opacity:0.3;clip-path:url(#XMLID_112_);}
	.st109{opacity:0.3;clip-path:url(#XMLID_113_);}
	.st110{fill:#E2E0E0;stroke:#333333;stroke-width:6;stroke-linecap:round;stroke-linejoin:round;stroke-miterlimit:10;}
	.st111{fill:#9BD5F9;stroke:#333333;stroke-width:6;stroke-linecap:round;stroke-linejoin:round;stroke-miterlimit:10;}
	.st112{fill:#E4B357;stroke:#333333;stroke-width:6;stroke-linecap:round;stroke-linejoin:round;stroke-miterlimit:10;}
	.st113{fill:none;stroke:#333333;stroke-width:6;stroke-linecap:round;stroke-linejoin:round;stroke-miterlimit:10;}
	.st114{opacity:0.3;clip-path:url(#XMLID_114_);fill:#333333;}
	.st115{opacity:0.3;clip-path:url(#XMLID_115_);fill:#333333;}
	.st116{opacity:0.3;clip-path:url(#XMLID_116_);fill:#333333;}
</style>
<g id="контур__x28_копия_x29_">
</g>
<g id="цвет">
</g>
<g id="_x31__монтажная_область">
</g>
<g id="_x32__монтажная_область">
	<g id="Слой_5">
	</g>
</g>
<g id="_x33__монтажная_облатсть">
</g>
<g id="_x34__монтажная_область">
	<g>
		<path id="XMLID_61_" class="st100" d="M639,84.2c-28.1-32.4-66.2-55.9-109.5-65.8c-14.9-3.4-30.4-5.2-46.3-5.2
			c-14.5,0-28.6,1.5-42.2,4.3C347.3,37,276.9,120,276.9,219.5c0,97.9,68.2,179.9,159.7,201c15,3.5,30.6,5.3,46.6,5.3
			c113.9,0,206.3-92.4,206.3-206.3C689.5,167.8,670.5,120.4,639,84.2z M527.1,146.3C527.1,146.3,527.1,146.4,527.1,146.3
			c1.2,4.3,1.1,8-0.4,10.2c0,0,0,0,0,0c-0.3,0.5-0.7,0.9-1.2,1.3c0,0-0.1,0.1-0.1,0.1c-0.1,0-0.1,0.1-0.2,0.1c0,0-0.1,0-0.1,0.1
			c-4.5,2.4-12.6-2.8-18.5-11.9c-0.2-0.3-0.3-0.5-0.5-0.8c-5.6-9.1-6.9-18.8-2.6-21.5c4.2-2.7,12.5,2.5,18.4,11.3
			c0.2,0.3,0.4,0.5,0.5,0.8c1.9,3,3.3,6,4.2,8.8C526.8,145.3,527,145.8,527.1,146.3z"/>
		<path id="XMLID_62_" class="st101" d="M639,84.2c-28.1-32.4-66.2-55.9-109.5-65.8c-14.9-3.4-30.4-5.2-46.3-5.2
			c-14.5,0-28.6,1.5-42.2,4.3c5.6,4.8,11,9.8,16.3,14.9c32.3,31.9,56.3,70.2,69.3,112.3c0.2,0.5,0.3,1,0.5,1.6c0,0,0,0,0,0.1
			c6.8,22.6,10.4,46.3,10.4,70.8c0,79.9-38.7,152.1-100.9,203.4c15,3.5,30.6,5.3,46.6,5.3c113.9,0,206.3-92.4,206.3-206.3
			C689.5,167.8,670.5,120.4,639,84.2z"/>
		<path id="XMLID_63_" class="st100" d="M522.4,136c-0.2-0.3-0.4-0.5-0.5-0.8c-5.9-8.8-14.2-14.1-18.4-11.3
			c-4.3,2.7-2.9,12.4,2.6,21.5c0.2,0.3,0.3,0.5,0.5,0.8c5.9,9.1,14,14.3,18.5,11.9c0,0,0.1,0,0.1-0.1c0.1,0,0.1-0.1,0.2-0.1
			c0.1,0,0.1-0.1,0.1-0.1c0.5-0.3,0.9-0.8,1.2-1.3c0,0,0,0,0,0C529.3,152.6,527.6,144.1,522.4,136z"/>
		<g>
			<g>
				<defs>
					<path id="XMLID_59_" d="M639,84.2l-50.4,32.5l-60.6,39l-0.4,0.2c0,0-0.1,0-0.1,0.1l-0.8,0.5c2.6-3.9,0.9-12.4-4.3-20.6
						c-0.2-0.3-0.4-0.5-0.5-0.8c-5.9-8.8-14.2-14.1-18.4-11.3l2.7-1.7l19.5-12.5c5.1-3.3,7.2-9.8,4.9-15.5l-16-39.5
						c-4.9-12.2-0.5-26.1,10.5-33.3l4.5-2.9C572.8,28.3,610.8,51.8,639,84.2z"/>
				</defs>
				<use xlink:href="#XMLID_59_"  style="overflow:visible;fill:#E1495C;"/>
				<clipPath id="XMLID_73_">
					<use xlink:href="#XMLID_59_"  style="overflow:visible;"/>
				</clipPath>
				<polygon style="opacity:0.3;clip-path:url(#XMLID_73_);fill:#333333;" points="519.8,145.4 634.2,59.5 648.9,81.1 528,155.7 
									"/>
				
					<use xlink:href="#XMLID_59_"  style="overflow:visible;fill:none;stroke:#333333;stroke-width:3;stroke-linecap:round;stroke-linejoin:round;stroke-miterlimit:10;"/>
			</g>
		</g>
		<g>
			<defs>
				<path id="XMLID_60_" d="M523.9,383.1h-62.4c-14.2,0-25.8-11.5-25.8-25.8v-113h88.2c14.2,0,25.8,11.5,25.8,25.8v87.2
					C549.7,371.6,538.1,383.1,523.9,383.1z"/>
			</defs>
			<use xlink:href="#XMLID_60_"  style="overflow:visible;fill:#9BD5F9;"/>
			<clipPath id="XMLID_74_">
				<use xlink:href="#XMLID_60_"  style="overflow:visible;"/>
			</clipPath>
			<path style="opacity:0.3;clip-path:url(#XMLID_74_);fill:#333333;" d="M485.3,389.7c0,0,57.7-33,54.3-145.3l26.7,29.4l-13.8,119
				L485.3,389.7z"/>
			
				<use xlink:href="#XMLID_60_"  style="overflow:visible;fill:none;stroke:#333333;stroke-width:3;stroke-linecap:round;stroke-linejoin:round;stroke-miterlimit:10;"/>
		</g>
		<path class="st1" d="M549.7,299.3c-7.6,3.5-16.9,5.6-27,5.6c-25.1,0-45.5-12.7-45.5-28.5c0-0.3,0-0.6,0-0.9c0.2-4.4-3.4-8-7.8-8
			h-33.7"/>
		<ellipse class="st104" cx="515.3" cy="267.6" rx="17.9" ry="8.8"/>
		<g>
			<defs>
				<path id="XMLID_58_" d="M526.7,156.5C526.7,156.5,526.7,156.6,526.7,156.5c-0.3,0.5-0.8,0.9-1.2,1.3c0,0-0.1,0.1-0.1,0.1
					c-0.1,0-0.1,0.1-0.2,0.1c0,0-0.1,0-0.1,0.1c-4.5,2.4-12.6-2.8-18.5-11.9c-0.2-0.3-0.3-0.5-0.5-0.8c-5.6-9.1-6.9-18.8-2.6-21.5
					c4.2-2.7,12.5,2.5,18.4,11.3c0.2,0.3,0.4,0.5,0.5,0.8C527.6,144.1,529.3,152.6,526.7,156.5z"/>
			</defs>
			<use xlink:href="#XMLID_58_"  style="overflow:visible;fill:#E4B357;"/>
			<clipPath id="XMLID_75_">
				<use xlink:href="#XMLID_58_"  style="overflow:visible;"/>
			</clipPath>
			<path style="opacity:0.3;clip-path:url(#XMLID_75_);fill:#333333;" d="M491.4,123.1c0,0,36.1,20.2,41.8,45.1
				c0,0,10.6-6.5,10.6-9.5c0-3-10.6-40.8-10.6-40.8l-32.3-14.4L491.4,123.1z"/>
			
				<use xlink:href="#XMLID_58_"  style="overflow:visible;fill:none;stroke:#333333;stroke-width:3;stroke-linecap:round;stroke-linejoin:round;stroke-miterlimit:10;"/>
		</g>
		<path class="st104" d="M524.9,210.5c0,6.9-4.7,12.5-10.5,12.5c-5.8,0-10.5-5.6-10.5-12.5c0-6.9,10.5-25.2,10.5-25.2
			S524.9,203.6,524.9,210.5z"/>
		<path class="st1" d="M520.5,129.1l2.7-1.7l19.5-12.5c5.1-3.3,7.2-9.8,4.9-15.5l-16-39.5c-4.9-12.2-0.5-26.1,10.5-33.3l5.1-3.3"/>
	</g>
	<g>
		<path class="st9" d="M337.2,246.2c1.5-21.9-6.1-23.9-6.1-23.9h-83.8h-83.8c0,0-7.6,2-6.1,23.9"/>
		<path class="st9" d="M326.5,255.5c9.7,0,11.6-4.5,10.7-9.3c-1.3-7.4-7.9-12.6-15.4-12.6H172.7c-7.5,0-14.1,5.3-15.4,12.6
			c-0.8,4.9,1.1,9.3,10.7,9.3l-2.4,15.2l-8.5,54.8h180.2l-8.5-54.8L326.5,255.5z M205.3,325.5c0,0,3.2-2.8,10.1-5.6
			c6.9-2.8,17.3-5.6,31.9-5.6s25,2.8,31.9,5.6c6.9,2.8,10.1,5.6,10.1,5.6H205.3z"/>
		<path class="st64" d="M163,479c0,2.2,0,4.4,0,6.5c-0.2,28.4-2.2,54.2-5.1,76.8c-0.6,4.7-4.3,8.2-8.7,8.2h-41.6
			c-4.3,0-7.9-3.3-8.7-7.9c-4-24-7-53.1-6.6-86.2c0.3-28.6,3-54,6.6-75.5h59c0,0.1,0,0.3,0.1,0.4c2.8,21.8,4.8,46.3,5.1,73.2
			C163,476.1,163,477.6,163,479z"/>
		<g>
			<defs>
				<path id="XMLID_57_" d="M395.7,562.7c-0.8,4.6-4.4,7.9-8.7,7.9h-41.7c-4.4,0-8.1-3.5-8.7-8.2c-2.9-22.6-5-48.4-5.1-76.8V479
					c0-1.5,0-2.9,0-4.4c0.3-26.9,2.3-51.4,5.1-73.2c0-0.1,0-0.3,0.1-0.4h42.7h16.3c3.6,21.5,6.3,47,6.6,75.5
					C402.7,509.6,399.7,538.7,395.7,562.7z"/>
			</defs>
			<use xlink:href="#XMLID_57_"  style="overflow:visible;fill:#333333;"/>
			<clipPath id="XMLID_76_">
				<use xlink:href="#XMLID_57_"  style="overflow:visible;"/>
			</clipPath>
			<use xlink:href="#XMLID_57_"  style="overflow:visible;fill:none;stroke:#000000;stroke-width:3;stroke-miterlimit:10;"/>
		</g>
		<g>
			<defs>
				<path id="XMLID_56_" d="M147.4,285.6v38.9c0,3.4-2.7,6.1-6.1,6.1h-8.6c-3.3,0-6.1-2.7-6.1-6.1v-38.9c0-3.4,2.7-6.1,6.1-6.1h8.6
					C144.7,279.5,147.4,282.2,147.4,285.6z"/>
			</defs>
			<use xlink:href="#XMLID_56_"  style="overflow:visible;fill:#9BD5F9;"/>
			<clipPath id="XMLID_77_">
				<use xlink:href="#XMLID_56_"  style="overflow:visible;"/>
			</clipPath>
			<rect x="122.4" y="270.7" style="opacity:0.3;clip-path:url(#XMLID_77_);" width="11.2" height="66.3"/>
			<use xlink:href="#XMLID_56_"  style="overflow:visible;fill:none;stroke:#000000;stroke-width:3;stroke-miterlimit:10;"/>
		</g>
		<path class="st63" d="M165.7,270.7c-9.7,2.3-19.3,6.5-29,8.8"/>
		<line class="st63" x1="137" y1="330.6" x2="160.5" y2="342.6"/>
		<g>
			<polygon class="st9" points="206.1,354.9 165.1,354.9 157.2,325.5 205.3,325.5 205.3,345.4 			"/>
			<polygon class="st9" points="337.4,325.5 332.6,343.4 329.5,354.9 288.5,354.9 289.2,345.4 289.2,325.5 			"/>
		</g>
		<polygon class="st83" points="236.7,435.3 225.9,435.3 222.2,401 217.3,354.9 231.2,354.9 234.3,401 		"/>
		<polygon class="st9" points="289.2,345.4 288.5,354.9 206.1,354.9 205.3,345.4 		"/>
		<g>
			<defs>
				<path id="XMLID_55_" d="M367.9,285.6v38.9c0,3.4-2.7,6.1-6.1,6.1h-8.6c-3.3,0-6.1-2.7-6.1-6.1v-38.9c0-3.4,2.7-6.1,6.1-6.1h8.6
					C365.2,279.5,367.9,282.2,367.9,285.6z"/>
			</defs>
			<use xlink:href="#XMLID_55_"  style="overflow:visible;fill:#9BD5F9;"/>
			<clipPath id="XMLID_78_">
				<use xlink:href="#XMLID_55_"  style="overflow:visible;"/>
			</clipPath>
			<path class="st11" d="M359.8,279.5h3.8c2.4,0,4.3,1.9,4.3,4.3v42.5c0,2.4-1.9,4.3-4.3,4.3h-3.8V279.5z"/>
			<use xlink:href="#XMLID_55_"  style="overflow:visible;fill:none;stroke:#000000;stroke-width:3;stroke-miterlimit:10;"/>
		</g>
		<path class="st63" d="M328.9,270.7c9.7,2.3,19.3,6.5,29,8.8"/>
		<line class="st63" x1="357.5" y1="330.6" x2="332.6" y2="343.4"/>
		<rect x="205.3" y="325.5" class="st9" width="83.9" height="19.9"/>
		<g>
			<g>
				<line class="st0" x1="247.3" y1="435.6" x2="247.3" y2="435.3"/>
				<line class="st0" x1="236.7" y1="435.6" x2="236.7" y2="435.3"/>
			</g>
		</g>
		<g>
			<g>
				<line class="st0" x1="247.3" y1="435.6" x2="247.3" y2="435.3"/>
				<line class="st0" x1="257.9" y1="435.3" x2="257.9" y2="435.6"/>
			</g>
		</g>
		<polygon class="st0" points="268.7,435.3 268.6,435.6 225.9,435.6 225.9,435.3 		"/>
		<polyline class="st0" points="163,485.6 163,485.6 163,479 163,479 		"/>
		<path class="st4" d="M331.5,479v6.5h-8.3c-0.2-2.2-0.3-4.4-0.5-6.5H331.5z"/>
		<path class="st4" d="M282.5,479c-0.3,2.1-0.5,4.3-0.7,6.5h-8.9V479H282.5z"/>
		<path class="st0" d="M323.2,485.6h-41.4c0.2-2.2,0.5-4.4,0.7-6.5h40.2C322.9,481.2,323,483.3,323.2,485.6z"/>
		<path class="st4" d="M220.5,479v6.5h-7.8c-0.2-2.2-0.3-4.4-0.5-6.5H220.5z"/>
		<path class="st4" d="M172,479c-0.3,2.1-0.5,4.3-0.7,6.5H163c0-2.2,0-4.3,0-6.5H172z"/>
		<path class="st0" d="M212.7,485.6h-41.4c0.2-2.2,0.5-4.4,0.7-6.5h40.2C212.4,481.2,212.6,483.3,212.7,485.6z"/>
		<g>
			<defs>
				<path id="XMLID_54_" d="M206.1,354.9h-99.9c-10.6,0-19.2,8.6-19.2,19.2V401h122.8L206.1,354.9z M156,385.3h-47.7v-8.6
					c0-9.6,7.8-17.3,17.3-17.3h13c9.6,0,17.3,7.8,17.3,17.3V385.3z"/>
			</defs>
			<use xlink:href="#XMLID_54_"  style="overflow:visible;fill:#3FA9F5;"/>
			<clipPath id="XMLID_79_">
				<use xlink:href="#XMLID_54_"  style="overflow:visible;"/>
			</clipPath>
			<path class="st13" d="M209.9,369c-46.9-0.3-85.1,3.4-101.5,17.6H86.6l-13.2-16.9l1.7-20.4l139.2,4.8L209.9,369z"/>
			
				<use xlink:href="#XMLID_54_"  style="overflow:visible;fill:none;stroke:#000000;stroke-width:3;stroke-linecap:round;stroke-linejoin:round;stroke-miterlimit:10;"/>
		</g>
		<path class="st86" d="M156,376.7v8.6h-47.7v-8.6c0-9.6,7.8-17.3,17.3-17.3h13C148.3,359.4,156,367.1,156,376.7z"/>
		<g>
			<path class="st87" d="M237.4,504.7v7c-7.9,0.3-15.8,1-23.6,2c0-0.9,0-1.8,0-2.7c0-1.5,0-2.9-0.1-4.3
				C221.6,505.7,229.5,505,237.4,504.7z"/>
			<path class="st63" d="M213.8,513.7c-3.7,0.5-7.4,1-11,1.7l-1.2-6.9c4-0.7,8.1-1.3,12.2-1.8c0,1.4,0,2.9,0.1,4.3
				C213.8,511.9,213.8,512.8,213.8,513.7z"/>
			<path class="st87" d="M280.4,506.6c-0.1,1.8-0.1,3.6-0.1,5.4c0,0.5,0,1.1,0,1.6c-8-1-16.1-1.7-24.2-2v-7
				C264.2,504.9,272.3,505.6,280.4,506.6z"/>
			<path class="st63" d="M293,508.5l-1.2,6.9c-3.8-0.7-7.7-1.3-11.6-1.8c0-0.5,0-1.1,0-1.6c0-1.8,0.1-3.6,0.1-5.4
				C284.6,507.1,288.8,507.8,293,508.5z"/>
		</g>
		<polygon class="st83" points="247.3,354.9 247.3,435.3 236.7,435.3 234.3,401 231.2,354.9 		"/>
		<polygon class="st83" points="263.4,354.9 260.2,401 257.9,435.3 247.3,435.3 247.3,354.9 		"/>
		<polygon class="st83" points="277.2,354.9 272.3,401 268.7,435.3 257.9,435.3 260.2,401 263.4,354.9 		"/>
		<polygon class="st83" points="288.5,354.9 284.7,401 281.3,443.2 213.3,443.2 209.8,401 206.1,354.9 217.3,354.9 222.2,401 
			225.9,435.3 225.9,435.6 268.6,435.6 268.7,435.3 272.3,401 277.2,354.9 		"/>
		<g>
			<polygon class="st9" points="213.3,443.2 205.3,443.2 201.1,401 209.8,401 			"/>
			<path class="st9" d="M333.4,401l-17,51.4c-1,3-2.7,5.6-4.9,7.9c-5,5-12.6,8.2-20.9,8.2h-86.7c-8.4,0-16-3.2-21-8.2
				c-2.2-2.3-3.9-4.9-4.9-7.8l-17-51.4h40l4.2,42.2h83.9l4.2-42.2H333.4z"/>
		</g>
		<g>
			<defs>
				<path id="XMLID_53_" d="M388.9,354.9H288.5l-3.7,46.1h123.3v-26.9C408.1,363.5,399.5,354.9,388.9,354.9z M386.2,385.3h-47.7
					v-8.6c0-9.6,7.8-17.3,17.3-17.3h13c9.6,0,17.3,7.8,17.3,17.3V385.3z"/>
			</defs>
			<use xlink:href="#XMLID_53_"  style="overflow:visible;fill:#3FA9F5;"/>
			<clipPath id="XMLID_80_">
				<use xlink:href="#XMLID_53_"  style="overflow:visible;"/>
			</clipPath>
			<path class="st23" d="M284.7,367.7c46.9-0.3,85.1,3.4,101.5,17.6h21.8l13.2-16.9l-1.7-20.4l-139.2,4.8L284.7,367.7z"/>
			
				<use xlink:href="#XMLID_53_"  style="overflow:visible;fill:none;stroke:#000000;stroke-width:3;stroke-linecap:round;stroke-linejoin:round;stroke-miterlimit:10;"/>
		</g>
		<polygon class="st9" points="293.5,401 289.2,443.2 281.3,443.2 284.7,401 		"/>
		<path class="st86" d="M386.2,376.7v8.6h-47.7v-8.6c0-9.6,7.8-17.3,17.3-17.3h13C378.5,359.4,386.2,367.1,386.2,376.7z"/>
		<line class="st0" x1="272.9" y1="443.2" x2="220.5" y2="443.2"/>
		<rect x="237.4" y="491.4" class="st5" width="18.6" height="26.9"/>
		<rect x="220.5" y="468.5" class="st5" width="52.4" height="23"/>
		<line class="st0" x1="278.9" y1="468.5" x2="272.9" y2="468.5"/>
		<line class="st0" x1="220.5" y1="468.5" x2="214.2" y2="468.5"/>
		<path class="st64" d="M213.8,513.7c0,19.3-1.4,36.7-3.4,51.8c-0.4,2.9-2.7,5.1-5.4,5.1l-25.9-0.1c-2.6,0-4.9-2.1-5.4-4.9
			c-2.4-14.9-4.2-33-3.9-53.6c0.1-9.4,0.7-18.2,1.5-26.5c0.2-2.2,0.5-4.4,0.7-6.5c0.6-4.9,1.3-9.5,2-13.9c0.5-2.8,2.8-4.9,5.4-4.9
			l3.5,0l22.4,0.1c2.7,0,5,2.2,5.4,5.2c0.1,1,0.2,2,0.4,3c0.4,3.4,0.8,6.9,1.1,10.6c0.2,2.1,0.4,4.3,0.5,6.5
			c0.5,6.7,0.8,13.8,1,21.1c0,1.4,0,2.9,0.1,4.3C213.8,511.9,213.8,512.8,213.8,513.7z"/>
		<path class="st64" d="M320.8,565.6c-0.4,2.9-2.7,5.1-5.4,5.1l-25.9-0.1c-2.7,0-4.9-2.1-5.4-4.9c-2.4-14.5-4.1-32.1-3.9-52
			c0-0.5,0-1.1,0-1.6c0-1.8,0.1-3.6,0.1-5.4c0.2-7.4,0.7-14.4,1.4-21c0.2-2.2,0.5-4.4,0.7-6.5c0.4-3.7,0.9-7.2,1.5-10.6
			c0.2-1.1,0.4-2.3,0.5-3.3c0.5-2.8,2.8-4.9,5.4-4.9l21.6,0.1l4.3,0c2.7,0,5,2.2,5.4,5.2c0.5,4.3,1,8.8,1.4,13.5
			c0.2,2.1,0.4,4.3,0.5,6.5c0.6,8,1,16.5,1,25.5C324.4,531.4,322.9,549.7,320.8,565.6z"/>
		<polyline class="st86" points="215.4,319.9 168.1,319.9 178.8,243.3 247.3,243.3 315.8,243.3 326.5,319.9 279.1,319.9 		"/>
		<path class="st9" d="M289.2,325.5h-83.9c0,0,3.2-2.8,10.1-5.6c6.9-2.8,17.3-5.6,31.9-5.6s25,2.8,31.9,5.6
			C286,322.7,289.2,325.5,289.2,325.5z"/>
	</g>
</g>
</svg>
