<?xml version="1.0" encoding="utf-8"?>
<!-- Generator: Adobe Illustrator 23.0.3, SVG Export Plug-In . SVG Version: 6.00 Build 0)  -->
<svg version="1.1" xmlns="http://www.w3.org/2000/svg" xmlns:xlink="http://www.w3.org/1999/xlink" x="0px" y="0px"
	 viewBox="0 0 700 700" style="enable-background:new 0 0 700 700;" xml:space="preserve">
<style type="text/css">
	.st0{fill:none;stroke:#000000;stroke-width:3;stroke-linecap:round;stroke-linejoin:round;stroke-miterlimit:10;}
	.st1{fill:none;stroke:#333333;stroke-width:3;stroke-linecap:round;stroke-linejoin:round;stroke-miterlimit:10;}
	.st2{stroke:#333333;stroke-miterlimit:10;}
	.st3{fill:none;stroke:#333333;stroke-width:4;stroke-linecap:round;stroke-linejoin:round;stroke-miterlimit:10;}
	.st4{fill:#333333;stroke:#000000;stroke-width:3;stroke-linecap:round;stroke-linejoin:round;stroke-miterlimit:10;}
	.st5{fill:#999999;stroke:#000000;stroke-width:3;stroke-linecap:round;stroke-linejoin:round;stroke-miterlimit:10;}
	.st6{opacity:0.3;clip-path:url(#XMLID_73_);}
	.st7{opacity:0.7;clip-path:url(#XMLID_74_);fill:#C69C6D;}
	.st8{opacity:0.7;clip-path:url(#XMLID_75_);fill:#C69C6D;}
	.st9{fill:#3FA9F5;stroke:#000000;stroke-width:3;stroke-linecap:round;stroke-linejoin:round;stroke-miterlimit:10;}
	.st10{fill:#0077AE;stroke:#000000;stroke-width:3;stroke-linecap:round;stroke-linejoin:round;stroke-miterlimit:10;}
	.st11{opacity:0.3;clip-path:url(#XMLID_78_);}
	.st12{fill:#E9F8FF;stroke:#000000;stroke-width:3;stroke-linecap:round;stroke-linejoin:round;stroke-miterlimit:10;}
	.st13{opacity:0.3;clip-path:url(#XMLID_79_);}
	.st14{opacity:0.7;fill:#C69C6D;}
	.st15{fill:#C69C6D;}
	.st16{fill:none;stroke:#000000;stroke-miterlimit:10;}
	.st17{display:none;}
	.st18{display:inline;}
	
		.st19{display:inline;fill:#FFFCDE;stroke:#000000;stroke-width:3;stroke-linecap:round;stroke-linejoin:round;stroke-miterlimit:10;}
	
		.st20{display:inline;fill:#333333;stroke:#000000;stroke-width:3;stroke-linecap:round;stroke-linejoin:round;stroke-miterlimit:10;}
	
		.st21{display:inline;fill:#999999;stroke:#000000;stroke-width:3;stroke-linecap:round;stroke-linejoin:round;stroke-miterlimit:10;}
	.st22{display:inline;fill:none;stroke:#000000;stroke-width:3;stroke-linecap:round;stroke-linejoin:round;stroke-miterlimit:10;}
	.st23{opacity:0.3;clip-path:url(#XMLID_80_);}
	
		.st24{display:inline;fill:#3FA9F5;stroke:#000000;stroke-width:3;stroke-linecap:round;stroke-linejoin:round;stroke-miterlimit:10;}
	.st25{clip-path:url(#XMLID_81_);fill:#FFFCDE;}
	
		.st26{display:inline;fill:#0077AE;stroke:#000000;stroke-width:3;stroke-linecap:round;stroke-linejoin:round;stroke-miterlimit:10;}
	.st27{opacity:0.3;clip-path:url(#XMLID_83_);}
	
		.st28{display:inline;fill:#E9F8FF;stroke:#000000;stroke-width:3;stroke-linecap:round;stroke-linejoin:round;stroke-miterlimit:10;}
	.st29{opacity:0.3;clip-path:url(#XMLID_84_);}
	.st30{opacity:0.3;clip-path:url(#XMLID_85_);}
	.st31{clip-path:url(#XMLID_86_);fill:#FFFCDE;}
	.st32{opacity:0.3;clip-path:url(#XMLID_88_);}
	.st33{opacity:0.3;clip-path:url(#XMLID_89_);}
	.st34{fill:none;}
	.st35{fill:none;stroke:#000000;stroke-width:2;stroke-linecap:round;stroke-linejoin:round;stroke-miterlimit:10;}
	.st36{fill:#FFFFFF;}
	.st37{fill:#2C2E3D;}
	.st38{fill:#C7762B;}
	.st39{fill:#8F521A;}
	.st40{clip-path:url(#XMLID_90_);fill:#ACB5AC;}
	.st41{clip-path:url(#XMLID_91_);fill:#ACB5AC;}
	.st42{fill:#2C2721;}
	.st43{opacity:0.35;clip-path:url(#SVGID_2_);fill:#C7762B;}
	.st44{clip-path:url(#SVGID_2_);fill:#51525B;}
	.st45{opacity:0.35;clip-path:url(#SVGID_4_);fill:#C7762B;}
	.st46{fill:#6A2317;}
	.st47{opacity:0.35;fill:#6A2317;}
	.st48{fill:#6F2B1C;}
	.st49{fill:#2A2520;}
	.st50{fill:#FAAC86;}
	.st51{opacity:0.35;clip-path:url(#SVGID_6_);fill:#FBB282;}
	.st52{fill:#FBB282;}
	.st53{opacity:0.32;fill:#FBB282;}
	.st54{fill:#F58D6A;}
	.st55{fill:none;stroke:#6D3337;stroke-width:2;stroke-linecap:round;stroke-linejoin:round;stroke-miterlimit:10;}
	.st56{fill:#333333;}
	.st57{fill:#8C3E37;}
	.st58{opacity:0.35;clip-path:url(#XMLID_92_);fill:#4F515B;}
	.st59{opacity:0.35;fill:#51525B;}
	.st60{fill:#51525B;}
	.st61{fill:none;stroke:#3A3B46;stroke-width:2;stroke-linecap:round;stroke-miterlimit:10;}
	.st62{stroke:#000000;stroke-miterlimit:10;}
	.st63{fill:none;stroke:#000000;stroke-width:3;stroke-miterlimit:10;}
	.st64{fill:#333333;stroke:#000000;stroke-width:3;stroke-miterlimit:10;}
	.st65{fill:none;stroke:#333333;stroke-width:16;stroke-miterlimit:10;}
	.st66{clip-path:url(#XMLID_93_);fill:#ACB5AC;}
	.st67{clip-path:url(#XMLID_94_);fill:#ACB5AC;}
	.st68{opacity:0.35;clip-path:url(#SVGID_8_);fill:#C7762B;}
	.st69{clip-path:url(#SVGID_8_);fill:#51525B;}
	.st70{opacity:0.35;clip-path:url(#SVGID_10_);fill:#C7762B;}
	.st71{opacity:6.000000e-02;fill:#FFFFFF;}
	.st72{opacity:0.35;clip-path:url(#SVGID_12_);fill:#FBB282;}
	.st73{opacity:0.35;clip-path:url(#XMLID_95_);fill:#4F515B;}
	.st74{fill:none;stroke:#FFA26B;stroke-width:2;stroke-linecap:round;stroke-linejoin:round;stroke-miterlimit:10;}
	.st75{opacity:0.3;}
	.st76{fill:none;stroke:#333333;stroke-width:16;stroke-linecap:round;stroke-linejoin:round;stroke-miterlimit:10;}
	.st77{fill:none;stroke:#333333;stroke-width:10;stroke-linecap:round;stroke-linejoin:round;stroke-miterlimit:10;}
	.st78{fill:none;stroke:#333333;stroke-width:10;stroke-miterlimit:10;}
	.st79{fill:#FFFFFF;stroke:#333333;stroke-width:3;stroke-linecap:round;stroke-linejoin:round;stroke-miterlimit:10;}
	.st80{fill:#FFFFFF;stroke:#333333;stroke-width:3;stroke-miterlimit:10;}
	.st81{fill:none;stroke:#333333;stroke-width:24;stroke-miterlimit:10;}
	.st82{opacity:0.3;clip-path:url(#XMLID_97_);}
	.st83{fill:#9BD5F9;stroke:#000000;stroke-width:3;stroke-linecap:round;stroke-linejoin:round;stroke-miterlimit:10;}
	.st84{opacity:0.3;clip-path:url(#XMLID_98_);}
	.st85{opacity:0.3;clip-path:url(#XMLID_99_);}
	.st86{fill:#FFFCDE;stroke:#000000;stroke-width:3;stroke-linecap:round;stroke-linejoin:round;stroke-miterlimit:10;}
	.st87{fill:#999999;stroke:#000000;stroke-width:3;stroke-miterlimit:10;}
	.st88{opacity:0.3;clip-path:url(#XMLID_100_);}
	.st89{opacity:0.3;clip-path:url(#XMLID_102_);}
	.st90{opacity:0.3;clip-path:url(#XMLID_103_);}
	.st91{opacity:0.3;clip-path:url(#XMLID_104_);}
	.st92{opacity:0.3;clip-path:url(#XMLID_105_);}
	.st93{fill:#E2E0E0;stroke:#333333;stroke-width:10;stroke-linecap:round;stroke-linejoin:round;stroke-miterlimit:10;}
	.st94{fill:#9BD5F9;stroke:#333333;stroke-width:10;stroke-linecap:round;stroke-linejoin:round;stroke-miterlimit:10;}
	.st95{fill:#E4B357;stroke:#333333;stroke-width:10;stroke-linecap:round;stroke-linejoin:round;stroke-miterlimit:10;}
	.st96{fill:#E1495C;stroke:#333333;stroke-width:10;stroke-linecap:round;stroke-linejoin:round;stroke-miterlimit:10;}
	.st97{fill:#FFFFFF;stroke:#333333;stroke-width:10;stroke-linecap:round;stroke-linejoin:round;stroke-miterlimit:10;}
	.st98{fill:#77AEC1;stroke:#333333;stroke-width:10;stroke-linecap:round;stroke-linejoin:round;stroke-miterlimit:10;}
	.st99{fill:#559AB1;stroke:#333333;stroke-width:10;stroke-linecap:round;stroke-linejoin:round;stroke-miterlimit:10;}
	.st100{fill:#E2E0E0;stroke:#333333;stroke-width:3;stroke-linecap:round;stroke-linejoin:round;stroke-miterlimit:10;}
	.st101{opacity:0.3;fill:#ADACAC;}
	.st102{opacity:0.3;clip-path:url(#XMLID_106_);fill:#333333;}
	.st103{opacity:0.3;clip-path:url(#XMLID_107_);fill:#333333;}
	.st104{fill:#E4B357;stroke:#333333;stroke-width:3;stroke-linecap:round;stroke-linejoin:round;stroke-miterlimit:10;}
	.st105{opacity:0.3;clip-path:url(#XMLID_108_);fill:#333333;}
	.st106{opacity:0.3;clip-path:url(#XMLID_110_);}
	.st107{opacity:0.3;clip-path:url(#XMLID_111_);}
	.st108{opacity:0.3;clip-path:url(#XMLID_112_);}
	.st109{opacity:0.3;clip-path:url(#XMLID_113_);}
	.st110{fill:#E2E0E0;stroke:#333333;stroke-width:6;stroke-linecap:round;stroke-linejoin:round;stroke-miterlimit:10;}
	.st111{fill:#9BD5F9;stroke:#333333;stroke-width:6;stroke-linecap:round;stroke-linejoin:round;stroke-miterlimit:10;}
	.st112{fill:#E4B357;stroke:#333333;stroke-width:6;stroke-linecap:round;stroke-linejoin:round;stroke-miterlimit:10;}
	.st113{fill:none;stroke:#333333;stroke-width:6;stroke-linecap:round;stroke-linejoin:round;stroke-miterlimit:10;}
	.st114{opacity:0.3;clip-path:url(#XMLID_114_);fill:#333333;}
	.st115{opacity:0.3;clip-path:url(#XMLID_115_);fill:#333333;}
	.st116{opacity:0.3;clip-path:url(#XMLID_116_);fill:#333333;}
</style>
<g id="контур__x28_копия_x29_">
</g>
<g id="цвет">
</g>
<g id="_x31__монтажная_область">
</g>
<g id="_x32__монтажная_область">
	<g class="st17">
		<g class="st18">
			<path d="M482,291.9l-0.8-89.5c0-0.9,0.6-1.8,1.7-2.4l27.2-14.3l5.4,4.7l-25.4,13.4l0.7,88.1L482,291.9z"/>
		</g>
		<path class="st19" d="M597.1,429.4h5.8c2.2,0,4.3,1.3,5.2,3.3l14.2,31c1.7,3.8-1,8.1-5.2,8.1h-5"/>
		<path class="st20" d="M230.1,355.3c-22.3,0-42.8,7.3-59.4,19.6c-24.6,18.2-40.6,47.5-40.6,80.4c0,55.2,44.8,100,100,100
			c52.8,0,96-40.9,99.7-92.7c0.2-2.4,0.3-4.8,0.3-7.3C330.1,400.1,285.3,355.3,230.1,355.3z M230.1,508.2
			c-29.2,0-52.8-23.7-52.8-52.8c0-29.2,23.6-52.8,52.8-52.8c29.2,0,52.8,23.6,52.8,52.8C282.9,484.5,259.2,508.2,230.1,508.2z"/>
		<path class="st21" d="M230.1,402.5c-29.2,0-52.8,23.6-52.8,52.8c0,29.2,23.6,52.8,52.8,52.8c29.2,0,52.8-23.7,52.8-52.8
			C282.9,426.2,259.2,402.5,230.1,402.5z M230.1,479c-13,0-23.6-10.6-23.6-23.6c0-13.1,10.6-23.6,23.6-23.6
			c13.1,0,23.6,10.6,23.6,23.6C253.7,468.4,243.1,479,230.1,479z"/>
		<path class="st20" d="M253.7,455.3c0,13-10.6,23.6-23.6,23.6c-13,0-23.6-10.6-23.6-23.6c0-13.1,10.6-23.6,23.6-23.6
			C243.1,431.7,253.7,442.3,253.7,455.3z"/>
		<path class="st20" d="M557.7,475.3c0,13-10.6,23.6-23.6,23.6c-13,0-23.6-10.6-23.6-23.6c0-13.1,10.6-23.6,23.6-23.6
			C547.1,451.7,557.7,462.3,557.7,475.3z"/>
		<path class="st22" d="M369.1,215.3h34.2c5.4,0,9.8,4.4,9.8,9.8v27.5c0,5.4-4.4,9.8-9.8,9.8h-26.5"/>
		<g class="st18">
			<defs>
				<polygon id="XMLID_15_" points="400.5,223.3 413.1,238.8 400.5,254.3 				"/>
			</defs>
			<use xlink:href="#XMLID_15_"  style="overflow:visible;fill:#3FA9F5;"/>
			<clipPath id="XMLID_73_">
				<use xlink:href="#XMLID_15_"  style="overflow:visible;"/>
			</clipPath>
			<path class="st6" d="M396.1,232.8l15.2,6l-1.5-13.2l-6.6-7.3c0,0-7.1-1.7-7.1,0C396.1,220.1,396.1,232.8,396.1,232.8z"/>
			
				<use xlink:href="#XMLID_15_"  style="overflow:visible;fill:none;stroke:#000000;stroke-width:3;stroke-linecap:round;stroke-linejoin:round;stroke-miterlimit:10;"/>
		</g>
		<path class="st24" d="M515.6,399.5c-30.1,7.3-53.4,32.1-58.5,63.1h-61v-46.9c0-4-1.5-7.8-4.3-10.7l-7.3-7.7l1.3-34.6h117.9
			C503.7,363,515.6,399.5,515.6,399.5z"/>
		<path id="XMLID_14_" class="st24" d="M391.8,405l-7.3-7.7l1.3-34.6l1.3-36.4l-18.9-118H201.1L194,328.4l-34.9,21.9l11.6,24.6
			c16.6-12.3,37.2-19.6,59.4-19.6c55.2,0,100,44.8,100,100c0,2.4-0.1,4.9-0.3,7.3h66.3v-46.9C396.1,411.7,394.5,407.9,391.8,405z
			 M278.1,321.3h-77l6-104h71V321.3z M377.1,397.3h-30l-62-65l-0.1-114l77.1,1l15,106V397.3z"/>
		<path class="st24" d="M362.1,219.3l-77.1-1l0.1,114l62,65h30v-72L362.1,219.3z M292.1,229.3h65l10,92h-75V229.3z M369.1,386.2
			c0,1.7-1.4,3.1-3.1,3.1h-16.1c-0.9,0-1.8-0.4-2.4-1.1L313.9,348c-1.7-2-0.3-5.1,2.4-5.1H366c1.7,0,3.1,1.4,3.1,3.1V386.2z"/>
		<g class="st18">
			<defs>
				<polygon id="XMLID_13_" points="367.1,321.3 292.1,321.3 292.1,229.3 357.1,229.3 				"/>
			</defs>
			<use xlink:href="#XMLID_13_"  style="overflow:visible;fill:#E9F8FF;"/>
			<clipPath id="XMLID_74_">
				<use xlink:href="#XMLID_13_"  style="overflow:visible;"/>
			</clipPath>
			
				<rect x="307" y="223.3" transform="matrix(0.956 0.2933 -0.2933 0.956 94.2322 -78.8491)" style="clip-path:url(#XMLID_74_);fill:#FFFCDE;" width="6.1" height="103"/>
			
				<rect x="322" y="223.8" transform="matrix(0.956 0.2933 -0.2933 0.956 95.0367 -83.217)" style="clip-path:url(#XMLID_74_);fill:#FFFCDE;" width="6.1" height="103"/>
			
				<rect x="346" y="231.3" transform="matrix(0.956 0.2933 -0.2933 0.956 98.2452 -89.5855)" style="clip-path:url(#XMLID_74_);fill:#FFFCDE;" width="3.8" height="103"/>
			
				<rect x="353.2" y="234.2" transform="matrix(0.956 0.2933 -0.2933 0.956 99.3907 -91.5574)" style="clip-path:url(#XMLID_74_);fill:#FFFCDE;" width="3.8" height="103"/>
			
				<use xlink:href="#XMLID_13_"  style="overflow:visible;fill:none;stroke:#000000;stroke-width:3;stroke-linecap:round;stroke-linejoin:round;stroke-miterlimit:10;"/>
		</g>
		<g class="st18">
			<defs>
				<polygon id="XMLID_12_" points="278.1,217.3 278.1,321.3 201.1,321.3 207.1,217.3 				"/>
			</defs>
			<use xlink:href="#XMLID_12_"  style="overflow:visible;fill:#E9F8FF;"/>
			<clipPath id="XMLID_75_">
				<use xlink:href="#XMLID_12_"  style="overflow:visible;"/>
			</clipPath>
			
				<use xlink:href="#XMLID_12_"  style="overflow:visible;fill:none;stroke:#000000;stroke-width:3;stroke-linecap:round;stroke-linejoin:round;stroke-miterlimit:10;"/>
		</g>
		<polygon id="XMLID_11_" class="st26" points="368.2,208.3 201.1,208.3 214.1,201.3 367.1,201.3 		"/>
		<g class="st18">
			<defs>
				<path id="XMLID_10_" d="M565.5,404c-9.6-4.3-20.3-6.6-31.5-6.6c-6.4,0-12.6,0.8-18.5,2.2c0,0-11.9-36.6-11.9-36.8H385.7
					l1.1-29.5l0.3-7l80.7,4.9l35.4,2.1l50,3l8.3,44.7l2.7,14.6L565.5,404z"/>
			</defs>
			<use xlink:href="#XMLID_10_"  style="overflow:visible;fill:#3FA9F5;"/>
			<clipPath id="XMLID_76_">
				<use xlink:href="#XMLID_10_"  style="overflow:visible;"/>
			</clipPath>
			<path style="opacity:0.3;clip-path:url(#XMLID_76_);" d="M384.5,335.5l175.1,10c0,0-1-15-5.1-15c-4.1,0-171.9-9.1-171.9-9.1
				L384.5,335.5z"/>
			
				<use xlink:href="#XMLID_10_"  style="overflow:visible;fill:none;stroke:#000000;stroke-width:3;stroke-linecap:round;stroke-linejoin:round;stroke-miterlimit:10;"/>
		</g>
		<path class="st28" d="M369.1,346v40.3c0,1.7-1.4,3.1-3.1,3.1h-16.1c-0.9,0-1.8-0.4-2.4-1.1L313.9,348c-1.7-2-0.3-5.1,2.4-5.1H366
			C367.7,342.9,369.1,344.2,369.1,346z"/>
		<g class="st18">
			<path d="M305.2,370.4c-1.3,1.3-3,2-4.7,2c-1.6,0-3.3-0.6-4.5-1.8l-20.1-19.3H159.6c-3.6,0-6.5-2.9-6.5-6.5c0-3.6,2.9-6.5,6.5-6.5
				h119c1.7,0,3.3,0.6,4.5,1.8l22,21.2C307.6,363.7,307.7,367.8,305.2,370.4z"/>
		</g>
		<g class="st18">
			<defs>
				<polygon id="XMLID_9_" points="503.1,333.3 467.7,331.2 471,307.8 472,300.8 498.5,300.8 				"/>
			</defs>
			<use xlink:href="#XMLID_9_"  style="overflow:visible;fill:#3FA9F5;"/>
			<clipPath id="XMLID_77_">
				<use xlink:href="#XMLID_9_"  style="overflow:visible;"/>
			</clipPath>
			<path style="opacity:0.3;clip-path:url(#XMLID_77_);" d="M492.1,309.2l4.3,26.3c0,0,10.7,1.9,10.7,0s-7.1-40.9-7.1-40.9
				l-32.2,1.3c0,0-3.1,10.5-1.8,10.5C467.2,306.4,492.1,309.2,492.1,309.2z"/>
			
				<use xlink:href="#XMLID_9_"  style="overflow:visible;fill:none;stroke:#000000;stroke-width:3;stroke-linecap:round;stroke-linejoin:round;stroke-miterlimit:10;"/>
		</g>
		<rect x="479.5" y="288.4" class="st24" width="12.6" height="12.5"/>
		<path class="st18" d="M376.6,401h-31.2c-0.8,0-1.5,0.7-1.5,1.5v105.6c0,0.8,0.7,1.5,1.5,1.5h31.2c0.8,0,1.5-0.7,1.5-1.5V402.5
			C378.1,401.7,377.4,401,376.6,401z M375.1,404v20.4h-28.2V404H375.1z M346.8,498.6v-27.6h28.2v27.6H346.8z M346.8,461.5V434h28.2
			v27.6H346.8z"/>
		<line class="st22" x1="404.7" y1="394.5" x2="409.2" y2="422.5"/>
		<line class="st22" x1="413.1" y1="394.5" x2="417.5" y2="422.5"/>
		<line class="st22" x1="421.4" y1="394.5" x2="425.9" y2="422.5"/>
		<line class="st22" x1="429.8" y1="394.5" x2="434.3" y2="422.5"/>
		<line class="st22" x1="438.1" y1="394.5" x2="442.6" y2="422.5"/>
	</g>
	<g>
		<path class="st4" d="M164.7,376.1c-22.3,0-42.8,7.3-59.4,19.6c-24.6,18.2-40.6,47.5-40.6,80.4c0,55.2,44.8,100,100,100
			c52.8,0,96-40.9,99.7-92.7c0.2-2.4,0.3-4.8,0.3-7.3C264.7,420.9,219.9,376.1,164.7,376.1z M164.7,528.9
			c-29.2,0-52.8-23.7-52.8-52.8c0-29.2,23.6-52.8,52.8-52.8c29.2,0,52.8,23.6,52.8,52.8C217.5,505.3,193.9,528.9,164.7,528.9z"/>
		<path class="st5" d="M164.7,423.3c-29.2,0-52.8,23.6-52.8,52.8c0,29.2,23.6,52.8,52.8,52.8c29.2,0,52.8-23.7,52.8-52.8
			C217.5,446.9,193.9,423.3,164.7,423.3z M164.7,499.7c-13,0-23.6-10.6-23.6-23.6c0-13.1,10.6-23.6,23.6-23.6
			c13.1,0,23.6,10.6,23.6,23.6C188.3,489.1,177.8,499.7,164.7,499.7z"/>
		<path class="st4" d="M188.3,476.1c0,13-10.6,23.6-23.6,23.6c-13,0-23.6-10.6-23.6-23.6c0-13.1,10.6-23.6,23.6-23.6
			C177.8,452.5,188.3,463,188.3,476.1z"/>
	</g>
	<path class="st0" d="M348.8,279.3l33.7,6.1c5.3,1,8.8,6,7.9,11.3l-4.9,27c-1,5.3-6,8.8-11.3,7.9l-26.1-4.7"/>
	<g>
		<defs>
			<polygon id="XMLID_29_" points="378.4,292.7 388,310.2 372.9,323.2 			"/>
		</defs>
		<use xlink:href="#XMLID_29_"  style="overflow:visible;fill:#3FA9F5;"/>
		<clipPath id="XMLID_78_">
			<use xlink:href="#XMLID_29_"  style="overflow:visible;"/>
		</clipPath>
		<path class="st11" d="M372.3,301.3l13.9,8.6l0.8-13.2l-5.2-8.4c0,0-6.6-2.9-6.9-1.2C374.6,288.7,372.3,301.3,372.3,301.3z"/>
		
			<use xlink:href="#XMLID_29_"  style="overflow:visible;fill:none;stroke:#000000;stroke-width:3;stroke-linecap:round;stroke-linejoin:round;stroke-miterlimit:10;"/>
	</g>
	<path class="st9" d="M460.4,486.5c-30.9,1.9-58.2,22.2-68.7,51.7l-60.1-10.8l8.3-46.1c0.7-3.9-0.1-8-2.3-11.3l-5.8-8.8l7.4-33.8
		l116,20.9C455.2,448.4,460.4,486.5,460.4,486.5z"/>
	<path id="XMLID_28_" class="st9" d="M184.7,242.6l-28.2,117l-17.2,6.9l-21.1,8.5l0.3,1l6.8,25.3c18.5-9.2,40.1-12.7,62-8.8
		c49.8,9,84.3,53.3,82.2,102.5c0,0.5,0,1-0.1,1.5c-0.2,4-0.7,8.1-1.4,12.1c-0.4,2.4-1,4.8-1.5,7.1l11.6,2.1l21.4,3.8l17.1,3.1l5.4,1
		l9.7,1.8l8.3-46.1c0.7-3.9-0.1-8-2.3-11.3l-5.8-8.8l7.3-33.8l7.8-35.6l1.3-64.8l0.9-47.6l0.1-7.1L184.7,242.6z M189,252.5
		l69.9,12.6l-18.4,102.4l-75.8-13.6L189,252.5z M337.2,389l-12.8,70.9l-29.5-5.3l-49.5-75l20.1-112.2l75.7,14.6L337.2,389z"/>
	<polygon class="st0" points="258.9,265.1 240.5,367.5 164.7,353.8 189,252.5 	"/>
	<path class="st9" d="M341.2,282l-75.7-14.6l-20.1,112.2l49.5,75l29.5,5.3l12.8-70.9L341.2,282z M270.6,279.4l64,11.5l-6.5,92.3
		L254.3,370L270.6,279.4z M318.6,447.5c-0.3,1.7-1.9,2.8-3.6,2.5l-15.8-2.8c-0.9-0.2-1.7-0.7-2.1-1.5L271,400
		c-1.3-2.3,0.7-5.1,3.3-4.6l48.9,8.8c1.7,0.3,2.8,1.9,2.5,3.6L318.6,447.5z"/>
	<g>
		<defs>
			<polygon id="XMLID_27_" points="328.1,383.2 254.3,370 270.6,279.4 334.5,290.9 			"/>
		</defs>
		<use xlink:href="#XMLID_27_"  style="overflow:visible;fill:#E9F8FF;"/>
		<clipPath id="XMLID_79_">
			<use xlink:href="#XMLID_27_"  style="overflow:visible;"/>
		</clipPath>
		
			<rect x="277.2" y="275.9" transform="matrix(0.889 0.4579 -0.4579 0.889 181.0362 -91.9869)" style="clip-path:url(#XMLID_79_);fill:#FFFCDE;" width="6.1" height="103"/>
		
			<rect x="291.8" y="279" transform="matrix(0.889 0.4579 -0.4579 0.889 184.1008 -98.3441)" style="clip-path:url(#XMLID_79_);fill:#FFFCDE;" width="6.1" height="103"/>
		
			<rect x="314.2" y="290.5" transform="matrix(0.889 0.4579 -0.4579 0.889 191.6891 -106.7596)" style="clip-path:url(#XMLID_79_);fill:#FFFCDE;" width="3.8" height="103"/>
		
			<rect x="320.7" y="294.5" transform="matrix(0.889 0.4579 -0.4579 0.889 194.2718 -109.3015)" style="clip-path:url(#XMLID_79_);fill:#FFFCDE;" width="3.8" height="103"/>
		
			<use xlink:href="#XMLID_27_"  style="overflow:visible;fill:none;stroke:#000000;stroke-width:3;stroke-linecap:round;stroke-linejoin:round;stroke-miterlimit:10;"/>
	</g>
	<g>
		<defs>
			<polygon id="XMLID_26_" points="254.3,278.2 240.8,369.6 167.5,358.8 188,280.7 			"/>
		</defs>
		<use xlink:href="#XMLID_26_"  style="overflow:visible;fill:#E9F8FF;"/>
		<clipPath id="XMLID_80_">
			<use xlink:href="#XMLID_26_"  style="overflow:visible;"/>
		</clipPath>
		
			<use xlink:href="#XMLID_26_"  style="overflow:visible;fill:none;stroke:#000000;stroke-width:3;stroke-linecap:round;stroke-linejoin:round;stroke-miterlimit:10;"/>
	</g>
	<polygon id="XMLID_25_" class="st10" points="349.2,272.2 184.7,242.6 198.8,238 349.3,265.1 	"/>
	<g>
		<defs>
			<path id="XMLID_24_" d="M508.8,499.7c-8.7-5.9-18.8-10.1-29.8-12.1c-6.3-1.1-12.5-1.5-18.6-1.1c0,0-5.2-38.1-5.2-38.3l-116-20.9
				l6.3-28.8l1.5-6.8l78.5,19.1l34.4,8.4l48.6,11.8l0.2,45.5l0.1,14.8L508.8,499.7z"/>
		</defs>
		<use xlink:href="#XMLID_24_"  style="overflow:visible;fill:#3FA9F5;"/>
		<clipPath id="XMLID_81_">
			<use xlink:href="#XMLID_24_"  style="overflow:visible;"/>
		</clipPath>
		<path style="opacity:0.3;clip-path:url(#XMLID_81_);" d="M342.7,400.2L513.3,441c0,0,1.6-14.9-2.4-15.6
			c-4-0.7-167.6-39.4-167.6-39.4L342.7,400.2z"/>
		
			<use xlink:href="#XMLID_24_"  style="overflow:visible;fill:none;stroke:#000000;stroke-width:3;stroke-linecap:round;stroke-linejoin:round;stroke-miterlimit:10;"/>
	</g>
	<path class="st12" d="M325.7,407.8l-7.1,39.6c-0.3,1.7-1.9,2.8-3.6,2.5l-15.8-2.8c-0.9-0.2-1.7-0.7-2.1-1.5L271,400
		c-1.3-2.3,0.7-5.1,3.3-4.6l48.9,8.8C324.9,404.5,326,406.1,325.7,407.8z"/>
	<g>
		<path d="M258.5,420.6c-1.5,1.1-3.3,1.4-5,1.1c-1.6-0.3-3.1-1.2-4.1-2.6l-16.3-22.6l-114.5-20.6c-3.5-0.6-5.9-4-5.2-7.5
			c0.6-3.5,4-5.9,7.5-5.2L238,384.2c1.7,0.3,3.1,1.2,4.1,2.6l17.9,24.7C262.1,414.4,261.4,418.5,258.5,420.6z"/>
	</g>
	<g>
		<defs>
			<polygon id="XMLID_23_" points="459.8,419.1 425.4,410.8 432.8,388.4 435,381.6 461.1,386.3 			"/>
		</defs>
		<use xlink:href="#XMLID_23_"  style="overflow:visible;fill:#3FA9F5;"/>
		<clipPath id="XMLID_82_">
			<use xlink:href="#XMLID_23_"  style="overflow:visible;"/>
		</clipPath>
		<path style="opacity:0.3;clip-path:url(#XMLID_82_);" d="M453.3,393.4l-0.5,26.6c0,0,10.2,3.8,10.6,1.9s0.2-41.5,0.2-41.5
			l-31.9-4.4c0,0-4.9,9.8-3.6,10C429.3,386.2,453.3,393.4,453.3,393.4z"/>
		
			<use xlink:href="#XMLID_23_"  style="overflow:visible;fill:none;stroke:#000000;stroke-width:3;stroke-linecap:round;stroke-linejoin:round;stroke-miterlimit:10;"/>
	</g>
	
		<rect x="443.4" y="371.7" transform="matrix(0.1771 -0.9842 0.9842 0.1771 -1.9737 753.5584)" class="st9" width="12.5" height="12.6"/>
	<path d="M270.2,494.3c-0.8,0.3-1.2,1.3-0.9,2.1L313,604.2c12.2-5.4,24.4-10.7,36.6-16.1c-15.5-35.1-31.1-70.3-46.6-105.4
		C292,486.6,281.1,490.4,270.2,494.3z M339.7,582.1L312,593.3l-11.4-28.1l27.7-11.2L339.7,582.1z M324.4,544.2l-27.7,11.2
		l-11.4-28.1l27.7-11.2L324.4,544.2z M281.3,517.6l-8.4-20.9l27.7-11.2l8.4,20.9L281.3,517.6z"/>
	<line class="st0" x1="352.2" y1="461.9" x2="351.6" y2="490.3"/>
	<line class="st0" x1="360.4" y1="463.4" x2="359.8" y2="491.8"/>
	<line class="st0" x1="368.6" y1="464.8" x2="368.1" y2="493.2"/>
	<line class="st0" x1="376.9" y1="466.3" x2="376.3" y2="494.7"/>
	<line class="st0" x1="385.1" y1="467.8" x2="384.5" y2="496.2"/>
	<g>
		<path d="M376.7,527.8c-3.5-0.6-5.9-4-5.2-7.5c9.6-53.3,60.7-88.8,114-79.2c20.1,3.6,38.2,13.2,52.5,27.7c2.5,2.6,2.5,6.7-0.1,9.2
			c-2.6,2.5-6.7,2.5-9.2-0.1c-12.4-12.6-28.1-20.9-45.5-24c-46.2-8.3-90.5,22.5-98.9,68.7C383.7,526,380.3,528.4,376.7,527.8z"/>
	</g>
	<g>
		<path d="M456.4,371.4l-8.9-1.3l3.3-22.1c0.2-1.6,1.4-3,2.9-3.6l2.8-1l-4.5-4.5c-1-1-1.5-2.5-1.2-3.9c0.3-1.4,1.2-2.6,2.5-3.3
			l4.7-2.3l-1.7-1.1c-1.5-0.9-2.3-2.7-2.1-4.4l2.8-21.1c0.2-1.7,1.4-3.1,3-3.7l22.9-7.8l2.9,8.5l-20.3,6.9l-2.1,15.5l6.2,3.9
			c1.4,0.9,2.2,2.4,2.1,4.1s-1.1,3.1-2.5,3.8l-6.4,3.1l4.9,5c1.1,1.1,1.5,2.7,1.2,4.1c-0.3,1.5-1.4,2.7-2.8,3.2l-6.8,2.5
			L456.4,371.4z"/>
	</g>
	<polyline class="st0" points="643.3,573.8 586.2,573.8 535.6,573.8 422.8,573.8 403.7,573.8 53,573.8 	"/>
	<g>
		<path class="st4" d="M557.1,516.1c-0.8-15.7-6.2-30.2-14.9-42.2h0v0c-8-11-18.9-19.8-31.5-25.4c-9.6-4.3-20.3-6.6-31.5-6.6
			c-6.4,0-12.6,0.8-18.5,2.2c-30.1,7.3-53.4,32.1-58.5,63.1c-0.7,4.1-1,8.4-1,12.7c0,10.2,2.2,17.2,3.6,23.5
			c1.6,6.9,3.2,17.1,2.8,30.4c46.6,0,93.3,0,139.9,0c2.1-14.1,4.3-23.9,6.1-30.4c1-3.7,3.6-12.4,3.6-23.4
			C557.2,518.6,557.2,517.4,557.1,516.1z M479.2,572.8c-29.2,0-52.8-23.7-52.8-52.8s23.6-52.8,52.8-52.8c29.2,0,52.8,23.7,52.8,52.8
			S508.4,572.8,479.2,572.8z"/>
		<path class="st5" d="M479.2,467.1c-29.2,0-52.8,23.7-52.8,52.8s23.6,52.8,52.8,52.8c29.2,0,52.8-23.7,52.8-52.8
			S508.4,467.1,479.2,467.1z M479.2,543.6c-13,0-23.6-10.6-23.6-23.6s10.6-23.6,23.6-23.6c13.1,0,23.6,10.6,23.6,23.6
			S492.3,543.6,479.2,543.6z"/>
		<path class="st4" d="M502.9,519.9c0,13-10.6,23.6-23.6,23.6c-13,0-23.6-10.6-23.6-23.6c0-13.1,10.6-23.6,23.6-23.6
			C492.3,496.3,502.9,506.9,502.9,519.9z"/>
	</g>
	<g id="Слой_5">
		<g>
			<path class="st34" d="M494.9,244.7c0.3,1.9,0.1,3.8-0.4,5.7"/>
			<path class="st35" d="M518.2,267.7c-3.3,1.9-6.8,3.5-10.3,4.9c4.1,0,8.1,0,12.2,0.1"/>
			<path class="st35" d="M520.9,275.7c1.2,1.7,3.3,2.5,5.3,2.3c2-0.3,3.7-1.7,4.5-3.6c2.7,2.2,6.6,2.7,9.6,1s4.9-5.5,4.4-9.1
				s-3.3-6.7-6.7-7.2c3.2-1.1,4.6-5.9,2.9-9c-1.7-3.2-5.7-4.3-8.9-3.1c-3.2,1.3-5.4,4.7-6,8.3c-2.1-0.9-4.5-1.1-6.5-0.2
				c-2.1,0.9-3.8,2.9-4.1,5.2c-0.3,2.4,0.9,5,3,5.8"/>
			<path class="st35" d="M493.9,243.8c-0.8,2.3-1.9,5-3.6,7.9c-2.3,3.9-4.9,6.8-7,8.7c5.1-2,10.1-4.2,15-6.7
				c-0.4,1.3-0.9,2.6-1.6,3.8c2.8-2,5.6-4,8.5-6.1"/>
			<path class="st35" d="M493.9,243.8c-2.8,1-5.8-0.3-7-2.8c-1.2-2.4-0.7-5.4,1-7.1c0.8-0.8,1.7-1.2,2.3-1.3
				c-0.2-1.2-0.5-3.6,0.4-6.3c0.4-1.2,1.1-3.6,3.3-5.3c3.5-2.8,8-1.3,9-1c3.1,1,5,3.1,5.8,4.2c2.7-2.3,6.4-3.3,9.6-2.2
				c3.3,1.1,5.8,4.5,5.9,8.2s-2.7,7.3-6.1,7.6c1.7,3.8,0.2,9-3.4,11c-3.7,2.1-8.3,0.6-10.3-3.3"/>
		</g>
		<g>
			
				<rect x="431.7" y="398.8" transform="matrix(0.8039 0.5948 -0.5948 0.8039 347.7985 -175.3981)" class="st36" width="16.3" height="81.8"/>
			
				<rect x="431.7" y="398.8" transform="matrix(-0.4719 0.8817 -0.8817 -0.4719 1035.0858 259.3436)" class="st36" width="16.3" height="81.8"/>
		</g>
	</g>
	<g>
		<path class="st37" d="M567,345.3c0,0,9,8.4,9.6,11.7h-3.8c0,0-6.1-4.4-6.2-4.6c-0.2-0.2-1.3-5.3-1.3-5.3L567,345.3z"/>
		<ellipse class="st38" cx="615.3" cy="506.3" rx="12.4" ry="2.1"/>
		<path class="st39" d="M633.2,602.9c0,0,5,1.7,8.8-0.2c3.8-1.9,12.2-6.3,12.2-6.3V586c0,0-10.1,0.5-12.1,1.3
			C640.1,588.1,632.7,599.2,633.2,602.9z"/>
		<path class="st39" d="M616.6,598.1c0,0-3.8,4-8.1,4s-10.1-2.8-10.1-2.8l0.3-4.7l3.8-2.7c0,0,9.3-0.1,9.9,0.5
			C613,592.9,616.6,598.1,616.6,598.1z"/>
		<g>
			<defs>
				<path id="XMLID_16_" d="M638.8,592.7l10.9,11.1c0,0,4-4.9,4-5.6c0-0.8-0.9-10.1-0.9-10.1L638.8,592.7z"/>
			</defs>
			<use xlink:href="#XMLID_16_"  style="overflow:visible;fill:#CBD6CB;"/>
			<clipPath id="XMLID_83_">
				<use xlink:href="#XMLID_16_"  style="overflow:visible;"/>
			</clipPath>
			<path style="clip-path:url(#XMLID_83_);fill:#ACB5AC;" d="M643.3,595.6c0,0,5.7-2.3,7.7-1.7l0.7-4.5l-11.7,2.4l2.6,4.1
				L643.3,595.6z"/>
		</g>
		<g>
			<defs>
				<path id="XMLID_6_" d="M597.6,588.1c0,0-2.8,14.2-1.7,15.3c1.1,1.2,12.6-0.9,12.6-0.9s8-11.4,4.4-12.7
					C609.3,588.6,597.6,588.1,597.6,588.1z"/>
			</defs>
			<use xlink:href="#XMLID_6_"  style="overflow:visible;fill:#CBD6CB;"/>
			<clipPath id="XMLID_84_">
				<use xlink:href="#XMLID_6_"  style="overflow:visible;"/>
			</clipPath>
			<path style="clip-path:url(#XMLID_84_);fill:#ACB5AC;" d="M600.1,597.4c0,0,8.1,0,10.3,2.2s0.8-8.1,0.8-8.1l-12.1,0.4
				L600.1,597.4z"/>
		</g>
		<path class="st37" d="M650.2,476.6c0,0,8.3,8.3,10.2,7.9l0.3-2.2c0,0-2.3-3.7-2.4-3.8c-0.1-0.1-3.8-1.9-3.8-1.9H650.2z"/>
		<path class="st42" d="M644.1,607.4c-0.7,0.5-3.2,2.6-1.9,7.9c0.1,0.3,0.3,0.5,0.6,0.5h41.8c0.3,0,0.6-0.3,0.6-0.7l0-2.7
			c0-0.3-0.2-0.6-0.6-0.6l-40.1-4.5C644.3,607.3,644.2,607.3,644.1,607.4z"/>
		<g>
			<defs>
				<path id="SVGID_1_" d="M581.5,486l2.4,112.5c0,0,21.2-5.9,32.6-0.3L613.3,497L581.5,486z"/>
			</defs>
			<use xlink:href="#SVGID_1_"  style="overflow:visible;fill:#C7762B;"/>
			<clipPath id="SVGID_2_">
				<use xlink:href="#SVGID_1_"  style="overflow:visible;"/>
			</clipPath>
			<polygon class="st43" points="606.3,489.4 607.5,605.5 618.1,603.8 613.5,491.8 			"/>
		</g>
		<g>
			<defs>
				<path id="SVGID_3_" d="M613.5,500.5l19.7,102.4c0,0,4-15.2,35.2-10l-34.5-108.4L613.5,500.5z"/>
			</defs>
			<use xlink:href="#SVGID_3_"  style="overflow:visible;fill:#C7762B;"/>
			<clipPath id="SVGID_4_">
				<use xlink:href="#SVGID_3_"  style="overflow:visible;"/>
			</clipPath>
			<path class="st45" d="M625.1,476.6c0,4.1,34.5,120.4,34.5,120.4l18.4-8.9l-44.7-115.3L625.1,476.6z"/>
		</g>
		<path id="XMLID_20_" class="st46" d="M642.9,609.9l41.7,1.9c0.3,0,0.5-0.2,0.5-0.5c0.1-2.5-0.4-12.9-14.5-13.2
			c-0.3,0-0.5-0.3-0.5-0.6l0.9-7.8c0-0.3-0.1-0.5-0.4-0.6c-1.7-0.4-8.2-1.9-13.6-0.7c-4.6,1-8.4,3.8-8,10.6c0,0.5-0.6,0.7-0.9,0.4
			l-5.7-6.2c-0.2-0.2-0.4-0.2-0.6-0.1l-3.9,2.5c-0.2,0.1-0.3,0.4-0.2,0.7c0.9,1.7,4.4,9,4.7,13C642.4,609.7,642.6,609.9,642.9,609.9
			z"/>
		<path class="st47" d="M685.2,611.3c0,0.3-0.3,0.5-0.5,0.5l-41.7-1.9c-0.2,0-0.3-0.1-0.4-0.2l38.5,1.8c0.3,0,0.5-0.2,0.5-0.5
			c0.1-2.2-0.3-10.9-10.8-12.8C684.8,598.5,685.3,608.9,685.2,611.3z"/>
		<path class="st46" d="M670.8,598.1c-0.1,0-0.1,0-0.2,0c-0.1,0-0.2,0-0.2-0.1C670.5,598.1,670.7,598.1,670.8,598.1z"/>
		<path class="st48" d="M675.4,604c0,1.7-3.9,3.2-6.7,3.5c-4.6,0.6-9.9-1.4-9.9-3.5c-0.1-1.7,3.4-3.4,6-3.8
			C669.8,599.3,675.5,601.9,675.4,604z"/>
		<path class="st46" d="M568.9,611.5c-0.5-3.1-1.2-13.2,15.8-14.9c0,0,0.1,0,0.1,0l16-3.6c0.7-0.2,1.4,0.4,1.3,1.2
			c-0.3,2.5-0.5,7.3,2.8,7.3c3.4,0,4.9-4.6,5.4-6.7c0.1-0.6,0.8-0.9,1.3-0.8l0,0c0.4,0.1,0.7,0.5,0.8,1l0.6,15.4
			c0,0.6-0.4,1.1-1,1.1l-41.9,0.8C569.5,612.4,569,612,568.9,611.5z"/>
		<path class="st46" d="M568.9,611.5c-0.5-3.1-1.2-13.2,15.8-14.9c0,0,0.1,0,0.1,0l16-3.6c0.7-0.2,1.4,0.4,1.3,1.2
			c-0.3,2.5-0.5,7.3,2.8,7.3c3.4,0,4.9-4.6,5.4-6.7c0.1-0.6,0.8-0.9,1.3-0.8l0,0c0.4,0.1,0.7,0.5,0.8,1l0.6,15.4
			c0,0.6-0.4,1.1-1,1.1l-41.9,0.8C569.5,612.4,569,612,568.9,611.5z"/>
		<path class="st46" d="M612.9,610.4c0,0.6-0.4,1.1-1,1.1l-41.9,0.8c-0.1,0-0.3,0-0.4-0.1l39-0.8c0.6,0,1.1-0.5,1-1.1l-0.5-12.6
			c0.5-1.1,0.9-2.3,1-3.1c0.1-0.6,0.8-0.9,1.3-0.8c0.4,0.1,0.7,0.5,0.8,1L612.9,610.4z"/>
		<path class="st49" d="M569.1,613.1L569.1,613.1c0,1.5,1.2,2.7,2.7,2.7h41.1c0.4,0,0.7-0.3,0.7-0.7v-3.8c0-0.4-0.4-0.8-0.8-0.7
			l-43,1.9C569.4,612.4,569.1,612.7,569.1,613.1z"/>
		<path class="st50" d="M578.7,354.8l-1,0.7l-3.9,2.7l-10.4-3.1l3.6-8.6l7.5-4.7l2.7-1.7c-0.2,2-0.2,3.9-0.1,5.8
			C577.3,349,577.8,351.9,578.7,354.8z"/>
		<g>
			<defs>
				<path id="SVGID_5_" d="M622,383.6c0,6.3,0,11.4-3.9,14.6c-2.4,2-6.4,3.4-9.6,1.9c-5.5-2.6-4.7-12-4.6-14.1
					c0.2-2.6,0.9-11.1,6.7-13.3c3-1.1,7-0.5,9.3,2C622,376.7,622,379.2,622,383.6z"/>
			</defs>
			<use xlink:href="#SVGID_5_"  style="overflow:visible;fill:#FAAC86;"/>
			<clipPath id="SVGID_6_">
				<use xlink:href="#SVGID_5_"  style="overflow:visible;"/>
			</clipPath>
			<path class="st51" d="M603.8,389.3c0,0,10.5,7.7,18.1,0.1s0,0,0,0l0.7,3l-5,4.3l-8.2-0.3l-6.7-2.9l-1.4-5.4L603.8,389.3"/>
		</g>
		<path class="st52" d="M644.6,343.4C644.6,343.4,644.6,343.4,644.6,343.4c0-0.8,0-1.6-0.1-2.3c-1.2-18.6-16.8-38-36.1-36.8
			c-19.6,1.2-32.5,23-31.3,41.8c1.2,17.8,15.3,36.8,33.8,36.8c13.4,0,24.7-10.1,30.2-22.8c1.1,0.4,2.3,0.6,3.5,0.6
			c5.2,0,9.3-3.9,9.3-8.6C654,347.3,649.8,343.4,644.6,343.4z"/>
		<path class="st52" d="M642,337.3c-0.4-6.5-2.6-13.1-6.1-18.9c4.7,6.3,7.8,13.9,8.6,21.5c-0.8-0.2-1.6-0.3-2.4-0.3h0
			C642,338.8,642,338.1,642,337.3z"/>
		<path class="st52" d="M654,352.1c0,4.8-4.2,8.6-9.3,8.6c-1.3,0-2.5-0.2-3.5-0.7c-5.5,12.7-16.8,22.8-30.2,22.8
			c-11.6,0-21.5-7.5-27.5-17.5c6.1,8,14.9,13.7,24.9,13.7c13.4,0,24.7-10.1,30.2-22.8c1.1,0.4,2.3,0.7,3.5,0.7
			c5.2,0,9.3-3.9,9.3-8.6c0-0.9-0.1-1.7-0.4-2.5C652.8,347.3,654,349.6,654,352.1z"/>
		<path class="st53" d="M578.7,354.8l-1,0.7c-1.8-4.3-2.9-8.8-3.2-13.3c0-0.1,0-0.2,0-0.4l2.7-1.7c-0.2,2-0.2,3.9-0.1,5.8
			C577.3,349,577.8,351.9,578.7,354.8z"/>
		<path class="st52" d="M651,345.7c-1.7-1.4-3.9-2.3-6.4-2.3h0c0-0.8,0-1.6-0.1-2.3c0-0.4-0.1-0.8-0.1-1.2
			C647.6,340.7,650.1,342.9,651,345.7z"/>
		<path class="st53" d="M612.6,304.5c12.7,4.3,22.4,17.3,24.9,30.8c1.5-0.9,2.7-2.2,3.9-3.3C637.3,318.5,626.2,306.5,612.6,304.5z"
			/>
		<path class="st53" d="M644.6,343.4L644.6,343.4c0-0.1,0-0.1,0-0.2c-0.1,0-0.3,0-0.4,0.1c2.9,1.5,4.8,4.3,4.8,7.5
			c0,4.8-4.2,8.6-9.3,8.6c-1.3,0-2.5-0.2-3.5-0.6c-5.5,12.7-16.8,22.8-30.2,22.8c-1.2,0-2.5-0.1-3.6-0.3c2.8,0.9,5.7,1.4,8.7,1.4
			c13.4,0,24.7-10.1,30.2-22.8c1.1,0.4,2.3,0.7,3.5,0.7c5.2,0,9.3-3.9,9.3-8.6C654,347.3,649.8,343.4,644.6,343.4z"/>
		<path class="st54" d="M602.3,349.8c-1-0.2-1.9-0.8-2.4-1.7c-0.2-0.3-0.3-0.6-0.4-1c-0.2-0.6-1.1-0.7-1.3-0.1
			c-0.2,0.4-0.3,0.9-0.2,1.4c0.1,1.8,1.5,3.3,3.3,3.5c1,0.1,2-0.3,2.7-0.9c0.5-0.4,0.1-1.2-0.5-1.2
			C603,349.8,602.6,349.8,602.3,349.8z"/>
		<path class="st55" d="M597.5,361.4c1.5-1.7,3.9-2.1,5.4-1c1.6,1.1,1.6,3.1,1.6,3.3"/>
		<ellipse class="st56" cx="592.9" cy="334.6" rx="2.1" ry="3.6"/>
		<ellipse class="st56" cx="612.6" cy="337" rx="2.1" ry="3.6"/>
		<path class="st57" d="M660.6,337.8c-0.7,5-2.7,9.3-3.1,10.1c-1.3,2.7-2.7,4.8-3.8,6.3c0-0.8,0-2.2-0.5-3.7c-0.3-0.9-1-3.1-3.2-4.8
			c-1.5-1.2-3.1-1.7-4-1.8c-3.7-0.7-7.4,0.2-7.7,3.8c0,0.5-0.7,0.7-1,0.3c-2.8-4.3-1.1-9.8-0.7-14.5c0.5-5.5-0.4-13.5-5-17.3
			c-5.2-4.3-11.4-2-17.5-1.7c-12.3,0.6-18.6,0.9-23.1-2.8c-5.4-4.3-6.1-11.6-6.1-12.4c-0.3-4.3,0.9-7.7,1.8-9.5
			c0.1-0.2,0.2-0.4,0.3-0.5c5.2,2,9.9,3.1,15.5,3.1c11.8,0,23,1.3,33.8,6.5c8.6,4.1,16.3,10.5,20.7,18.9
			C658.5,320.2,662,327.8,660.6,337.8z"/>
		<g>
			<defs>
				<path id="XMLID_21_" d="M683.6,444.9c-0.4-5.1-4.5-8.9-19.7-28.8c-8-10.4-16.6-19.9-23.5-23.2v0c-0.1,0-0.1,0-0.2-0.1
					c-1.6-0.8-3.2-1.2-4.6-1.2c-4-0.9-8.6-1.8-13.8-2.2c0,0-0.4,1.3-0.5,1.5c-0.3,0.6-0.8,1.2-1.3,1.8c-1,1.1-2.2,1.9-3.6,2.4
					c-4.5,1.6-11.5-0.8-12.7-5.7c-5.1,0.4-9.2,1.2-13.2,2.1l-33.6-14.3c6.3-6.8,13.2-13.3,19.5-20.1c-1.2-0.3-3.6-1.3-5.3-2.9
					c-3.2-2.9-4.1-7.6-4.3-8.8l-37.7,29.8c-2.9,2.2-2.7,6.6,0.4,8.5l50.6,30.7c-0.9,12.7-1.7,25.6-2.4,38.7
					c-0.8,15.5-1.5,30.7-1.9,45.6c2.3,0.6,5.4,1.3,9.2,2.1c5.9,1.2,15.8,3.4,28.6,3.9c6.9,0.3,15.9,0.3,26.4-0.7
					c0.1-27.1,0.2-54.3,0.3-81.4l22.3,24.2c-2.4,5.4-3.8,8.6-4.7,10.6c0,0.1-1.1,2.6-1.4,3.3c-0.7,1.6-1.4,3.1-2,4.7
					c-1.9,4.4-0.1,7.2-2.4,9.8c-0.3,0.3-0.6,0.6-0.7,0.7c1.3,0.5,3,1.3,4.7,2.8c2.3,1.9,3.6,4,4.3,5.3c4.1-5,8.7-9.4,12.8-14.4
					C678.7,463.7,684.5,454.9,683.6,444.9z"/>
			</defs>
			<use xlink:href="#XMLID_21_"  style="overflow:visible;fill:#51525B;"/>
			<clipPath id="XMLID_85_">
				<use xlink:href="#XMLID_21_"  style="overflow:visible;"/>
			</clipPath>
			<polygon style="opacity:0.35;clip-path:url(#XMLID_85_);fill:#4F515B;" points="643.6,434.7 642.4,430 640.5,422.6 632.2,508.4 
				643.6,508 			"/>
		</g>
		<path class="st59" d="M571.5,354.3C571.5,354.3,571.5,354.3,571.5,354.3C571.5,354.3,571.5,354.3,571.5,354.3
			C571.5,354.3,571.5,354.3,571.5,354.3z"/>
		<path class="st50" d="M659.5,482.4c-0.7,3.4-2,5-3.2,5.8c-1.9,1.4-4.3,1.4-7.2,3.1c-1.5,0.8-2.8,1.8-2.8,1.8
			c-1.2,0.9-2,1.7-2.7,2.4c-1.2,1.2-2.5,2.9-4.3,3.2c-1.1,0.2-0.9-1-0.6-1.7c0.4-0.9,0.8-1.3,1.6-2.2c0.9-1.1,1.6-2.2,1.5-2.2
			c-0.1-0.1-2.2,1.9-5.2,4.4c-0.7,0.6-1.9,1.5-2.8,1.2c-0.3-0.1-0.4-0.2-0.5-0.4c-0.3-0.7,0.8-1.9,1.7-2.9c3-3.1,4.8-4.6,4.6-4.8
			c-0.1-0.2-1.3,0.4-2.5,1.1c-1.9,1.3-2.5,2.5-4.8,4.1c-0.8,0.5-1.4,0.8-1.8,0.7c-0.3-0.2-0.3-1-0.1-1.5c0.1-0.3,0.3-0.5,0.4-0.6
			c4.2-4.9,5-6.2,4.9-6.3c-0.2-0.2-2,1-3.4,2.3c-1.1,1-1.8,1.6-3.1,2.2c-0.4,0.2-1.4,0.5-1.6-0.1c-0.2-0.6,0.7-1.6,1-1.9
			c0,0,10.3-10.5,16.7-10.5c6.4,0,8.9-6.7,8.9-6.7L659.5,482.4z"/>
		<path class="st60" d="M658,457.4c0,0.1-1.1,2.6-1.4,3.3c-1.1,2.5-1.8,4.2-2,4.7c-0.9,2-2.2,5.4-4.4,11.2c1.1,0,3.3,0.3,5.5,1.7
			c3.3,2.1,4.4,5.2,4.7,6.2c2-2.5,4.2-5.1,6.4-7.7c2.1-2.5,4.3-4.9,6.4-7.2c2.3-4.9,4.5-9.8,6.8-14.7c-2.5,0.5-5.5,0.8-8.9,0.9
			c-4.7,0-8.7-0.6-11.8-1.4C658.8,455.6,658.4,456.6,658,457.4z"/>
		<path class="st48" d="M585,604.2c0.5,1.7-2,3.9-3.9,4.9c-3.2,1.6-7.7,0.8-8.4-1.1c-0.5-1.6,1.5-4,3.4-5
			C579.4,600.9,584.4,602.2,585,604.2z"/>
		<path class="st55" d="M610.5,324.8c0.7-0.1,2.7-0.3,4.9,0.9c2.1,1.1,3,2.8,3.3,3.4"/>
		<path class="st55" d="M596.8,327.5c-1.3-1.6-3.4-2.3-5-1.6c-1.2,0.5-1.9,1.5-2.1,1.9"/>
		<path class="st55" d="M593.1,298.4c3.4,2.9,8.9,6.8,16.1,8c9.3,1.6,13.7-2.6,20.5,0c4,1.5,9.6,5.7,14.7,18.3"/>
		<path class="st61" d="M663.1,446.8c0,0,2.3-4,7.8,0"/>
		<path class="st61" d="M590.3,391.9c-0.8,0.7-2,1.7-3,3.3c-0.8,1.2-1.2,2.4-1.5,3.3"/>
	</g>
</g>
<g id="_x33__монтажная_облатсть">
</g>
<g id="_x34__монтажная_область">
</g>
</svg>
