<?xml version="1.0" encoding="utf-8"?>
<!-- Generator: Adobe Illustrator 23.0.3, SVG Export Plug-In . SVG Version: 6.00 Build 0)  -->
<svg version="1.1" xmlns="http://www.w3.org/2000/svg" xmlns:xlink="http://www.w3.org/1999/xlink" x="0px" y="0px"
	 viewBox="0 0 80 80" style="enable-background:new 0 0 80 80;" xml:space="preserve">
<style type="text/css">
	.st0{fill:none;stroke:#000000;stroke-width:1.647;stroke-miterlimit:10;}
	.st1{fill:none;stroke:#000000;stroke-width:1.647;stroke-linejoin:round;stroke-miterlimit:10;}
	.st2{fill:none;stroke:#000000;stroke-width:1.647;stroke-linecap:round;stroke-linejoin:round;stroke-miterlimit:10;}
	.st3{fill:none;stroke:#000000;stroke-width:1.647;stroke-linecap:round;stroke-miterlimit:10;}
	.st4{fill:none;stroke:#000000;stroke-linecap:round;stroke-linejoin:round;stroke-miterlimit:10;}
	.st5{fill:none;stroke:#000000;stroke-miterlimit:10;}
	.st6{fill:none;stroke:#000000;stroke-width:1.6732;stroke-linecap:round;stroke-miterlimit:10;}
	.st7{fill:none;stroke:#000000;stroke-width:1.6639;stroke-linecap:round;stroke-miterlimit:10;}
	.st8{fill:none;stroke:#000000;stroke-width:1.565;stroke-linecap:round;stroke-linejoin:round;stroke-miterlimit:10;}
	.st9{fill:none;stroke:#000000;stroke-width:1.2484;stroke-linecap:round;stroke-miterlimit:10;}
	.st10{fill:none;stroke:#000000;stroke-width:1.2682;stroke-linecap:round;stroke-miterlimit:10;}
	.st11{fill:none;stroke:#000000;stroke-width:1.1862;stroke-linecap:round;stroke-linejoin:round;stroke-miterlimit:10;}
</style>
<g id="образец_цвета">
</g>
<g id="_x31__гарантия">
</g>
<g id="_x32__сертиф_произв">
</g>
<g id="_x33__стандарт_нестандарт">
</g>
<g id="_x34_">
</g>
<g id="_x35__доставка_в_регион_0_руб">
	<g>
		<polyline class="st3" points="32,64.2 54.7,64.2 54.7,62.7 54.7,45.6 54.7,36.9 54.7,31.4 54.7,26.9 9.3,26.9 9.3,64.2 16.8,64.2 
					"/>
		<circle class="st3" cx="24.4" cy="64.2" r="7.6"/>
		<circle class="st3" cx="64.7" cy="64.2" r="7.6"/>
		<path class="st3" d="M72.2,62.7h1c0.9,0,1.7-0.8,1.7-1.7v-6.9v-2.4c0-1-0.2-2-0.7-2.8c-0.8-1.7-2.4-2.9-4.3-3.3
			c-0.4-0.1-0.8-0.1-1.2-0.1H54.7v17.2h2.5"/>
		<path class="st3" d="M67,36.9H54.7v-5.5h9.5c1.6,0,2.9,1.3,2.9,2.9V36.9z"/>
		<line class="st3" x1="67" y1="36.9" x2="69.8" y2="45.7"/>
		<path class="st3" d="M74.8,51.8v2.4h-2c-1.4,0-2.5-1.1-2.5-2.5v-1.7c0-0.5,0.4-1,1-1h2.9C74.6,49.8,74.8,50.8,74.8,51.8z"/>
		<circle class="st3" cx="24.4" cy="64.2" r="2.7"/>
		<circle class="st3" cx="64.7" cy="64.2" r="2.7"/>
		<line class="st3" x1="2.2" y1="54.2" x2="17" y2="54.2"/>
		<line class="st3" x1="7.2" y1="59.7" x2="15.9" y2="59.7"/>
		<line class="st3" x1="28.2" y1="54.2" x2="48.2" y2="54.2"/>
		<path d="M26.4,39.9c-0.8-1-1.8-1.4-3.2-1.4c-1.3,0-2.4,0.5-3.1,1.5c-0.7,1-1.1,2.3-1.1,3.8c0,1.5,0.4,2.8,1.2,3.8
			c0.8,1,1.8,1.4,3.2,1.4v0c1.3,0,2.4-0.5,3.1-1.5c0.7-1,1.1-2.3,1.1-3.8C27.6,42.1,27.2,40.9,26.4,39.9z M24.8,46
			c-0.3,0.5-0.8,0.8-1.4,0.8l0,0c-0.6,0-1.1-0.2-1.4-0.8c-0.3-0.5-0.5-1.3-0.5-2.2c0-1,0.1-1.7,0.4-2.3c0.3-0.5,0.8-0.8,1.4-0.8
			c0.6,0,1.1,0.3,1.4,0.8c0.3,0.5,0.5,1.3,0.5,2.3C25.2,44.7,25.1,45.5,24.8,46z"/>
		<g>
			<path d="M29.7,49.1v-5.8h0.9v1l0,1.1l0.1,1.1v2.5H29.7z M32,47.6c-0.3,0-0.7-0.1-0.9-0.2c-0.3-0.2-0.5-0.4-0.7-0.7
				c-0.2-0.3-0.2-0.7-0.2-1.2c0-0.5,0.1-0.9,0.2-1.2s0.4-0.6,0.7-0.7c0.3-0.2,0.6-0.2,1-0.2c0.4,0,0.8,0.1,1.1,0.3
				c0.3,0.2,0.6,0.4,0.8,0.8c0.2,0.3,0.3,0.7,0.3,1.2c0,0.4-0.1,0.8-0.3,1.2c-0.2,0.3-0.4,0.6-0.8,0.8C32.8,47.5,32.4,47.6,32,47.6z
				 M31.9,46.8c0.2,0,0.5-0.1,0.6-0.2s0.3-0.3,0.4-0.5s0.2-0.4,0.2-0.7c0-0.3-0.1-0.5-0.2-0.7c-0.1-0.2-0.3-0.4-0.4-0.5
				s-0.4-0.2-0.6-0.2c-0.2,0-0.4,0.1-0.6,0.2c-0.2,0.1-0.3,0.3-0.4,0.5c-0.1,0.2-0.2,0.4-0.2,0.7c0,0.3,0.1,0.5,0.2,0.7
				c0.1,0.2,0.3,0.4,0.4,0.5C31.4,46.7,31.6,46.8,31.9,46.8z"/>
			<path d="M35.4,49.2c-0.2,0-0.4,0-0.6-0.1s-0.4-0.2-0.5-0.3l0.4-0.7c0.1,0.1,0.2,0.2,0.3,0.2s0.3,0.1,0.4,0.1c0.2,0,0.3,0,0.4-0.1
				c0.1-0.1,0.2-0.2,0.3-0.5l0.2-0.5l0.1-0.1l1.6-3.8H39l-2,4.6c-0.1,0.3-0.3,0.6-0.4,0.7S36.2,49,36,49
				C35.8,49.1,35.6,49.2,35.4,49.2z M36.2,47.7l-1.9-4.4h1l1.6,3.7L36.2,47.7z"/>
			<path d="M41.6,47.6c-0.4,0-0.7-0.1-0.9-0.2c-0.3-0.1-0.5-0.3-0.7-0.5c-0.2-0.2-0.3-0.5-0.4-0.8c-0.1-0.3-0.2-0.7-0.2-1.2
				c0-0.3,0-0.7,0.1-0.9s0.1-0.5,0.3-0.8s0.3-0.4,0.4-0.6s0.4-0.3,0.6-0.4s0.5-0.2,0.8-0.3l2-0.4l0.1,0.9l-1.8,0.4
				c-0.1,0-0.2,0-0.4,0.1c-0.1,0-0.3,0.1-0.4,0.2s-0.3,0.2-0.4,0.3c-0.1,0.1-0.2,0.3-0.3,0.5s-0.1,0.5-0.1,0.8c0,0.1,0,0.2,0,0.2
				s0,0.1,0,0.2c0,0.1,0,0.1,0,0.2L40,45c0.1-0.3,0.2-0.5,0.4-0.7c0.2-0.2,0.4-0.3,0.7-0.4c0.3-0.1,0.5-0.2,0.8-0.2
				c0.4,0,0.7,0.1,1,0.2c0.3,0.2,0.5,0.4,0.7,0.7c0.2,0.3,0.3,0.6,0.3,1c0,0.4-0.1,0.8-0.3,1.1c-0.2,0.3-0.5,0.5-0.8,0.7
				C42.5,47.5,42.1,47.6,41.6,47.6z M41.7,46.8c0.2,0,0.5-0.1,0.6-0.2c0.2-0.1,0.3-0.3,0.4-0.4c0.1-0.2,0.1-0.4,0.1-0.6
				s0-0.4-0.1-0.6c-0.1-0.2-0.2-0.3-0.4-0.4c-0.2-0.1-0.4-0.1-0.7-0.1c-0.2,0-0.4,0-0.6,0.1s-0.3,0.2-0.4,0.4
				c-0.1,0.2-0.2,0.4-0.2,0.6c0,0.2,0.1,0.4,0.2,0.6s0.3,0.3,0.4,0.4C41.2,46.8,41.5,46.8,41.7,46.8z"/>
			<path d="M45.1,47.6c-0.2,0-0.3-0.1-0.5-0.2c-0.1-0.1-0.2-0.3-0.2-0.5c0-0.2,0.1-0.4,0.2-0.5c0.1-0.1,0.3-0.2,0.5-0.2
				c0.2,0,0.3,0.1,0.4,0.2c0.1,0.1,0.2,0.3,0.2,0.5c0,0.2-0.1,0.4-0.2,0.5C45.4,47.5,45.3,47.6,45.1,47.6z"/>
		</g>
	</g>
</g>
<g id="_x36__регионы">
</g>
<g id="_x37_">
</g>
<g id="_x38__до_500_км_бесплатно">
</g>
<g id="_x39__по_счету_картой">
</g>
<g id="_x31_0_адреса_отправки">
</g>
<g id="_x31_1_лизинг">
</g>
<g id="_x31_2_с_ндс">
</g>
<g id="_x31_3_без_ндс">
</g>
<g id="_x31_4">
</g>
</svg>
