<?xml version="1.0" encoding="utf-8"?>
<!-- Generator: Adobe Illustrator 23.0.3, SVG Export Plug-In . SVG Version: 6.00 Build 0)  -->
<svg version="1.1" xmlns="http://www.w3.org/2000/svg" xmlns:xlink="http://www.w3.org/1999/xlink" x="0px" y="0px"
	 viewBox="0 0 80 80" style="enable-background:new 0 0 80 80;" xml:space="preserve">
<style type="text/css">
	.st0{fill:none;stroke:#FEC513;stroke-width:1.647;stroke-miterlimit:10;}
	.st1{fill:none;stroke:#FEC513;stroke-width:1.647;stroke-linejoin:round;stroke-miterlimit:10;}
	.st2{fill:none;stroke:#FEC513;stroke-width:1.647;stroke-linecap:round;stroke-linejoin:round;stroke-miterlimit:10;}
	.st3{fill:none;stroke:#FEC513;stroke-width:1.647;stroke-linecap:round;stroke-miterlimit:10;}
	.st4{fill:none;stroke:#FEC513;stroke-linecap:round;stroke-linejoin:round;stroke-miterlimit:10;}
	.st5{fill:none;stroke:#FEC513;stroke-miterlimit:10;}
	.st6{fill:none;stroke:#FEC513;stroke-width:1.6732;stroke-linecap:round;stroke-miterlimit:10;}
	.st7{fill:none;stroke:#FEC513;stroke-width:1.6639;stroke-linecap:round;stroke-miterlimit:10;}
	.st8{fill:none;stroke:#FEC513;stroke-width:1.565;stroke-linecap:round;stroke-linejoin:round;stroke-miterlimit:10;}
	.st9{fill:none;stroke:#FEC513;stroke-width:1.2484;stroke-linecap:round;stroke-miterlimit:10;}
	.st10{fill:none;stroke:#FEC513;stroke-width:1.2682;stroke-linecap:round;stroke-miterlimit:10;}
	.st11{fill:none;stroke:#FEC513;stroke-width:1.1862;stroke-linecap:round;stroke-linejoin:round;stroke-miterlimit:10;}
</style>
<g id="образец_цвета">
</g>
<g id="_x31__гарантия">
</g>
<g id="_x32__сертиф_произв">
</g>
<g id="_x33__стандарт_нестандарт">
</g>
<g id="_x34_">
</g>
<g id="_x35__доставка_в_регион_0_руб">
</g>
<g id="_x36__регионы">
	
		<image style="display:none;overflow:visible;opacity:0.5;" width="779" height="758" xlink:href="../111/Скриншот 16-02-2024 112930.jpg"  transform="matrix(7.221981e-02 0 0 7.221981e-02 7 16)">
	</image>
	<polygon class="st2" points="25.2,35.7 25.2,71.8 57,71.8 57,35.7 63.6,35.7 41.1,12.3 18.6,35.7 	"/>
	<g>
		<g>
			<path d="M35.3,41.3c1.2-0.2,2.9-0.4,5.4-0.4c2.4,0,4.2,0.5,5.4,1.4c1.1,0.9,1.9,2.3,1.9,4.1c0,1.7-0.5,3.2-1.6,4.2
				c-1.4,1.2-3.4,1.8-5.7,1.8c-0.5,0-1,0-1.4-0.1v9.8h-3.9V41.3z M39.2,49.3c0.3,0.1,0.7,0.1,1.3,0.1c2.1,0,3.4-1.1,3.4-2.8
				c0-1.6-1.1-2.6-3.1-2.6c-0.8,0-1.3,0.1-1.6,0.1V49.3z"/>
		</g>
		<rect x="32.2" y="54.7" width="10.1" height="3.4"/>
	</g>
</g>
<g id="_x37_">
</g>
<g id="_x38__до_500_км_бесплатно">
</g>
<g id="_x39__по_счету_картой">
</g>
<g id="_x31_0_адреса_отправки">
</g>
<g id="_x31_1_лизинг">
</g>
<g id="_x31_2_с_ндс">
</g>
<g id="_x31_3_без_ндс">
</g>
<g id="_x31_4">
</g>
</svg>
