<?xml version="1.0" encoding="utf-8"?>
<!-- Generator: Adobe Illustrator 23.0.3, SVG Export Plug-In . SVG Version: 6.00 Build 0)  -->
<svg version="1.1" xmlns="http://www.w3.org/2000/svg" xmlns:xlink="http://www.w3.org/1999/xlink" x="0px" y="0px"
	 viewBox="0 0 80 80" style="enable-background:new 0 0 80 80;" xml:space="preserve">
<style type="text/css">
	.st0{fill:none;stroke:#FEC513;stroke-width:1.647;stroke-miterlimit:10;}
	.st1{fill:none;stroke:#FEC513;stroke-width:1.647;stroke-linejoin:round;stroke-miterlimit:10;}
	.st2{fill:none;stroke:#FEC513;stroke-width:1.647;stroke-linecap:round;stroke-linejoin:round;stroke-miterlimit:10;}
	.st3{fill:none;stroke:#FEC513;stroke-width:1.647;stroke-linecap:round;stroke-miterlimit:10;}
	.st4{fill:none;stroke:#FEC513;stroke-linecap:round;stroke-linejoin:round;stroke-miterlimit:10;}
	.st5{fill:none;stroke:#FEC513;stroke-miterlimit:10;}
	.st6{fill:none;stroke:#FEC513;stroke-width:1.6732;stroke-linecap:round;stroke-miterlimit:10;}
	.st7{fill:none;stroke:#FEC513;stroke-width:1.6639;stroke-linecap:round;stroke-miterlimit:10;}
	.st8{fill:none;stroke:#FEC513;stroke-width:1.565;stroke-linecap:round;stroke-linejoin:round;stroke-miterlimit:10;}
	.st9{fill:none;stroke:#FEC513;stroke-width:1.2484;stroke-linecap:round;stroke-miterlimit:10;}
	.st10{fill:none;stroke:#FEC513;stroke-width:1.2682;stroke-linecap:round;stroke-miterlimit:10;}
	.st11{fill:none;stroke:#FEC513;stroke-width:1.1862;stroke-linecap:round;stroke-linejoin:round;stroke-miterlimit:10;}
</style>
<g id="образец_цвета">
</g>
<g id="_x31__гарантия">
</g>
<g id="_x32__сертиф_произв">
</g>
<g id="_x33__стандарт_нестандарт">
	<g>
		<path class="st0" d="M46.9,69.9H14c-2.8,0-5-2.2-5-5V63c0-2.8,2.2-5,5-5h32.9c2.8,0,5,2.2,5,5v1.9C51.9,67.7,49.7,69.9,46.9,69.9z
			"/>
		<path class="st0" d="M17.1,49.6c-3.2,0-5.7,2.6-5.7,5.7V58H15h8.3h2.4"/>
		<path class="st0" d="M25.2,49.6h-9V37.7h13.1l1.1,5.6C31,46.6,28.5,49.6,25.2,49.6z"/>
		<path class="st0" d="M20.9,37.7v13.7c0,1,0.8,1.8,1.8,1.8h6c1,0,1.8-0.8,1.8-1.8l0.2-6.6h15.7c1.7,0,3.1,1.4,3.1,3.1v10H46H25.7
			h-2.4"/>
		<path class="st0" d="M15,58c3.3,0,6,2.7,6,6s-2.7,6-6,6"/>
		<circle class="st0" cx="15" cy="63.9" r="2.4"/>
		<line class="st0" x1="57.9" y1="65.1" x2="29.3" y2="63.9"/>
		<line class="st0" x1="49.5" y1="59.2" x2="57.9" y2="53.2"/>
		<polygon class="st0" points="57.9,49.6 57.9,66.3 60.3,69.9 68.6,69.9 65,65.1 63.8,49.6 		"/>
		<line class="st0" x1="16.2" y1="37.7" x2="16.2" y2="31.8"/>
		<circle class="st0" cx="16.2" cy="30.6" r="2.4"/>
		<circle class="st0" cx="68.6" cy="11.5" r="2.4"/>
		<line class="st0" x1="66.4" y1="12.3" x2="17.9" y2="29"/>
		<line class="st0" x1="67.1" y1="13.3" x2="30.5" y2="44.9"/>
		<line class="st0" x1="37.1" y1="44.9" x2="68" y2="14.5"/>
		<g>
			<line class="st0" x1="68.6" y1="14.6" x2="68.6" y2="30.6"/>
			<ellipse class="st0" cx="68.6" cy="33.5" rx="1.8" ry="3"/>
			<path class="st0" d="M68.6,36.5v3.6c1.3,0,2.4,1.1,2.4,2.4s-1.1,2.4-2.4,2.4c-0.9,0-1.6-0.5-2.1-1.2"/>
		</g>
	</g>
</g>
<g id="_x34_">
</g>
<g id="_x35__доставка_в_регион_0_руб">
</g>
<g id="_x36__регионы">
</g>
<g id="_x37_">
</g>
<g id="_x38__до_500_км_бесплатно">
</g>
<g id="_x39__по_счету_картой">
</g>
<g id="_x31_0_адреса_отправки">
</g>
<g id="_x31_1_лизинг">
</g>
<g id="_x31_2_с_ндс">
</g>
<g id="_x31_3_без_ндс">
</g>
<g id="_x31_4">
</g>
</svg>
