<?xml version="1.0" encoding="utf-8"?>
<!-- Generator: Adobe Illustrator 23.0.3, SVG Export Plug-In . SVG Version: 6.00 Build 0)  -->
<svg version="1.1" xmlns="http://www.w3.org/2000/svg" xmlns:xlink="http://www.w3.org/1999/xlink" x="0px" y="0px"
	 viewBox="0 0 80 80" style="enable-background:new 0 0 80 80;" xml:space="preserve">
<style type="text/css">
	.st0{fill:none;stroke:#FEC513;stroke-width:1.647;stroke-miterlimit:10;}
	.st1{fill:none;stroke:#FEC513;stroke-width:1.647;stroke-linejoin:round;stroke-miterlimit:10;}
	.st2{fill:none;stroke:#FEC513;stroke-width:1.647;stroke-linecap:round;stroke-linejoin:round;stroke-miterlimit:10;}
	.st3{fill:none;stroke:#FEC513;stroke-width:1.647;stroke-linecap:round;stroke-miterlimit:10;}
	.st4{fill:none;stroke:#FEC513;stroke-linecap:round;stroke-linejoin:round;stroke-miterlimit:10;}
	.st5{fill:none;stroke:#FEC513;stroke-miterlimit:10;}
	.st6{fill:none;stroke:#FEC513;stroke-width:1.6732;stroke-linecap:round;stroke-miterlimit:10;}
	.st7{fill:none;stroke:#FEC513;stroke-width:1.6639;stroke-linecap:round;stroke-miterlimit:10;}
	.st8{fill:none;stroke:#FEC513;stroke-width:1.565;stroke-linecap:round;stroke-linejoin:round;stroke-miterlimit:10;}
	.st9{fill:none;stroke:#FEC513;stroke-width:1.2484;stroke-linecap:round;stroke-miterlimit:10;}
	.st10{fill:none;stroke:#FEC513;stroke-width:1.2682;stroke-linecap:round;stroke-miterlimit:10;}
	.st11{fill:none;stroke:#FEC513;stroke-width:1.1862;stroke-linecap:round;stroke-linejoin:round;stroke-miterlimit:10;}
</style>
<g id="образец_цвета">
</g>
<g id="_x31__гарантия">
	<path d="M31.4,33.2c0.3-0.3,0.6-0.4,1-0.4c0.4,0,0.7,0.1,1,0.3c0.2,0.2,0.4,0.5,0.4,0.9c0,0.3-0.1,0.6-0.2,0.8
		c-0.2,0.3-0.4,0.6-0.8,0.9l-3.8,3.7l0,1.6l7.5-0.1l0-2.2l-3.8,0.1l1.8-1.7c0.6-0.6,1.1-1.1,1.3-1.6c0.3-0.5,0.4-1,0.4-1.7
		c0-1-0.4-1.8-1.1-2.4c-0.7-0.5-1.6-0.8-2.7-0.8c-1,0-1.8,0.3-2.5,0.9c-0.7,0.6-1,1.3-1.1,2.1l2.2,0.6C31,33.9,31.1,33.5,31.4,33.2z
		"/>
	<path d="M44.4,31.9c-0.8-1-1.8-1.4-3.2-1.4c-1.3,0-2.4,0.5-3.1,1.5c-0.7,1-1.1,2.3-1.1,3.8c0,1.5,0.4,2.8,1.2,3.8
		c0.8,1,1.8,1.4,3.2,1.4v0c1.3,0,2.4-0.5,3.1-1.5c0.7-1,1.1-2.3,1.1-3.8C45.6,34.1,45.2,32.9,44.4,31.9z M42.8,38
		c-0.3,0.5-0.8,0.8-1.4,0.8l0,0c-0.6,0-1.1-0.2-1.4-0.8c-0.3-0.5-0.5-1.3-0.5-2.2c0-1,0.1-1.7,0.4-2.3c0.3-0.5,0.8-0.8,1.4-0.8
		c0.6,0,1.1,0.3,1.4,0.8c0.3,0.5,0.5,1.3,0.5,2.3C43.2,36.7,43.1,37.5,42.8,38z"/>
	<polygon points="48.6,33.2 48.7,40.6 51.2,40.6 51,30.5 48.9,30.6 45.9,32.2 46.5,34.2 	"/>
	<polygon points="56.9,32.6 53.6,40.5 56.2,40.5 59.7,32 59.6,30.4 52.3,30.5 52.3,32.7 	"/>
	<polygon points="23.9,47.6 21.8,47.6 21.8,45.8 20.8,45.8 20.8,50.1 21.8,50.1 21.8,48.4 23.9,48.4 23.9,50.1 24.9,50.1 24.9,45.8 
		23.9,45.8 	"/>
	<path d="M27.8,45.8c-0.3,0-0.7,0-1,0.1c-0.3,0.1-0.6,0.2-0.8,0.4l0.4,0.7c0.2-0.1,0.4-0.2,0.6-0.3c0.2-0.1,0.5-0.1,0.7-0.1
		c0.4,0,0.6,0.1,0.8,0.2c0.2,0.2,0.3,0.4,0.3,0.7v0.1h-1.1c-0.4,0-0.8,0.1-1,0.2c-0.3,0.1-0.4,0.3-0.6,0.5c-0.1,0.2-0.2,0.4-0.2,0.6
		c0,0.2,0.1,0.5,0.2,0.7s0.3,0.3,0.5,0.5s0.5,0.2,0.8,0.2c0.4,0,0.7-0.1,0.9-0.2c0.2-0.1,0.3-0.2,0.4-0.4v0.5h0.9v-2.5
		c0-0.6-0.2-1.1-0.5-1.4S28.4,45.8,27.8,45.8z M28.3,49.3c-0.2,0.1-0.4,0.2-0.7,0.2c-0.3,0-0.4-0.1-0.6-0.2
		c-0.1-0.1-0.2-0.2-0.2-0.4c0-0.2,0.1-0.3,0.2-0.4s0.3-0.2,0.7-0.2h1v0.5C28.6,49,28.5,49.1,28.3,49.3z"/>
	<path d="M36.5,46c-0.3-0.2-0.7-0.3-1.1-0.3c-0.4,0-0.7,0.1-1,0.2c-0.2,0.1-0.3,0.2-0.4,0.4v-0.6h-0.9v5.8h1v-2.1
		c0.1,0.1,0.3,0.3,0.4,0.4c0.3,0.2,0.6,0.2,0.9,0.2c0.4,0,0.8-0.1,1.1-0.3c0.3-0.2,0.6-0.4,0.8-0.8c0.2-0.3,0.3-0.7,0.3-1.2
		c0-0.4-0.1-0.8-0.3-1.2C37.1,46.5,36.8,46.2,36.5,46z M36.4,48.7c-0.1,0.2-0.3,0.4-0.4,0.5s-0.4,0.2-0.6,0.2
		c-0.2,0-0.4-0.1-0.6-0.2s-0.3-0.3-0.4-0.5S34,48.2,34,48c0-0.3,0.1-0.5,0.2-0.7c0.1-0.2,0.3-0.4,0.4-0.5s0.4-0.2,0.6-0.2
		c0.2,0,0.5,0.1,0.6,0.2s0.3,0.3,0.4,0.5c0.1,0.2,0.2,0.4,0.2,0.7C36.5,48.2,36.5,48.5,36.4,48.7z"/>
	<path d="M40.6,47.2l-1.1,0v-1.4h-1v4.3l1.9,0c0.6,0,1-0.1,1.3-0.4c0.3-0.3,0.5-0.6,0.5-1.1c0-0.4-0.1-0.8-0.4-1
		C41.5,47.3,41.1,47.2,40.6,47.2z M41,49.2c-0.2,0.1-0.4,0.2-0.7,0.2l-0.8,0v-1.4l0.8,0c0.3,0,0.5,0.1,0.7,0.2s0.2,0.3,0.2,0.5
		C41.2,48.9,41.2,49.1,41,49.2z"/>
	<rect x="42.8" y="45.8" width="1" height="4.3"/>
	<polygon points="48.2,47.6 46.1,47.6 46.1,45.8 45.1,45.8 45.1,50.1 46.1,50.1 46.1,48.4 48.2,48.4 48.2,50.1 49.2,50.1 49.2,45.8 
		48.2,45.8 	"/>
	<polygon points="54.6,45.8 53.5,45.8 52.3,47.5 51.5,47.5 51.5,45.8 50.5,45.8 50.5,50.1 51.5,50.1 51.5,48.4 52.2,48.4 53.5,50.1 
		54.7,50.1 53,47.9 	"/>
	<path d="M58.1,46c-0.3-0.2-0.7-0.3-1.1-0.3c-0.4,0-0.8,0.1-1.1,0.3c-0.3,0.2-0.6,0.4-0.8,0.8s-0.3,0.7-0.3,1.1
		c0,0.4,0.1,0.8,0.3,1.1c0.2,0.3,0.5,0.6,0.8,0.8c0.3,0.2,0.8,0.3,1.2,0.3c0.4,0,0.7-0.1,1-0.2c0.3-0.1,0.5-0.3,0.7-0.5l-0.5-0.6
		c-0.1,0.2-0.3,0.3-0.5,0.4c-0.2,0.1-0.4,0.1-0.6,0.1c-0.3,0-0.5-0.1-0.7-0.2c-0.2-0.1-0.4-0.3-0.5-0.5c-0.1-0.1-0.1-0.3-0.1-0.4
		h3.3c0,0,0-0.1,0-0.1c0-0.1,0-0.1,0-0.1c0-0.5-0.1-0.8-0.3-1.2C58.7,46.5,58.5,46.2,58.1,46z M56,47.2c0.1-0.2,0.2-0.3,0.4-0.4
		s0.4-0.2,0.6-0.2c0.2,0,0.5,0.1,0.6,0.2c0.2,0.1,0.3,0.3,0.4,0.4c0.1,0.1,0.1,0.3,0.1,0.4h-2.4C55.9,47.5,55.9,47.3,56,47.2z"/>
	<path d="M21.4,41c0.3,0.2,0.7,0.3,1.2,0.3c0.4,0,0.8-0.1,1.1-0.3c0.3-0.2,0.6-0.4,0.7-0.7l-0.7-0.4c-0.1,0.2-0.3,0.4-0.5,0.5
		c-0.2,0.1-0.4,0.1-0.6,0.1c-0.2,0-0.5-0.1-0.7-0.2s-0.3-0.3-0.5-0.5s-0.2-0.4-0.2-0.7c0-0.3,0.1-0.5,0.2-0.7
		c0.1-0.2,0.3-0.4,0.5-0.5s0.4-0.2,0.7-0.2c0.2,0,0.4,0,0.6,0.1c0.2,0.1,0.3,0.2,0.5,0.4l0.7-0.4c-0.2-0.3-0.4-0.6-0.7-0.7
		c-0.3-0.2-0.7-0.3-1.1-0.3c-0.4,0-0.8,0.1-1.2,0.3s-0.6,0.4-0.8,0.8c-0.2,0.3-0.3,0.7-0.3,1.1c0,0.4,0.1,0.8,0.3,1.1
		C20.8,40.5,21.1,40.8,21.4,41z"/>
	<polygon class="st1" points="40,14.6 46.4,7.7 49.7,16.6 58.3,12.6 57.9,22.1 67.4,21.7 63.4,30.3 72.3,33.6 65.4,40 72.3,46.4 
		63.4,49.7 67.4,58.3 57.9,57.9 58.3,67.4 49.7,63.4 46.4,72.3 40,65.4 33.6,72.3 30.3,63.4 21.7,67.4 22.1,57.9 12.6,58.3 
		16.6,49.7 7.7,46.4 14.6,40 7.7,33.6 16.6,30.3 12.6,21.7 22.1,22.1 21.7,12.6 30.3,16.6 33.6,7.7 	"/>
</g>
<g id="_x32__сертиф_произв">
</g>
<g id="_x33__стандарт_нестандарт">
</g>
<g id="_x34_">
</g>
<g id="_x35__доставка_в_регион_0_руб">
</g>
<g id="_x36__регионы">
</g>
<g id="_x37_">
</g>
<g id="_x38__до_500_км_бесплатно">
</g>
<g id="_x39__по_счету_картой">
</g>
<g id="_x31_0_адреса_отправки">
</g>
<g id="_x31_1_лизинг">
</g>
<g id="_x31_2_с_ндс">
</g>
<g id="_x31_3_без_ндс">
</g>
<g id="_x31_4">
</g>
</svg>
