<?xml version="1.0" encoding="utf-8"?>
<!-- Generator: Adobe Illustrator 23.0.3, SVG Export Plug-In . SVG Version: 6.00 Build 0)  -->
<svg version="1.1" xmlns="http://www.w3.org/2000/svg" xmlns:xlink="http://www.w3.org/1999/xlink" x="0px" y="0px"
	 viewBox="0 0 80 80" style="enable-background:new 0 0 80 80;" xml:space="preserve">
<style type="text/css">
	.st0{fill:none;stroke:#FEC513;stroke-width:1.647;stroke-miterlimit:10;}
	.st1{fill:none;stroke:#FEC513;stroke-width:1.647;stroke-linejoin:round;stroke-miterlimit:10;}
	.st2{fill:none;stroke:#FEC513;stroke-width:1.647;stroke-linecap:round;stroke-linejoin:round;stroke-miterlimit:10;}
	.st3{fill:none;stroke:#FEC513;stroke-width:1.647;stroke-linecap:round;stroke-miterlimit:10;}
	.st4{fill:none;stroke:#FEC513;stroke-linecap:round;stroke-linejoin:round;stroke-miterlimit:10;}
	.st5{fill:none;stroke:#FEC513;stroke-miterlimit:10;}
	.st6{fill:none;stroke:#FEC513;stroke-width:1.6732;stroke-linecap:round;stroke-miterlimit:10;}
	.st7{fill:none;stroke:#FEC513;stroke-width:1.6639;stroke-linecap:round;stroke-miterlimit:10;}
	.st8{fill:none;stroke:#FEC513;stroke-width:1.565;stroke-linecap:round;stroke-linejoin:round;stroke-miterlimit:10;}
	.st9{fill:none;stroke:#FEC513;stroke-width:1.2484;stroke-linecap:round;stroke-miterlimit:10;}
	.st10{fill:none;stroke:#FEC513;stroke-width:1.2682;stroke-linecap:round;stroke-miterlimit:10;}
	.st11{fill:none;stroke:#FEC513;stroke-width:1.1862;stroke-linecap:round;stroke-linejoin:round;stroke-miterlimit:10;}
</style>
<g id="образец_цвета">
</g>
<g id="_x31__гарантия">
</g>
<g id="_x32__сертиф_произв">
</g>
<g id="_x33__стандарт_нестандарт">
</g>
<g id="_x34_">
	<g>
		<g>
			<polyline class="st0" points="47,9 19,9 19,70 53.7,70 			"/>
			<line class="st0" x1="62" y1="49.1" x2="62" y2="24.8"/>
			<polygon class="st1" points="47,9 62,24.8 47,25 			"/>
		</g>
		<rect x="25" y="17" class="st0" width="16" height="8"/>
		<line class="st0" x1="25" y1="35" x2="47" y2="35"/>
		<line class="st0" x1="25" y1="42" x2="47" y2="42"/>
		<line class="st0" x1="25" y1="49" x2="47" y2="49"/>
		<g>
			<path class="st3" d="M62.2,76.7l-1.1-0.4c-6.8-2.4-10.4-9.4-10.6-20.8l0-2.5L62.2,49l11.8,3.9L74,55.5
				c-0.2,11.4-3.8,18.4-10.6,20.8L62.2,76.7z"/>
			<path class="st3" d="M62.2,52.7l-8.3,2.8c0.2,9.3,2.6,15.6,8.3,17.6c5.7-2,8.1-8.3,8.3-17.6L62.2,52.7"/>
		</g>
	</g>
</g>
<g id="_x35__доставка_в_регион_0_руб">
</g>
<g id="_x36__регионы">
</g>
<g id="_x37_">
</g>
<g id="_x38__до_500_км_бесплатно">
</g>
<g id="_x39__по_счету_картой">
</g>
<g id="_x31_0_адреса_отправки">
</g>
<g id="_x31_1_лизинг">
</g>
<g id="_x31_2_с_ндс">
</g>
<g id="_x31_3_без_ндс">
</g>
<g id="_x31_4">
</g>
</svg>
