<?xml version="1.0" encoding="utf-8"?>
<!-- Generator: Adobe Illustrator 23.0.3, SVG Export Plug-In . SVG Version: 6.00 Build 0)  -->
<svg version="1.1" xmlns="http://www.w3.org/2000/svg" xmlns:xlink="http://www.w3.org/1999/xlink" x="0px" y="0px"
	 viewBox="0 0 45 45" style="enable-background:new 0 0 45 45;" xml:space="preserve">
<style type="text/css">
	.st0{fill:none;stroke:#000000;stroke-width:0.5;stroke-linecap:round;stroke-linejoin:round;stroke-miterlimit:10;}
	.st1{fill:none;}
	.st2{fill:#ED1E79;}
	.st3{fill:none;stroke:#000000;stroke-linecap:round;stroke-linejoin:round;stroke-miterlimit:10;}
</style>
<g id="Слой_2">
</g>
<g id="Слой_3">
</g>
<g id="Слой_4">
	<g>
		<path class="st0" d="M23.9,27.5h-2.8v-3c0-0.6,0.5-1.1,1.1-1.1h0.5c0.6,0,1.1,0.5,1.1,1.1V27.5z"/>
		<g>
			<path class="st0" d="M13.3,16.8h-4c-1,0-1.7-0.8-1.7-1.7V2.5c0-1,0.8-1.7,1.7-1.7h4c1,0,1.7,0.8,1.7,1.7v12.6
				C15,16,14.2,16.8,13.3,16.8z"/>
			<path class="st0" d="M35.8,16.8h-4c-1,0-1.7-0.8-1.7-1.7V2.5c0-1,0.8-1.7,1.7-1.7h4c1,0,1.7,0.8,1.7,1.7v12.6
				C37.5,16,36.7,16.8,35.8,16.8z"/>
		</g>
		<g>
			<line class="st0" x1="21" y1="8.5" x2="15" y2="8.5"/>
			<line class="st0" x1="30" y1="8.5" x2="24" y2="8.5"/>
			<polyline class="st0" points="15,9.5 17.9,9.5 19,9.5 21.1,9.5 			"/>
			<polyline class="st0" points="23.9,9.5 26,9.5 27.1,9.5 30,9.5 			"/>
			<path class="st0" d="M23,12.5h0.7l0.2-2.6L24,8.1l0.1-0.9c0-0.3,0-0.7-0.1-1c-0.1-0.3-0.3-0.7-0.7-0.9c-0.1,0-0.7-0.4-1.4,0
				c-0.4,0.2-0.6,0.6-0.7,0.9c-0.1,0.3-0.1,0.6-0.1,1l0.1,1l0.1,1.8l0.2,2.6H22"/>
		</g>
		<line class="st0" x1="22" y1="17.5" x2="19" y2="17.5"/>
		<line class="st0" x1="22" y1="20.1" x2="19" y2="20.1"/>
		<line class="st0" x1="26" y1="20.1" x2="23" y2="20.1"/>
		<line class="st0" x1="26" y1="17.5" x2="23" y2="17.5"/>
		<line class="st0" x1="19" y1="21" x2="19" y2="20.1"/>
		<polyline class="st0" points="19,9.5 19,15.3 19,17.3 19,17.4 19,17.5 		"/>
		<line class="st0" x1="17.9" y1="20.3" x2="17.9" y2="9.5"/>
		<polyline class="st0" points="23,11.9 23,15.8 23,17.5 		"/>
		<line class="st0" x1="23" y1="23.3" x2="23" y2="20.1"/>
		<line class="st0" x1="22" y1="23.3" x2="22" y2="20.1"/>
		<polyline class="st0" points="22,11.9 22,15.8 22,17.5 		"/>
		<line class="st0" x1="26" y1="21.1" x2="26" y2="20.1"/>
		<polyline class="st0" points="26,9.5 26,15.3 26,17.3 26,17.4 26,17.5 		"/>
		<line class="st0" x1="27.1" y1="20.3" x2="27.1" y2="9.5"/>
		<path class="st0" d="M16.8,27.3l-2.4-0.1c-0.6,0-1-0.4-1-0.7l1-5.7c0.1-0.4,0.6-0.6,1.2-0.6l2.4,0.1c0.6,0,1,0.4,1,0.7l-1,5.7
			C17.9,27.1,17.4,27.3,16.8,27.3z"/>
		<path class="st0" d="M28.2,27.3l2.4-0.1c0.6,0,1-0.4,1-0.7l-1-5.7c-0.1-0.4-0.6-0.6-1.2-0.6L27,20.4c-0.6,0-1,0.4-1,0.7l1,5.7
			C27.1,27.1,27.6,27.4,28.2,27.3z"/>
		<g>
			<g>
				<line class="st0" x1="10.6" y1="3.6" x2="9" y2="6.6"/>
				<line class="st0" x1="10.4" y1="7.7" x2="8.8" y2="10.7"/>
				<line class="st0" x1="10.2" y1="11.8" x2="8.6" y2="14.8"/>
			</g>
			<g>
				<line class="st0" x1="11.9" y1="3.6" x2="13.4" y2="6.6"/>
				<line class="st0" x1="12.1" y1="7.7" x2="13.7" y2="10.7"/>
				<line class="st0" x1="12.3" y1="11.8" x2="13.9" y2="14.8"/>
			</g>
		</g>
		<g>
			<g>
				<line class="st0" x1="33.1" y1="3.6" x2="31.6" y2="6.6"/>
				<line class="st0" x1="32.9" y1="7.7" x2="31.4" y2="10.7"/>
				<line class="st0" x1="32.7" y1="11.8" x2="31.2" y2="14.8"/>
			</g>
			<g>
				<line class="st0" x1="34.4" y1="3.6" x2="36" y2="6.6"/>
				<line class="st0" x1="34.6" y1="7.7" x2="36.2" y2="10.7"/>
				<line class="st0" x1="34.8" y1="11.8" x2="36.4" y2="14.8"/>
			</g>
		</g>
		<g>
			<polyline class="st0" points="16.4,35.7 16.4,30 28.6,30 28.6,35.7 			"/>
			<polyline class="st0" points="28.6,36.7 28.6,42.3 16.4,42.3 16.4,36.7 			"/>
			<rect x="19" y="27.5" class="st0" width="6.8" height="2.6"/>
			<g>
				<g>
					<line class="st0" x1="10.6" y1="31.1" x2="9" y2="34.1"/>
					<line class="st0" x1="10.4" y1="35.2" x2="8.8" y2="38.1"/>
					<line class="st0" x1="10.2" y1="39.3" x2="8.6" y2="42.2"/>
				</g>
				<g>
					<line class="st0" x1="11.9" y1="31.1" x2="13.4" y2="34.1"/>
					<line class="st0" x1="12.1" y1="35.2" x2="13.6" y2="38.1"/>
					<line class="st0" x1="12.3" y1="39.3" x2="13.9" y2="42.2"/>
				</g>
			</g>
			<g>
				<g>
					<line class="st0" x1="33.1" y1="31.1" x2="31.6" y2="34.1"/>
					<line class="st0" x1="32.9" y1="35.2" x2="31.4" y2="38.1"/>
					<line class="st0" x1="32.7" y1="39.3" x2="31.1" y2="42.2"/>
				</g>
				<g>
					<line class="st0" x1="34.4" y1="31.1" x2="36" y2="34.1"/>
					<line class="st0" x1="34.6" y1="35.2" x2="36.2" y2="38.1"/>
					<line class="st0" x1="34.8" y1="39.3" x2="36.4" y2="42.2"/>
				</g>
			</g>
			<g>
				<path class="st0" d="M13.3,44.2h-4c-1,0-1.7-0.8-1.7-1.7V29.9c0-1,0.8-1.7,1.7-1.7h4c1,0,1.7,0.8,1.7,1.7v12.6
					C15,43.4,14.2,44.2,13.3,44.2z"/>
				<path class="st0" d="M35.8,44.2h-4c-1,0-1.7-0.8-1.7-1.7V29.9c0-1,0.8-1.7,1.7-1.7h4c1,0,1.7,0.8,1.7,1.7v12.6
					C37.5,43.4,36.7,44.2,35.8,44.2z"/>
			</g>
			<g>
				<line class="st0" x1="30" y1="35.7" x2="28.6" y2="35.7"/>
				<polyline class="st0" points="15,35.7 15.1,35.7 16.4,35.7 				"/>
				<line class="st0" x1="16.4" y1="36.7" x2="15" y2="36.7"/>
				<line class="st0" x1="30" y1="36.7" x2="28.6" y2="36.7"/>
			</g>
		</g>
	</g>
</g>
<g id="Слой_5">
</g>
<g id="Слой_6">
</g>
</svg>
