<?xml version="1.0" encoding="utf-8"?>
<!-- Generator: Adobe Illustrator 23.0.3, SVG Export Plug-In . SVG Version: 6.00 Build 0)  -->
<svg version="1.1" xmlns="http://www.w3.org/2000/svg" xmlns:xlink="http://www.w3.org/1999/xlink" x="0px" y="0px"
	 viewBox="0 0 80 80" style="enable-background:new 0 0 80 80;" xml:space="preserve">
<style type="text/css">
	.st0{fill:none;stroke:#000000;stroke-width:1.647;stroke-miterlimit:10;}
	.st1{fill:none;stroke:#000000;stroke-width:1.647;stroke-linejoin:round;stroke-miterlimit:10;}
	.st2{fill:none;stroke:#000000;stroke-width:1.647;stroke-linecap:round;stroke-linejoin:round;stroke-miterlimit:10;}
	.st3{fill:none;stroke:#000000;stroke-width:1.647;stroke-linecap:round;stroke-miterlimit:10;}
	.st4{fill:none;stroke:#000000;stroke-linecap:round;stroke-linejoin:round;stroke-miterlimit:10;}
	.st5{fill:none;stroke:#000000;stroke-miterlimit:10;}
	.st6{fill:none;stroke:#000000;stroke-width:1.6732;stroke-linecap:round;stroke-miterlimit:10;}
	.st7{fill:none;stroke:#000000;stroke-width:1.6639;stroke-linecap:round;stroke-miterlimit:10;}
	.st8{fill:none;stroke:#000000;stroke-width:1.565;stroke-linecap:round;stroke-linejoin:round;stroke-miterlimit:10;}
	.st9{fill:none;stroke:#000000;stroke-width:1.2484;stroke-linecap:round;stroke-miterlimit:10;}
	.st10{fill:none;stroke:#000000;stroke-width:1.2682;stroke-linecap:round;stroke-miterlimit:10;}
	.st11{fill:none;stroke:#000000;stroke-width:1.1862;stroke-linecap:round;stroke-linejoin:round;stroke-miterlimit:10;}
</style>
<g id="образец_цвета">
</g>
<g id="_x31__гарантия">
</g>
<g id="_x32__сертиф_произв">
</g>
<g id="_x33__стандарт_нестандарт">
</g>
<g id="_x34_">
</g>
<g id="_x35__доставка_в_регион_0_руб">
</g>
<g id="_x36__регионы">
</g>
<g id="_x37_">
</g>
<g id="_x38__до_500_км_бесплатно">
</g>
<g id="_x39__по_счету_картой">
</g>
<g id="_x31_0_адреса_отправки">
</g>
<g id="_x31_1_лизинг">
	<g>
		<g>
			<path class="st3" d="M12.7,50.8c0.5-0.3,1.2-0.8,2.1-1.3c0,0,2.9-1.4,6.3-1.5c4.2-0.1,10.1,5.4,17.6,7.7
				c7.8,2.4,14.8,0.7,15.6,3.6c0,0.1,0.2,0.8-0.1,1.4c-0.4,0.8-1.5,1.5-7.7,1.8c-2.8,0.1-4.2,0.2-6,0.1c-4.4-0.2-6.7-1.1-8-1.6
				c0,0-0.1,0-0.1,0"/>
			<path class="st3" d="M38.4,55.8c6.8-5.2,16.2-11.7,18.8-9.6c1,0.8,1,1.7,1.4,2.2l-12.1,8.4"/>
			<path class="st3" d="M63.3,51c0,0,0-4.5-4.4-3.3"/>
			<path class="st3" d="M53.6,58.4l10.5-7.6c1.9-0.9,3.2,0.5,3.2,2.2c0,1.9-1.9,3.6-3.1,4.6c-6.6,5.3-12.7,12.1-21.7,12.7
				c-3.7,0.2-7.3-0.5-10.6-2c-3.1-1.5-5.2-4.3-8.8-4.2c-1.9,0-4.8,0.8-8.2,4.6"/>
		</g>
		<g>
			<path class="st0" d="M51.4,43.4h-26c-2.8,0-5-2.2-5-5v0c0-2.8,2.2-5,5-5h26c2.8,0,5,2.2,5,5v0C56.4,41.2,54.2,43.4,51.4,43.4z"/>
			<path class="st0" d="M27.3,26.4c-2.7,0-4.8,2.1-4.8,4.8v2.2h3h7h2"/>
			<path class="st0" d="M34,26.4h-7.6v-10h11l0.9,4.7C38.9,23.9,36.8,26.4,34,26.4z"/>
			<path class="st0" d="M30.4,16.4v11.5c0,0.8,0.7,1.5,1.5,1.5h5c0.8,0,1.5-0.7,1.5-1.5l0.2-5.5h13.2c1.4,0,2.6,1.2,2.6,2.6v8.4h-3
				h-17h-2"/>
			<g>
				<path class="st0" d="M47,22.4l-1.5-0.2l0.2-1.4c0.2-2.2,1.7-4,3.8-4.7L50,16l0.9,2.8L50.4,19c-1,0.3-1.6,1.2-1.8,2.2l-0.1,1.2"
					/>
			</g>
			<circle class="st0" cx="25.4" cy="38.4" r="2"/>
			<circle class="st0" cx="51.4" cy="38.4" r="2"/>
		</g>
	</g>
</g>
<g id="_x31_2_с_ндс">
</g>
<g id="_x31_3_без_ндс">
</g>
<g id="_x31_4">
</g>
</svg>
