<?xml version="1.0" encoding="utf-8"?>
<!-- Generator: Adobe Illustrator 23.0.3, SVG Export Plug-In . SVG Version: 6.00 Build 0)  -->
<svg version="1.1" xmlns="http://www.w3.org/2000/svg" xmlns:xlink="http://www.w3.org/1999/xlink" x="0px" y="0px"
	 viewBox="0 0 80 80" style="enable-background:new 0 0 80 80;" xml:space="preserve">
<style type="text/css">
	.st0{fill:none;stroke:#000000;stroke-width:1.647;stroke-miterlimit:10;}
	.st1{fill:none;stroke:#000000;stroke-width:1.647;stroke-linejoin:round;stroke-miterlimit:10;}
	.st2{fill:none;stroke:#000000;stroke-width:1.647;stroke-linecap:round;stroke-linejoin:round;stroke-miterlimit:10;}
	.st3{fill:none;stroke:#000000;stroke-width:1.647;stroke-linecap:round;stroke-miterlimit:10;}
	.st4{fill:none;stroke:#000000;stroke-linecap:round;stroke-linejoin:round;stroke-miterlimit:10;}
	.st5{fill:none;stroke:#000000;stroke-miterlimit:10;}
	.st6{fill:none;stroke:#000000;stroke-width:1.6732;stroke-linecap:round;stroke-miterlimit:10;}
	.st7{fill:none;stroke:#000000;stroke-width:1.6639;stroke-linecap:round;stroke-miterlimit:10;}
	.st8{fill:none;stroke:#000000;stroke-width:1.565;stroke-linecap:round;stroke-linejoin:round;stroke-miterlimit:10;}
	.st9{fill:none;stroke:#000000;stroke-width:1.2484;stroke-linecap:round;stroke-miterlimit:10;}
	.st10{fill:none;stroke:#000000;stroke-width:1.2682;stroke-linecap:round;stroke-miterlimit:10;}
	.st11{fill:none;stroke:#000000;stroke-width:1.1862;stroke-linecap:round;stroke-linejoin:round;stroke-miterlimit:10;}
</style>
<g id="образец_цвета">
</g>
<g id="_x31__гарантия">
</g>
<g id="_x32__сертиф_произв">
</g>
<g id="_x33__стандарт_нестандарт">
</g>
<g id="_x34_">
</g>
<g id="_x35__доставка_в_регион_0_руб">
</g>
<g id="_x36__регионы">
</g>
<g id="_x37_">
</g>
<g id="_x38__до_500_км_бесплатно">
</g>
<g id="_x39__по_счету_картой">
</g>
<g id="_x31_0_адреса_отправки">
</g>
<g id="_x31_1_лизинг">
</g>
<g id="_x31_2_с_ндс">
	
		<image style="display:none;overflow:visible;" width="514" height="500" xlink:href="../12.jpg"  transform="matrix(0.1345 0 0 0.1345 -49.1611 8.0883)">
	</image>
</g>
<g id="_x31_3_без_ндс">
	<g>
		<path class="st3" d="M22,71.5L22,71.5c-2.9,0-5.2-2.3-5.2-5.2v-4.2h10.4v4.2C27.2,69.2,24.9,71.5,22,71.5z"/>
		<path class="st3" d="M59.1,62.9v6.9c0,1-0.8,1.7-1.7,1.7H22"/>
		<path class="st3" d="M27.2,62.1V17.1c0-1,0.8-1.7,1.7-1.7h28.5c1,0,1.7,0.8,1.7,1.7v32.2"/>
		<g>
			<path d="M34,28l0,2.5l2.2,0l0-2.5l2.2,0l0.1,7l-2.2,0l-0.1-2.8l-2.2,0l0.1,2.8L32,35l-0.1-7L34,28z"/>
			<path d="M46.7,27.7l0.1,5.5l0.8,0l0,3.8l-1.6,0l-0.1-2.3l-4.4,0.1l-0.1,2.3l-1.7,0l-0.1-3.8l0.7-0.1c0.3-0.5,0.5-1,0.7-1.5
				c0.2-0.7,0.3-1.5,0.3-2.3l0-1.7L46.7,27.7z M43,30.2c0,0.6-0.1,1.2-0.2,1.8c-0.1,0.4-0.3,0.8-0.5,1.2l2.3,0l-0.1-3.8l-1.6,0
				L43,30.2z"/>
			<path d="M54,34.4c-0.4,0.2-1.1,0.4-1.9,0.4c-2.3,0-3.7-1.3-3.8-3.5c0-2.1,1.3-3.8,3.9-3.8c0.6,0,1.2,0.1,1.7,0.2l-0.3,1.6
				c-0.3-0.1-0.7-0.2-1.2-0.2c-1.1,0-1.9,0.9-1.8,2c0,1.3,0.9,2,2,1.9c0.5,0,0.9-0.1,1.2-0.3L54,34.4z"/>
		</g>
		<circle class="st3" cx="59.1" cy="56.1" r="6.8"/>
		<g>
			<line class="st2" x1="33" y1="43.8" x2="48.9" y2="43.8"/>
			<line class="st2" x1="33" y1="48.4" x2="48.9" y2="48.4"/>
			<line class="st2" x1="33" y1="52.9" x2="48.9" y2="52.9"/>
		</g>
		<g>
			<line class="st2" x1="56.5" y1="53.5" x2="61.7" y2="58.7"/>
			<line class="st2" x1="61.7" y1="53.5" x2="56.5" y2="58.7"/>
		</g>
	</g>
</g>
<g id="_x31_4">
</g>
</svg>
